M48
; DRILL file {KiCad 5.1.5+dfsg1-2build2} date Sun 27 Dec 2020 02:09:15 PM EST
; FORMAT={-:-/ absolute / metric / decimal}
; #@! TF.CreationDate,2020-12-27T14:09:15-05:00
; #@! TF.GenerationSoftware,Kicad,Pcbnew,5.1.5+dfsg1-2build2
FMAT,2
METRIC
T1C0.400
T2C0.500
T3C0.600
T4C0.850
T5C0.920
T6C1.000
T7C2.300
T8C3.200
%
G90
G05
T1
X59.766Y-84.328
X59.766Y-95.301
X59.842Y-62.636
X59.842Y-106.045
X59.919Y-73.457
X59.944Y-117.043
X59.944Y-127.889
X59.969Y-138.811
X66.237Y-57.9
X66.237Y-65.95
X66.237Y-68.786
X66.237Y-76.836
X66.237Y-79.672
X66.237Y-87.722
X66.237Y-90.557
X66.237Y-98.607
X66.237Y-101.443
X66.237Y-109.493
X66.237Y-112.329
X66.237Y-120.379
X66.237Y-123.214
X66.237Y-131.264
X66.237Y-134.1
X66.237Y-142.15
X69.348Y-133.763
X74.092Y-140.132
X77.398Y-133.763
X82.648Y-133.763
X87.274Y-140.106
X90.698Y-133.763
X96.018Y-133.763
X96.965Y-105.702
X100.0Y-105.004
X100.584Y-140.157
X100.999Y-105.029
X104.068Y-133.763
X105.364Y-108.755
X105.443Y-93.525
X107.099Y-85.53
X107.13Y-84.53
X107.262Y-100.763
X107.778Y-96.354
X108.382Y-83.033
X109.042Y-104.953
X109.498Y-133.763
X110.109Y-104.927
X111.089Y-108.515
X111.128Y-107.516
X111.25Y-98.0
X112.0Y-96.25
X113.182Y-89.002
X114.198Y-140.183
X114.783Y-80.289
X114.833Y-93.645
X115.951Y-81.915
X117.0Y-92.75
X117.548Y-133.763
X118.5Y-95.0
X122.748Y-133.763
X127.356Y-140.31
X130.798Y-133.763
X133.756Y-57.9
X133.756Y-65.95
X133.756Y-68.786
X133.756Y-76.836
X133.756Y-79.672
X133.756Y-87.722
X133.756Y-90.557
X133.756Y-98.607
X133.756Y-101.443
X133.756Y-109.813
X133.756Y-112.329
X133.756Y-120.379
X133.756Y-123.214
X133.756Y-131.264
X133.756Y-134.1
X133.756Y-142.15
X140.005Y-115.697
X140.056Y-93.955
X140.081Y-72.085
X140.106Y-61.163
X140.132Y-104.877
X140.208Y-137.541
X140.386Y-126.543
T2
X100.82Y-72.59
X100.82Y-74.09
X100.91Y-64.58
X100.91Y-66.08
X102.32Y-72.6
X102.32Y-74.09
X102.41Y-64.59
X102.41Y-66.08
X107.71Y-73.84
X107.71Y-75.34
X109.21Y-73.85
X109.21Y-75.34
X110.88Y-71.16
X110.88Y-72.66
X112.38Y-71.17
X112.38Y-72.66
X140.5Y-83.0
T4
X145.897Y-59.425
X145.897Y-64.425
X145.897Y-102.968
X145.897Y-107.968
X54.178Y-102.968
X54.178Y-107.968
X124.273Y-145.879
X129.273Y-145.879
X145.857Y-81.197
X145.857Y-86.197
X145.857Y-92.082
X145.857Y-97.082
X145.897Y-135.625
X145.897Y-140.625
X54.178Y-59.425
X54.178Y-64.425
X54.178Y-124.739
X54.178Y-129.739
X92.293Y-54.091
X97.293Y-54.091
X111.023Y-145.879
X116.023Y-145.879
X54.178Y-135.625
X54.178Y-140.625
X70.873Y-145.879
X75.873Y-145.879
X97.543Y-145.879
X102.543Y-145.879
X84.173Y-145.879
X89.173Y-145.879
X54.178Y-92.082
X54.178Y-97.082
X145.897Y-113.854
X145.897Y-118.854
X145.857Y-124.739
X145.857Y-129.739
X54.178Y-81.197
X54.178Y-86.197
X54.178Y-70.311
X54.178Y-75.311
X54.178Y-113.854
X54.178Y-118.854
X145.857Y-70.311
X145.857Y-75.311
T5
X116.368Y-61.214
X118.868Y-61.214
X120.868Y-61.214
X123.368Y-61.214
T6
X124.75Y-91.55
X124.75Y-94.09
X124.75Y-96.63
X124.75Y-99.17
X124.75Y-101.71
X124.75Y-104.25
X106.172Y-54.153
X106.172Y-56.693
X106.172Y-59.233
X81.915Y-70.688
X84.455Y-70.688
T7
X113.298Y-58.504
X126.438Y-58.504
T8
X146.583Y-53.442
X53.442Y-53.442
X53.442Y-146.558
X146.533Y-146.558
T3
G00X51.128Y-134.625
M15
G01X51.828Y-134.625
M16
G05
G00X51.828Y-141.625
M15
G01X51.128Y-141.625
M16
G05
G00X69.873Y-148.929
M15
G01X69.873Y-148.229
M16
G05
G00X76.873Y-148.229
M15
G01X76.873Y-148.929
M16
G05
G00X96.543Y-148.929
M15
G01X96.543Y-148.229
M16
G05
G00X103.543Y-148.229
M15
G01X103.543Y-148.929
M16
G05
G00X83.173Y-148.929
M15
G01X83.173Y-148.229
M16
G05
G00X90.173Y-148.229
M15
G01X90.173Y-148.929
M16
G05
G00X51.128Y-91.082
M15
G01X51.828Y-91.082
M16
G05
G00X51.828Y-98.082
M15
G01X51.128Y-98.082
M16
G05
G00X148.247Y-112.854
M15
G01X148.947Y-112.854
M16
G05
G00X148.947Y-119.854
M15
G01X148.247Y-119.854
M16
G05
G00X148.207Y-123.739
M15
G01X148.907Y-123.739
M16
G05
G00X148.907Y-130.739
M15
G01X148.207Y-130.739
M16
G05
G00X51.128Y-80.197
M15
G01X51.828Y-80.197
M16
G05
G00X51.828Y-87.197
M15
G01X51.128Y-87.197
M16
G05
G00X51.128Y-69.311
M15
G01X51.828Y-69.311
M16
G05
G00X51.828Y-76.311
M15
G01X51.128Y-76.311
M16
G05
G00X51.128Y-112.854
M15
G01X51.828Y-112.854
M16
G05
G00X51.828Y-119.854
M15
G01X51.128Y-119.854
M16
G05
G00X148.207Y-69.311
M15
G01X148.907Y-69.311
M16
G05
G00X148.907Y-76.311
M15
G01X148.207Y-76.311
M16
G05
G00X148.247Y-58.425
M15
G01X148.947Y-58.425
M16
G05
G00X148.947Y-65.425
M15
G01X148.247Y-65.425
M16
G05
G00X148.247Y-101.968
M15
G01X148.947Y-101.968
M16
G05
G00X148.947Y-108.968
M15
G01X148.247Y-108.968
M16
G05
G00X51.128Y-101.968
M15
G01X51.828Y-101.968
M16
G05
G00X51.828Y-108.968
M15
G01X51.128Y-108.968
M16
G05
G00X123.273Y-148.929
M15
G01X123.273Y-148.229
M16
G05
G00X130.273Y-148.229
M15
G01X130.273Y-148.929
M16
G05
G00X148.207Y-80.197
M15
G01X148.907Y-80.197
M16
G05
G00X148.907Y-87.197
M15
G01X148.207Y-87.197
M16
G05
G00X148.207Y-91.082
M15
G01X148.907Y-91.082
M16
G05
G00X148.907Y-98.082
M15
G01X148.207Y-98.082
M16
G05
G00X148.247Y-134.625
M15
G01X148.947Y-134.625
M16
G05
G00X148.947Y-141.625
M15
G01X148.247Y-141.625
M16
G05
G00X51.128Y-58.425
M15
G01X51.828Y-58.425
M16
G05
G00X51.828Y-65.425
M15
G01X51.128Y-65.425
M16
G05
G00X51.128Y-123.739
M15
G01X51.828Y-123.739
M16
G05
G00X51.828Y-130.739
M15
G01X51.128Y-130.739
M16
G05
G00X91.293Y-51.741
M15
G01X91.293Y-51.041
M16
G05
G00X98.293Y-51.041
M15
G01X98.293Y-51.741
M16
G05
G00X110.023Y-148.929
M15
G01X110.023Y-148.229
M16
G05
G00X117.023Y-148.229
M15
G01X117.023Y-148.929
M16
G05
T6
G00X78.053Y-57.773
M15
G01X78.053Y-59.773
M16
G05
G00X83.753Y-55.773
M15
G01X81.753Y-55.773
M16
G05
G00X83.753Y-61.773
M15
G01X81.753Y-61.773
M16
G05
T0
M30
