G04 #@! TF.GenerationSoftware,KiCad,Pcbnew,5.1.5+dfsg1-2build2*
G04 #@! TF.CreationDate,2020-12-27T14:15:37-05:00*
G04 #@! TF.ProjectId,usb-solder,7573622d-736f-46c6-9465-722e6b696361,rev?*
G04 #@! TF.SameCoordinates,Original*
G04 #@! TF.FileFunction,Legend,Top*
G04 #@! TF.FilePolarity,Positive*
%FSLAX46Y46*%
G04 Gerber Fmt 4.6, Leading zero omitted, Abs format (unit mm)*
G04 Created by KiCad (PCBNEW 5.1.5+dfsg1-2build2) date 2020-12-27 14:15:37*
%MOMM*%
%LPD*%
G04 APERTURE LIST*
%ADD10C,0.150000*%
%ADD11C,0.120000*%
%ADD12C,0.300000*%
%ADD13C,0.100000*%
%ADD14C,0.200000*%
%ADD15C,0.010000*%
G04 APERTURE END LIST*
D10*
X76335595Y-75952380D02*
X76335595Y-74952380D01*
X76716547Y-74952380D01*
X76811785Y-75000000D01*
X76859404Y-75047619D01*
X76907023Y-75142857D01*
X76907023Y-75285714D01*
X76859404Y-75380952D01*
X76811785Y-75428571D01*
X76716547Y-75476190D01*
X76335595Y-75476190D01*
X77478452Y-75952380D02*
X77383214Y-75904761D01*
X77335595Y-75857142D01*
X77287976Y-75761904D01*
X77287976Y-75476190D01*
X77335595Y-75380952D01*
X77383214Y-75333333D01*
X77478452Y-75285714D01*
X77621309Y-75285714D01*
X77716547Y-75333333D01*
X77764166Y-75380952D01*
X77811785Y-75476190D01*
X77811785Y-75761904D01*
X77764166Y-75857142D01*
X77716547Y-75904761D01*
X77621309Y-75952380D01*
X77478452Y-75952380D01*
X78145119Y-75285714D02*
X78335595Y-75952380D01*
X78526071Y-75476190D01*
X78716547Y-75952380D01*
X78907023Y-75285714D01*
X79668928Y-75904761D02*
X79573690Y-75952380D01*
X79383214Y-75952380D01*
X79287976Y-75904761D01*
X79240357Y-75809523D01*
X79240357Y-75428571D01*
X79287976Y-75333333D01*
X79383214Y-75285714D01*
X79573690Y-75285714D01*
X79668928Y-75333333D01*
X79716547Y-75428571D01*
X79716547Y-75523809D01*
X79240357Y-75619047D01*
X80145119Y-75952380D02*
X80145119Y-75285714D01*
X80145119Y-75476190D02*
X80192738Y-75380952D01*
X80240357Y-75333333D01*
X80335595Y-75285714D01*
X80430833Y-75285714D01*
X81526071Y-75952380D02*
X81526071Y-75285714D01*
X81526071Y-74952380D02*
X81478452Y-75000000D01*
X81526071Y-75047619D01*
X81573690Y-75000000D01*
X81526071Y-74952380D01*
X81526071Y-75047619D01*
X82002261Y-75285714D02*
X82002261Y-75952380D01*
X82002261Y-75380952D02*
X82049880Y-75333333D01*
X82145119Y-75285714D01*
X82287976Y-75285714D01*
X82383214Y-75333333D01*
X82430833Y-75428571D01*
X82430833Y-75952380D01*
X82907023Y-75285714D02*
X82907023Y-76285714D01*
X82907023Y-75333333D02*
X83002261Y-75285714D01*
X83192738Y-75285714D01*
X83287976Y-75333333D01*
X83335595Y-75380952D01*
X83383214Y-75476190D01*
X83383214Y-75761904D01*
X83335595Y-75857142D01*
X83287976Y-75904761D01*
X83192738Y-75952380D01*
X83002261Y-75952380D01*
X82907023Y-75904761D01*
X84240357Y-75285714D02*
X84240357Y-75952380D01*
X83811785Y-75285714D02*
X83811785Y-75809523D01*
X83859404Y-75904761D01*
X83954642Y-75952380D01*
X84097500Y-75952380D01*
X84192738Y-75904761D01*
X84240357Y-75857142D01*
X84573690Y-75285714D02*
X84954642Y-75285714D01*
X84716547Y-74952380D02*
X84716547Y-75809523D01*
X84764166Y-75904761D01*
X84859404Y-75952380D01*
X84954642Y-75952380D01*
D11*
X99800000Y-77000000D02*
X99800000Y-50500000D01*
X73500000Y-77000000D02*
X99800000Y-77000000D01*
X73500000Y-50750000D02*
X73500000Y-77000000D01*
D10*
X77666666Y-111052380D02*
X77857142Y-111052380D01*
X77952380Y-111100000D01*
X78047619Y-111195238D01*
X78095238Y-111385714D01*
X78095238Y-111719047D01*
X78047619Y-111909523D01*
X77952380Y-112004761D01*
X77857142Y-112052380D01*
X77666666Y-112052380D01*
X77571428Y-112004761D01*
X77476190Y-111909523D01*
X77428571Y-111719047D01*
X77428571Y-111385714D01*
X77476190Y-111195238D01*
X77571428Y-111100000D01*
X77666666Y-111052380D01*
X78380952Y-111052380D02*
X78952380Y-111052380D01*
X78666666Y-112052380D02*
X78666666Y-111052380D01*
X79809523Y-111100000D02*
X79714285Y-111052380D01*
X79571428Y-111052380D01*
X79428571Y-111100000D01*
X79333333Y-111195238D01*
X79285714Y-111290476D01*
X79238095Y-111480952D01*
X79238095Y-111623809D01*
X79285714Y-111814285D01*
X79333333Y-111909523D01*
X79428571Y-112004761D01*
X79571428Y-112052380D01*
X79666666Y-112052380D01*
X79809523Y-112004761D01*
X79857142Y-111957142D01*
X79857142Y-111623809D01*
X79666666Y-111623809D01*
X81523809Y-112052380D02*
X81047619Y-112052380D01*
X81047619Y-111052380D01*
X81857142Y-111528571D02*
X82190476Y-111528571D01*
X82333333Y-112052380D02*
X81857142Y-112052380D01*
X81857142Y-111052380D01*
X82333333Y-111052380D01*
X82761904Y-112052380D02*
X82761904Y-111052380D01*
X83000000Y-111052380D01*
X83142857Y-111100000D01*
X83238095Y-111195238D01*
X83285714Y-111290476D01*
X83333333Y-111480952D01*
X83333333Y-111623809D01*
X83285714Y-111814285D01*
X83238095Y-111909523D01*
X83142857Y-112004761D01*
X83000000Y-112052380D01*
X82761904Y-112052380D01*
X84476190Y-112004761D02*
X84571428Y-112052380D01*
X84761904Y-112052380D01*
X84857142Y-112004761D01*
X84904761Y-111909523D01*
X84904761Y-111861904D01*
X84857142Y-111766666D01*
X84761904Y-111719047D01*
X84619047Y-111719047D01*
X84523809Y-111671428D01*
X84476190Y-111576190D01*
X84476190Y-111528571D01*
X84523809Y-111433333D01*
X84619047Y-111385714D01*
X84761904Y-111385714D01*
X84857142Y-111433333D01*
X85333333Y-112052380D02*
X85333333Y-111052380D01*
X85761904Y-112052380D02*
X85761904Y-111528571D01*
X85714285Y-111433333D01*
X85619047Y-111385714D01*
X85476190Y-111385714D01*
X85380952Y-111433333D01*
X85333333Y-111480952D01*
X86380952Y-112052380D02*
X86285714Y-112004761D01*
X86238095Y-111957142D01*
X86190476Y-111861904D01*
X86190476Y-111576190D01*
X86238095Y-111480952D01*
X86285714Y-111433333D01*
X86380952Y-111385714D01*
X86523809Y-111385714D01*
X86619047Y-111433333D01*
X86666666Y-111480952D01*
X86714285Y-111576190D01*
X86714285Y-111861904D01*
X86666666Y-111957142D01*
X86619047Y-112004761D01*
X86523809Y-112052380D01*
X86380952Y-112052380D01*
X87047619Y-111385714D02*
X87238095Y-112052380D01*
X87428571Y-111576190D01*
X87619047Y-112052380D01*
X87809523Y-111385714D01*
X88142857Y-112004761D02*
X88238095Y-112052380D01*
X88428571Y-112052380D01*
X88523809Y-112004761D01*
X88571428Y-111909523D01*
X88571428Y-111861904D01*
X88523809Y-111766666D01*
X88428571Y-111719047D01*
X88285714Y-111719047D01*
X88190476Y-111671428D01*
X88142857Y-111576190D01*
X88142857Y-111528571D01*
X88190476Y-111433333D01*
X88285714Y-111385714D01*
X88428571Y-111385714D01*
X88523809Y-111433333D01*
X77404761Y-113654761D02*
X77500000Y-113702380D01*
X77690476Y-113702380D01*
X77785714Y-113654761D01*
X77833333Y-113559523D01*
X77833333Y-113511904D01*
X77785714Y-113416666D01*
X77690476Y-113369047D01*
X77547619Y-113369047D01*
X77452380Y-113321428D01*
X77404761Y-113226190D01*
X77404761Y-113178571D01*
X77452380Y-113083333D01*
X77547619Y-113035714D01*
X77690476Y-113035714D01*
X77785714Y-113083333D01*
X78119047Y-113035714D02*
X78500000Y-113035714D01*
X78261904Y-112702380D02*
X78261904Y-113559523D01*
X78309523Y-113654761D01*
X78404761Y-113702380D01*
X78500000Y-113702380D01*
X79261904Y-113702380D02*
X79261904Y-113178571D01*
X79214285Y-113083333D01*
X79119047Y-113035714D01*
X78928571Y-113035714D01*
X78833333Y-113083333D01*
X79261904Y-113654761D02*
X79166666Y-113702380D01*
X78928571Y-113702380D01*
X78833333Y-113654761D01*
X78785714Y-113559523D01*
X78785714Y-113464285D01*
X78833333Y-113369047D01*
X78928571Y-113321428D01*
X79166666Y-113321428D01*
X79261904Y-113273809D01*
X79595238Y-113035714D02*
X79976190Y-113035714D01*
X79738095Y-112702380D02*
X79738095Y-113559523D01*
X79785714Y-113654761D01*
X79880952Y-113702380D01*
X79976190Y-113702380D01*
X80738095Y-113035714D02*
X80738095Y-113702380D01*
X80309523Y-113035714D02*
X80309523Y-113559523D01*
X80357142Y-113654761D01*
X80452380Y-113702380D01*
X80595238Y-113702380D01*
X80690476Y-113654761D01*
X80738095Y-113607142D01*
X81166666Y-113654761D02*
X81261904Y-113702380D01*
X81452380Y-113702380D01*
X81547619Y-113654761D01*
X81595238Y-113559523D01*
X81595238Y-113511904D01*
X81547619Y-113416666D01*
X81452380Y-113369047D01*
X81309523Y-113369047D01*
X81214285Y-113321428D01*
X81166666Y-113226190D01*
X81166666Y-113178571D01*
X81214285Y-113083333D01*
X81309523Y-113035714D01*
X81452380Y-113035714D01*
X81547619Y-113083333D01*
X82928571Y-113702380D02*
X82833333Y-113654761D01*
X82785714Y-113607142D01*
X82738095Y-113511904D01*
X82738095Y-113226190D01*
X82785714Y-113130952D01*
X82833333Y-113083333D01*
X82928571Y-113035714D01*
X83071428Y-113035714D01*
X83166666Y-113083333D01*
X83214285Y-113130952D01*
X83261904Y-113226190D01*
X83261904Y-113511904D01*
X83214285Y-113607142D01*
X83166666Y-113654761D01*
X83071428Y-113702380D01*
X82928571Y-113702380D01*
X83547619Y-113035714D02*
X83928571Y-113035714D01*
X83690476Y-113702380D02*
X83690476Y-112845238D01*
X83738095Y-112750000D01*
X83833333Y-112702380D01*
X83928571Y-112702380D01*
X85023809Y-113035714D02*
X85023809Y-114035714D01*
X85023809Y-113083333D02*
X85119047Y-113035714D01*
X85309523Y-113035714D01*
X85404761Y-113083333D01*
X85452380Y-113130952D01*
X85500000Y-113226190D01*
X85500000Y-113511904D01*
X85452380Y-113607142D01*
X85404761Y-113654761D01*
X85309523Y-113702380D01*
X85119047Y-113702380D01*
X85023809Y-113654761D01*
X85928571Y-113702380D02*
X85928571Y-113035714D01*
X85928571Y-112702380D02*
X85880952Y-112750000D01*
X85928571Y-112797619D01*
X85976190Y-112750000D01*
X85928571Y-112702380D01*
X85928571Y-112797619D01*
X86404761Y-113035714D02*
X86404761Y-113702380D01*
X86404761Y-113130952D02*
X86452380Y-113083333D01*
X86547619Y-113035714D01*
X86690476Y-113035714D01*
X86785714Y-113083333D01*
X86833333Y-113178571D01*
X86833333Y-113702380D01*
X88500000Y-113035714D02*
X88500000Y-113702380D01*
X88261904Y-112654761D02*
X88023809Y-113369047D01*
X88642857Y-113369047D01*
X77285714Y-115352380D02*
X77190476Y-115304761D01*
X77142857Y-115257142D01*
X77095238Y-115161904D01*
X77095238Y-114876190D01*
X77142857Y-114780952D01*
X77190476Y-114733333D01*
X77285714Y-114685714D01*
X77428571Y-114685714D01*
X77523809Y-114733333D01*
X77571428Y-114780952D01*
X77619047Y-114876190D01*
X77619047Y-115161904D01*
X77571428Y-115257142D01*
X77523809Y-115304761D01*
X77428571Y-115352380D01*
X77285714Y-115352380D01*
X78047619Y-114685714D02*
X78047619Y-115352380D01*
X78047619Y-114780952D02*
X78095238Y-114733333D01*
X78190476Y-114685714D01*
X78333333Y-114685714D01*
X78428571Y-114733333D01*
X78476190Y-114828571D01*
X78476190Y-115352380D01*
X79714285Y-114828571D02*
X80476190Y-114828571D01*
X80476190Y-115114285D02*
X79714285Y-115114285D01*
X81904761Y-114352380D02*
X82095238Y-114352380D01*
X82190476Y-114400000D01*
X82285714Y-114495238D01*
X82333333Y-114685714D01*
X82333333Y-115019047D01*
X82285714Y-115209523D01*
X82190476Y-115304761D01*
X82095238Y-115352380D01*
X81904761Y-115352380D01*
X81809523Y-115304761D01*
X81714285Y-115209523D01*
X81666666Y-115019047D01*
X81666666Y-114685714D01*
X81714285Y-114495238D01*
X81809523Y-114400000D01*
X81904761Y-114352380D01*
X82619047Y-114352380D02*
X83190476Y-114352380D01*
X82904761Y-115352380D02*
X82904761Y-114352380D01*
X84047619Y-114400000D02*
X83952380Y-114352380D01*
X83809523Y-114352380D01*
X83666666Y-114400000D01*
X83571428Y-114495238D01*
X83523809Y-114590476D01*
X83476190Y-114780952D01*
X83476190Y-114923809D01*
X83523809Y-115114285D01*
X83571428Y-115209523D01*
X83666666Y-115304761D01*
X83809523Y-115352380D01*
X83904761Y-115352380D01*
X84047619Y-115304761D01*
X84095238Y-115257142D01*
X84095238Y-114923809D01*
X83904761Y-114923809D01*
X85714285Y-115304761D02*
X85619047Y-115352380D01*
X85428571Y-115352380D01*
X85333333Y-115304761D01*
X85285714Y-115257142D01*
X85238095Y-115161904D01*
X85238095Y-114876190D01*
X85285714Y-114780952D01*
X85333333Y-114733333D01*
X85428571Y-114685714D01*
X85619047Y-114685714D01*
X85714285Y-114733333D01*
X86571428Y-115352380D02*
X86571428Y-114828571D01*
X86523809Y-114733333D01*
X86428571Y-114685714D01*
X86238095Y-114685714D01*
X86142857Y-114733333D01*
X86571428Y-115304761D02*
X86476190Y-115352380D01*
X86238095Y-115352380D01*
X86142857Y-115304761D01*
X86095238Y-115209523D01*
X86095238Y-115114285D01*
X86142857Y-115019047D01*
X86238095Y-114971428D01*
X86476190Y-114971428D01*
X86571428Y-114923809D01*
X87047619Y-115352380D02*
X87047619Y-114352380D01*
X87047619Y-114733333D02*
X87142857Y-114685714D01*
X87333333Y-114685714D01*
X87428571Y-114733333D01*
X87476190Y-114780952D01*
X87523809Y-114876190D01*
X87523809Y-115161904D01*
X87476190Y-115257142D01*
X87428571Y-115304761D01*
X87333333Y-115352380D01*
X87142857Y-115352380D01*
X87047619Y-115304761D01*
X88095238Y-115352380D02*
X88000000Y-115304761D01*
X87952380Y-115209523D01*
X87952380Y-114352380D01*
X88857142Y-115304761D02*
X88761904Y-115352380D01*
X88571428Y-115352380D01*
X88476190Y-115304761D01*
X88428571Y-115209523D01*
X88428571Y-114828571D01*
X88476190Y-114733333D01*
X88571428Y-114685714D01*
X88761904Y-114685714D01*
X88857142Y-114733333D01*
X88904761Y-114828571D01*
X88904761Y-114923809D01*
X88428571Y-115019047D01*
X76335595Y-80877380D02*
X76335595Y-81686904D01*
X76383214Y-81782142D01*
X76430833Y-81829761D01*
X76526071Y-81877380D01*
X76716547Y-81877380D01*
X76811785Y-81829761D01*
X76859404Y-81782142D01*
X76907023Y-81686904D01*
X76907023Y-80877380D01*
X77335595Y-81829761D02*
X77430833Y-81877380D01*
X77621309Y-81877380D01*
X77716547Y-81829761D01*
X77764166Y-81734523D01*
X77764166Y-81686904D01*
X77716547Y-81591666D01*
X77621309Y-81544047D01*
X77478452Y-81544047D01*
X77383214Y-81496428D01*
X77335595Y-81401190D01*
X77335595Y-81353571D01*
X77383214Y-81258333D01*
X77478452Y-81210714D01*
X77621309Y-81210714D01*
X77716547Y-81258333D01*
X78573690Y-81829761D02*
X78478452Y-81877380D01*
X78287976Y-81877380D01*
X78192738Y-81829761D01*
X78145119Y-81734523D01*
X78145119Y-81353571D01*
X78192738Y-81258333D01*
X78287976Y-81210714D01*
X78478452Y-81210714D01*
X78573690Y-81258333D01*
X78621309Y-81353571D01*
X78621309Y-81448809D01*
X78145119Y-81544047D01*
X79954642Y-81877380D02*
X79859404Y-81829761D01*
X79811785Y-81782142D01*
X79764166Y-81686904D01*
X79764166Y-81401190D01*
X79811785Y-81305952D01*
X79859404Y-81258333D01*
X79954642Y-81210714D01*
X80097500Y-81210714D01*
X80192738Y-81258333D01*
X80240357Y-81305952D01*
X80287976Y-81401190D01*
X80287976Y-81686904D01*
X80240357Y-81782142D01*
X80192738Y-81829761D01*
X80097500Y-81877380D01*
X79954642Y-81877380D01*
X80716547Y-81210714D02*
X80716547Y-81877380D01*
X80716547Y-81305952D02*
X80764166Y-81258333D01*
X80859404Y-81210714D01*
X81002261Y-81210714D01*
X81097500Y-81258333D01*
X81145119Y-81353571D01*
X81145119Y-81877380D01*
X82002261Y-81829761D02*
X81907023Y-81877380D01*
X81716547Y-81877380D01*
X81621309Y-81829761D01*
X81573690Y-81734523D01*
X81573690Y-81353571D01*
X81621309Y-81258333D01*
X81716547Y-81210714D01*
X81907023Y-81210714D01*
X82002261Y-81258333D01*
X82049880Y-81353571D01*
X82049880Y-81448809D01*
X81573690Y-81544047D01*
X83383214Y-81877380D02*
X83287976Y-81829761D01*
X83240357Y-81782142D01*
X83192738Y-81686904D01*
X83192738Y-81401190D01*
X83240357Y-81305952D01*
X83287976Y-81258333D01*
X83383214Y-81210714D01*
X83526071Y-81210714D01*
X83621309Y-81258333D01*
X83668928Y-81305952D01*
X83716547Y-81401190D01*
X83716547Y-81686904D01*
X83668928Y-81782142D01*
X83621309Y-81829761D01*
X83526071Y-81877380D01*
X83383214Y-81877380D01*
X84002261Y-81210714D02*
X84383214Y-81210714D01*
X84145119Y-81877380D02*
X84145119Y-81020238D01*
X84192738Y-80925000D01*
X84287976Y-80877380D01*
X84383214Y-80877380D01*
X76621309Y-82527380D02*
X76621309Y-83241666D01*
X76573690Y-83384523D01*
X76478452Y-83479761D01*
X76335595Y-83527380D01*
X76240357Y-83527380D01*
X77049880Y-82622619D02*
X77097500Y-82575000D01*
X77192738Y-82527380D01*
X77430833Y-82527380D01*
X77526071Y-82575000D01*
X77573690Y-82622619D01*
X77621309Y-82717857D01*
X77621309Y-82813095D01*
X77573690Y-82955952D01*
X77002261Y-83527380D01*
X77621309Y-83527380D01*
X78478452Y-82860714D02*
X78478452Y-83527380D01*
X78240357Y-82479761D02*
X78002261Y-83194047D01*
X78621309Y-83194047D01*
X79049880Y-83479761D02*
X79049880Y-83527380D01*
X79002261Y-83622619D01*
X78954642Y-83670238D01*
X80526071Y-82527380D02*
X80526071Y-83241666D01*
X80478452Y-83384523D01*
X80383214Y-83479761D01*
X80240357Y-83527380D01*
X80145119Y-83527380D01*
X80954642Y-82622619D02*
X81002261Y-82575000D01*
X81097500Y-82527380D01*
X81335595Y-82527380D01*
X81430833Y-82575000D01*
X81478452Y-82622619D01*
X81526071Y-82717857D01*
X81526071Y-82813095D01*
X81478452Y-82955952D01*
X80907023Y-83527380D01*
X81526071Y-83527380D01*
X82430833Y-82527380D02*
X81954642Y-82527380D01*
X81907023Y-83003571D01*
X81954642Y-82955952D01*
X82049880Y-82908333D01*
X82287976Y-82908333D01*
X82383214Y-82955952D01*
X82430833Y-83003571D01*
X82478452Y-83098809D01*
X82478452Y-83336904D01*
X82430833Y-83432142D01*
X82383214Y-83479761D01*
X82287976Y-83527380D01*
X82049880Y-83527380D01*
X81954642Y-83479761D01*
X81907023Y-83432142D01*
X82954642Y-83479761D02*
X82954642Y-83527380D01*
X82907023Y-83622619D01*
X82859404Y-83670238D01*
X84430833Y-82527380D02*
X84430833Y-83241666D01*
X84383214Y-83384523D01*
X84287976Y-83479761D01*
X84145119Y-83527380D01*
X84049880Y-83527380D01*
X84859404Y-82622619D02*
X84907023Y-82575000D01*
X85002261Y-82527380D01*
X85240357Y-82527380D01*
X85335595Y-82575000D01*
X85383214Y-82622619D01*
X85430833Y-82717857D01*
X85430833Y-82813095D01*
X85383214Y-82955952D01*
X84811785Y-83527380D01*
X85430833Y-83527380D01*
X86287976Y-82527380D02*
X86097500Y-82527380D01*
X86002261Y-82575000D01*
X85954642Y-82622619D01*
X85859404Y-82765476D01*
X85811785Y-82955952D01*
X85811785Y-83336904D01*
X85859404Y-83432142D01*
X85907023Y-83479761D01*
X86002261Y-83527380D01*
X86192738Y-83527380D01*
X86287976Y-83479761D01*
X86335595Y-83432142D01*
X86383214Y-83336904D01*
X86383214Y-83098809D01*
X86335595Y-83003571D01*
X86287976Y-82955952D01*
X86192738Y-82908333D01*
X86002261Y-82908333D01*
X85907023Y-82955952D01*
X85859404Y-83003571D01*
X85811785Y-83098809D01*
D12*
X77214285Y-78571428D02*
X77214285Y-79904761D01*
X76738095Y-77809523D02*
X76261904Y-79238095D01*
X77499999Y-79238095D01*
X78261904Y-79714285D02*
X78357142Y-79809523D01*
X78261904Y-79904761D01*
X78166666Y-79809523D01*
X78261904Y-79714285D01*
X78261904Y-79904761D01*
X80071428Y-77904761D02*
X79690476Y-77904761D01*
X79499999Y-78000000D01*
X79404761Y-78095238D01*
X79214285Y-78380952D01*
X79119047Y-78761904D01*
X79119047Y-79523809D01*
X79214285Y-79714285D01*
X79309523Y-79809523D01*
X79499999Y-79904761D01*
X79880952Y-79904761D01*
X80071428Y-79809523D01*
X80166666Y-79714285D01*
X80261904Y-79523809D01*
X80261904Y-79047619D01*
X80166666Y-78857142D01*
X80071428Y-78761904D01*
X79880952Y-78666666D01*
X79499999Y-78666666D01*
X79309523Y-78761904D01*
X79214285Y-78857142D01*
X79119047Y-79047619D01*
X82357142Y-78571428D02*
X83119047Y-78571428D01*
X82642857Y-77904761D02*
X82642857Y-79619047D01*
X82738095Y-79809523D01*
X82928571Y-79904761D01*
X83119047Y-79904761D01*
X84071428Y-79904761D02*
X83880952Y-79809523D01*
X83785714Y-79714285D01*
X83690476Y-79523809D01*
X83690476Y-78952380D01*
X83785714Y-78761904D01*
X83880952Y-78666666D01*
X84071428Y-78571428D01*
X84357142Y-78571428D01*
X84547619Y-78666666D01*
X84642857Y-78761904D01*
X84738095Y-78952380D01*
X84738095Y-79523809D01*
X84642857Y-79714285D01*
X84547619Y-79809523D01*
X84357142Y-79904761D01*
X84071428Y-79904761D01*
X88166666Y-79904761D02*
X87023809Y-79904761D01*
X87595238Y-79904761D02*
X87595238Y-77904761D01*
X87404761Y-78190476D01*
X87214285Y-78380952D01*
X87023809Y-78476190D01*
X88928571Y-78095238D02*
X89023809Y-78000000D01*
X89214285Y-77904761D01*
X89690476Y-77904761D01*
X89880952Y-78000000D01*
X89976190Y-78095238D01*
X90071428Y-78285714D01*
X90071428Y-78476190D01*
X89976190Y-78761904D01*
X88833333Y-79904761D01*
X90071428Y-79904761D01*
X92261904Y-78571428D02*
X92738095Y-79904761D01*
X93214285Y-78571428D01*
X94261904Y-79904761D02*
X94071428Y-79809523D01*
X93976190Y-79714285D01*
X93880952Y-79523809D01*
X93880952Y-78952380D01*
X93976190Y-78761904D01*
X94071428Y-78666666D01*
X94261904Y-78571428D01*
X94547619Y-78571428D01*
X94738095Y-78666666D01*
X94833333Y-78761904D01*
X94928571Y-78952380D01*
X94928571Y-79523809D01*
X94833333Y-79714285D01*
X94738095Y-79809523D01*
X94547619Y-79904761D01*
X94261904Y-79904761D01*
X96071428Y-79904761D02*
X95880952Y-79809523D01*
X95785714Y-79619047D01*
X95785714Y-77904761D01*
X96547619Y-78571428D02*
X97309523Y-78571428D01*
X96833333Y-77904761D02*
X96833333Y-79619047D01*
X96928571Y-79809523D01*
X97119047Y-79904761D01*
X97309523Y-79904761D01*
X97880952Y-79809523D02*
X98071428Y-79904761D01*
X98452380Y-79904761D01*
X98642857Y-79809523D01*
X98738095Y-79619047D01*
X98738095Y-79523809D01*
X98642857Y-79333333D01*
X98452380Y-79238095D01*
X98166666Y-79238095D01*
X97976190Y-79142857D01*
X97880952Y-78952380D01*
X97880952Y-78857142D01*
X97976190Y-78666666D01*
X98166666Y-78571428D01*
X98452380Y-78571428D01*
X98642857Y-78666666D01*
D10*
X95226190Y-118285714D02*
X95226190Y-119095238D01*
X95178571Y-119190476D01*
X95130952Y-119238095D01*
X95035714Y-119285714D01*
X94892857Y-119285714D01*
X94797619Y-119238095D01*
X95226190Y-118904761D02*
X95130952Y-118952380D01*
X94940476Y-118952380D01*
X94845238Y-118904761D01*
X94797619Y-118857142D01*
X94750000Y-118761904D01*
X94750000Y-118476190D01*
X94797619Y-118380952D01*
X94845238Y-118333333D01*
X94940476Y-118285714D01*
X95130952Y-118285714D01*
X95226190Y-118333333D01*
X95702380Y-118952380D02*
X95702380Y-118285714D01*
X95702380Y-117952380D02*
X95654761Y-118000000D01*
X95702380Y-118047619D01*
X95750000Y-118000000D01*
X95702380Y-117952380D01*
X95702380Y-118047619D01*
X96035714Y-118285714D02*
X96416666Y-118285714D01*
X96178571Y-117952380D02*
X96178571Y-118809523D01*
X96226190Y-118904761D01*
X96321428Y-118952380D01*
X96416666Y-118952380D01*
X96750000Y-118952380D02*
X96750000Y-117952380D01*
X97178571Y-118952380D02*
X97178571Y-118428571D01*
X97130952Y-118333333D01*
X97035714Y-118285714D01*
X96892857Y-118285714D01*
X96797619Y-118333333D01*
X96750000Y-118380952D01*
X98083333Y-118285714D02*
X98083333Y-118952380D01*
X97654761Y-118285714D02*
X97654761Y-118809523D01*
X97702380Y-118904761D01*
X97797619Y-118952380D01*
X97940476Y-118952380D01*
X98035714Y-118904761D01*
X98083333Y-118857142D01*
X98559523Y-118952380D02*
X98559523Y-117952380D01*
X98559523Y-118333333D02*
X98654761Y-118285714D01*
X98845238Y-118285714D01*
X98940476Y-118333333D01*
X98988095Y-118380952D01*
X99035714Y-118476190D01*
X99035714Y-118761904D01*
X98988095Y-118857142D01*
X98940476Y-118904761D01*
X98845238Y-118952380D01*
X98654761Y-118952380D01*
X98559523Y-118904761D01*
X99464285Y-118857142D02*
X99511904Y-118904761D01*
X99464285Y-118952380D01*
X99416666Y-118904761D01*
X99464285Y-118857142D01*
X99464285Y-118952380D01*
X100369047Y-118904761D02*
X100273809Y-118952380D01*
X100083333Y-118952380D01*
X99988095Y-118904761D01*
X99940476Y-118857142D01*
X99892857Y-118761904D01*
X99892857Y-118476190D01*
X99940476Y-118380952D01*
X99988095Y-118333333D01*
X100083333Y-118285714D01*
X100273809Y-118285714D01*
X100369047Y-118333333D01*
X100940476Y-118952380D02*
X100845238Y-118904761D01*
X100797619Y-118857142D01*
X100750000Y-118761904D01*
X100750000Y-118476190D01*
X100797619Y-118380952D01*
X100845238Y-118333333D01*
X100940476Y-118285714D01*
X101083333Y-118285714D01*
X101178571Y-118333333D01*
X101226190Y-118380952D01*
X101273809Y-118476190D01*
X101273809Y-118761904D01*
X101226190Y-118857142D01*
X101178571Y-118904761D01*
X101083333Y-118952380D01*
X100940476Y-118952380D01*
X101702380Y-118952380D02*
X101702380Y-118285714D01*
X101702380Y-118380952D02*
X101750000Y-118333333D01*
X101845238Y-118285714D01*
X101988095Y-118285714D01*
X102083333Y-118333333D01*
X102130952Y-118428571D01*
X102130952Y-118952380D01*
X102130952Y-118428571D02*
X102178571Y-118333333D01*
X102273809Y-118285714D01*
X102416666Y-118285714D01*
X102511904Y-118333333D01*
X102559523Y-118428571D01*
X102559523Y-118952380D01*
X103750000Y-117904761D02*
X102892857Y-119190476D01*
X104083333Y-118285714D02*
X104083333Y-119285714D01*
X104083333Y-118333333D02*
X104178571Y-118285714D01*
X104369047Y-118285714D01*
X104464285Y-118333333D01*
X104511904Y-118380952D01*
X104559523Y-118476190D01*
X104559523Y-118761904D01*
X104511904Y-118857142D01*
X104464285Y-118904761D01*
X104369047Y-118952380D01*
X104178571Y-118952380D01*
X104083333Y-118904761D01*
X105416666Y-118952380D02*
X105416666Y-118428571D01*
X105369047Y-118333333D01*
X105273809Y-118285714D01*
X105083333Y-118285714D01*
X104988095Y-118333333D01*
X105416666Y-118904761D02*
X105321428Y-118952380D01*
X105083333Y-118952380D01*
X104988095Y-118904761D01*
X104940476Y-118809523D01*
X104940476Y-118714285D01*
X104988095Y-118619047D01*
X105083333Y-118571428D01*
X105321428Y-118571428D01*
X105416666Y-118523809D01*
X106321428Y-118904761D02*
X106226190Y-118952380D01*
X106035714Y-118952380D01*
X105940476Y-118904761D01*
X105892857Y-118857142D01*
X105845238Y-118761904D01*
X105845238Y-118476190D01*
X105892857Y-118380952D01*
X105940476Y-118333333D01*
X106035714Y-118285714D01*
X106226190Y-118285714D01*
X106321428Y-118333333D01*
X107130952Y-118904761D02*
X107035714Y-118952380D01*
X106845238Y-118952380D01*
X106750000Y-118904761D01*
X106702380Y-118809523D01*
X106702380Y-118428571D01*
X106750000Y-118333333D01*
X106845238Y-118285714D01*
X107035714Y-118285714D01*
X107130952Y-118333333D01*
X107178571Y-118428571D01*
X107178571Y-118523809D01*
X106702380Y-118619047D01*
X107511904Y-118285714D02*
X107702380Y-118952380D01*
X107892857Y-118476190D01*
X108083333Y-118952380D01*
X108273809Y-118285714D01*
X109369047Y-117904761D02*
X108511904Y-119190476D01*
X110130952Y-118285714D02*
X110130952Y-118952380D01*
X109702380Y-118285714D02*
X109702380Y-118809523D01*
X109749999Y-118904761D01*
X109845238Y-118952380D01*
X109988095Y-118952380D01*
X110083333Y-118904761D01*
X110130952Y-118857142D01*
X110559523Y-118904761D02*
X110654761Y-118952380D01*
X110845238Y-118952380D01*
X110940476Y-118904761D01*
X110988095Y-118809523D01*
X110988095Y-118761904D01*
X110940476Y-118666666D01*
X110845238Y-118619047D01*
X110702380Y-118619047D01*
X110607142Y-118571428D01*
X110559523Y-118476190D01*
X110559523Y-118428571D01*
X110607142Y-118333333D01*
X110702380Y-118285714D01*
X110845238Y-118285714D01*
X110940476Y-118333333D01*
X111416666Y-118952380D02*
X111416666Y-117952380D01*
X111416666Y-118333333D02*
X111511904Y-118285714D01*
X111702380Y-118285714D01*
X111797619Y-118333333D01*
X111845238Y-118380952D01*
X111892857Y-118476190D01*
X111892857Y-118761904D01*
X111845238Y-118857142D01*
X111797619Y-118904761D01*
X111702380Y-118952380D01*
X111511904Y-118952380D01*
X111416666Y-118904761D01*
X112321428Y-118571428D02*
X113083333Y-118571428D01*
X113511904Y-118904761D02*
X113607142Y-118952380D01*
X113797619Y-118952380D01*
X113892857Y-118904761D01*
X113940476Y-118809523D01*
X113940476Y-118761904D01*
X113892857Y-118666666D01*
X113797619Y-118619047D01*
X113654761Y-118619047D01*
X113559523Y-118571428D01*
X113511904Y-118476190D01*
X113511904Y-118428571D01*
X113559523Y-118333333D01*
X113654761Y-118285714D01*
X113797619Y-118285714D01*
X113892857Y-118333333D01*
X114511904Y-118952380D02*
X114416666Y-118904761D01*
X114369047Y-118857142D01*
X114321428Y-118761904D01*
X114321428Y-118476190D01*
X114369047Y-118380952D01*
X114416666Y-118333333D01*
X114511904Y-118285714D01*
X114654761Y-118285714D01*
X114750000Y-118333333D01*
X114797619Y-118380952D01*
X114845238Y-118476190D01*
X114845238Y-118761904D01*
X114797619Y-118857142D01*
X114750000Y-118904761D01*
X114654761Y-118952380D01*
X114511904Y-118952380D01*
X115416666Y-118952380D02*
X115321428Y-118904761D01*
X115273809Y-118809523D01*
X115273809Y-117952380D01*
X116226190Y-118952380D02*
X116226190Y-117952380D01*
X116226190Y-118904761D02*
X116130952Y-118952380D01*
X115940476Y-118952380D01*
X115845238Y-118904761D01*
X115797619Y-118857142D01*
X115749999Y-118761904D01*
X115749999Y-118476190D01*
X115797619Y-118380952D01*
X115845238Y-118333333D01*
X115940476Y-118285714D01*
X116130952Y-118285714D01*
X116226190Y-118333333D01*
X117083333Y-118904761D02*
X116988095Y-118952380D01*
X116797619Y-118952380D01*
X116702380Y-118904761D01*
X116654761Y-118809523D01*
X116654761Y-118428571D01*
X116702380Y-118333333D01*
X116797619Y-118285714D01*
X116988095Y-118285714D01*
X117083333Y-118333333D01*
X117130952Y-118428571D01*
X117130952Y-118523809D01*
X116654761Y-118619047D01*
X117559523Y-118952380D02*
X117559523Y-118285714D01*
X117559523Y-118476190D02*
X117607142Y-118380952D01*
X117654761Y-118333333D01*
X117749999Y-118285714D01*
X117845238Y-118285714D01*
D13*
G36*
X121750000Y-123500000D02*
G01*
X91750000Y-123500000D01*
X91750000Y-119750000D01*
X121750000Y-119750000D01*
X121750000Y-123500000D01*
G37*
X121750000Y-123500000D02*
X91750000Y-123500000D01*
X91750000Y-119750000D01*
X121750000Y-119750000D01*
X121750000Y-123500000D01*
D12*
X91547619Y-112004761D02*
X91547619Y-113623809D01*
X91642857Y-113814285D01*
X91738095Y-113909523D01*
X91928571Y-114004761D01*
X92309523Y-114004761D01*
X92500000Y-113909523D01*
X92595238Y-113814285D01*
X92690476Y-113623809D01*
X92690476Y-112004761D01*
X93547619Y-113909523D02*
X93833333Y-114004761D01*
X94309523Y-114004761D01*
X94500000Y-113909523D01*
X94595238Y-113814285D01*
X94690476Y-113623809D01*
X94690476Y-113433333D01*
X94595238Y-113242857D01*
X94500000Y-113147619D01*
X94309523Y-113052380D01*
X93928571Y-112957142D01*
X93738095Y-112861904D01*
X93642857Y-112766666D01*
X93547619Y-112576190D01*
X93547619Y-112385714D01*
X93642857Y-112195238D01*
X93738095Y-112100000D01*
X93928571Y-112004761D01*
X94404761Y-112004761D01*
X94690476Y-112100000D01*
X96214285Y-112957142D02*
X96500000Y-113052380D01*
X96595238Y-113147619D01*
X96690476Y-113338095D01*
X96690476Y-113623809D01*
X96595238Y-113814285D01*
X96500000Y-113909523D01*
X96309523Y-114004761D01*
X95547619Y-114004761D01*
X95547619Y-112004761D01*
X96214285Y-112004761D01*
X96404761Y-112100000D01*
X96500000Y-112195238D01*
X96595238Y-112385714D01*
X96595238Y-112576190D01*
X96500000Y-112766666D01*
X96404761Y-112861904D01*
X96214285Y-112957142D01*
X95547619Y-112957142D01*
X98976190Y-113909523D02*
X99261904Y-114004761D01*
X99738095Y-114004761D01*
X99928571Y-113909523D01*
X100023809Y-113814285D01*
X100119047Y-113623809D01*
X100119047Y-113433333D01*
X100023809Y-113242857D01*
X99928571Y-113147619D01*
X99738095Y-113052380D01*
X99357142Y-112957142D01*
X99166666Y-112861904D01*
X99071428Y-112766666D01*
X98976190Y-112576190D01*
X98976190Y-112385714D01*
X99071428Y-112195238D01*
X99166666Y-112100000D01*
X99357142Y-112004761D01*
X99833333Y-112004761D01*
X100119047Y-112100000D01*
X101261904Y-114004761D02*
X101071428Y-113909523D01*
X100976190Y-113814285D01*
X100880952Y-113623809D01*
X100880952Y-113052380D01*
X100976190Y-112861904D01*
X101071428Y-112766666D01*
X101261904Y-112671428D01*
X101547619Y-112671428D01*
X101738095Y-112766666D01*
X101833333Y-112861904D01*
X101928571Y-113052380D01*
X101928571Y-113623809D01*
X101833333Y-113814285D01*
X101738095Y-113909523D01*
X101547619Y-114004761D01*
X101261904Y-114004761D01*
X103071428Y-114004761D02*
X102880952Y-113909523D01*
X102785714Y-113719047D01*
X102785714Y-112004761D01*
X104690476Y-114004761D02*
X104690476Y-112004761D01*
X104690476Y-113909523D02*
X104500000Y-114004761D01*
X104119047Y-114004761D01*
X103928571Y-113909523D01*
X103833333Y-113814285D01*
X103738095Y-113623809D01*
X103738095Y-113052380D01*
X103833333Y-112861904D01*
X103928571Y-112766666D01*
X104119047Y-112671428D01*
X104500000Y-112671428D01*
X104690476Y-112766666D01*
X106404761Y-113909523D02*
X106214285Y-114004761D01*
X105833333Y-114004761D01*
X105642857Y-113909523D01*
X105547619Y-113719047D01*
X105547619Y-112957142D01*
X105642857Y-112766666D01*
X105833333Y-112671428D01*
X106214285Y-112671428D01*
X106404761Y-112766666D01*
X106500000Y-112957142D01*
X106500000Y-113147619D01*
X105547619Y-113338095D01*
X107357142Y-114004761D02*
X107357142Y-112671428D01*
X107357142Y-113052380D02*
X107452380Y-112861904D01*
X107547619Y-112766666D01*
X107738095Y-112671428D01*
X107928571Y-112671428D01*
X110119047Y-114004761D02*
X110119047Y-112004761D01*
X110880952Y-112004761D01*
X111071428Y-112100000D01*
X111166666Y-112195238D01*
X111261904Y-112385714D01*
X111261904Y-112671428D01*
X111166666Y-112861904D01*
X111071428Y-112957142D01*
X110880952Y-113052380D01*
X110119047Y-113052380D01*
X112119047Y-114004761D02*
X112119047Y-112671428D01*
X112119047Y-113052380D02*
X112214285Y-112861904D01*
X112309523Y-112766666D01*
X112500000Y-112671428D01*
X112690476Y-112671428D01*
X114214285Y-114004761D02*
X114214285Y-112957142D01*
X114119047Y-112766666D01*
X113928571Y-112671428D01*
X113547619Y-112671428D01*
X113357142Y-112766666D01*
X114214285Y-113909523D02*
X114023809Y-114004761D01*
X113547619Y-114004761D01*
X113357142Y-113909523D01*
X113261904Y-113719047D01*
X113261904Y-113528571D01*
X113357142Y-113338095D01*
X113547619Y-113242857D01*
X114023809Y-113242857D01*
X114214285Y-113147619D01*
X116023809Y-113909523D02*
X115833333Y-114004761D01*
X115452380Y-114004761D01*
X115261904Y-113909523D01*
X115166666Y-113814285D01*
X115071428Y-113623809D01*
X115071428Y-113052380D01*
X115166666Y-112861904D01*
X115261904Y-112766666D01*
X115452380Y-112671428D01*
X115833333Y-112671428D01*
X116023809Y-112766666D01*
X116595238Y-112671428D02*
X117357142Y-112671428D01*
X116880952Y-112004761D02*
X116880952Y-113719047D01*
X116976190Y-113909523D01*
X117166666Y-114004761D01*
X117357142Y-114004761D01*
X118023809Y-114004761D02*
X118023809Y-112671428D01*
X118023809Y-112004761D02*
X117928571Y-112100000D01*
X118023809Y-112195238D01*
X118119047Y-112100000D01*
X118023809Y-112004761D01*
X118023809Y-112195238D01*
X119833333Y-113909523D02*
X119642857Y-114004761D01*
X119261904Y-114004761D01*
X119071428Y-113909523D01*
X118976190Y-113814285D01*
X118880952Y-113623809D01*
X118880952Y-113052380D01*
X118976190Y-112861904D01*
X119071428Y-112766666D01*
X119261904Y-112671428D01*
X119642857Y-112671428D01*
X119833333Y-112766666D01*
X121452380Y-113909523D02*
X121261904Y-114004761D01*
X120880952Y-114004761D01*
X120690476Y-113909523D01*
X120595238Y-113719047D01*
X120595238Y-112957142D01*
X120690476Y-112766666D01*
X120880952Y-112671428D01*
X121261904Y-112671428D01*
X121452380Y-112766666D01*
X121547619Y-112957142D01*
X121547619Y-113147619D01*
X120595238Y-113338095D01*
X96785714Y-115495238D02*
X96880952Y-115400000D01*
X97071428Y-115304761D01*
X97547619Y-115304761D01*
X97738095Y-115400000D01*
X97833333Y-115495238D01*
X97928571Y-115685714D01*
X97928571Y-115876190D01*
X97833333Y-116161904D01*
X96690476Y-117304761D01*
X97928571Y-117304761D01*
X99166666Y-115304761D02*
X99357142Y-115304761D01*
X99547619Y-115400000D01*
X99642857Y-115495238D01*
X99738095Y-115685714D01*
X99833333Y-116066666D01*
X99833333Y-116542857D01*
X99738095Y-116923809D01*
X99642857Y-117114285D01*
X99547619Y-117209523D01*
X99357142Y-117304761D01*
X99166666Y-117304761D01*
X98976190Y-117209523D01*
X98880952Y-117114285D01*
X98785714Y-116923809D01*
X98690476Y-116542857D01*
X98690476Y-116066666D01*
X98785714Y-115685714D01*
X98880952Y-115495238D01*
X98976190Y-115400000D01*
X99166666Y-115304761D01*
X100595238Y-115495238D02*
X100690476Y-115400000D01*
X100880952Y-115304761D01*
X101357142Y-115304761D01*
X101547619Y-115400000D01*
X101642857Y-115495238D01*
X101738095Y-115685714D01*
X101738095Y-115876190D01*
X101642857Y-116161904D01*
X100500000Y-117304761D01*
X101738095Y-117304761D01*
X102976190Y-115304761D02*
X103166666Y-115304761D01*
X103357142Y-115400000D01*
X103452380Y-115495238D01*
X103547619Y-115685714D01*
X103642857Y-116066666D01*
X103642857Y-116542857D01*
X103547619Y-116923809D01*
X103452380Y-117114285D01*
X103357142Y-117209523D01*
X103166666Y-117304761D01*
X102976190Y-117304761D01*
X102785714Y-117209523D01*
X102690476Y-117114285D01*
X102595238Y-116923809D01*
X102500000Y-116542857D01*
X102500000Y-116066666D01*
X102595238Y-115685714D01*
X102690476Y-115495238D01*
X102785714Y-115400000D01*
X102976190Y-115304761D01*
X104500000Y-116542857D02*
X106023809Y-116542857D01*
X108023809Y-117304761D02*
X106880952Y-117304761D01*
X107452380Y-117304761D02*
X107452380Y-115304761D01*
X107261904Y-115590476D01*
X107071428Y-115780952D01*
X106880952Y-115876190D01*
X108785714Y-115495238D02*
X108880952Y-115400000D01*
X109071428Y-115304761D01*
X109547619Y-115304761D01*
X109738095Y-115400000D01*
X109833333Y-115495238D01*
X109928571Y-115685714D01*
X109928571Y-115876190D01*
X109833333Y-116161904D01*
X108690476Y-117304761D01*
X109928571Y-117304761D01*
X110785714Y-116542857D02*
X112309523Y-116542857D01*
X113166666Y-115495238D02*
X113261904Y-115400000D01*
X113452380Y-115304761D01*
X113928571Y-115304761D01*
X114119047Y-115400000D01*
X114214285Y-115495238D01*
X114309523Y-115685714D01*
X114309523Y-115876190D01*
X114214285Y-116161904D01*
X113071428Y-117304761D01*
X114309523Y-117304761D01*
X114976190Y-115304761D02*
X116309523Y-115304761D01*
X115452380Y-117304761D01*
D11*
X76250000Y-110750000D02*
X50500000Y-110750000D01*
X76250000Y-122000000D02*
X76250000Y-110750000D01*
X50500000Y-122000000D02*
X76250000Y-122000000D01*
X106250000Y-124000000D02*
X106250000Y-149500000D01*
X94000000Y-124000000D02*
X106250000Y-124000000D01*
X94000000Y-149250000D02*
X94000000Y-124000000D01*
X124000000Y-121500000D02*
X149250000Y-121500000D01*
X124000000Y-111000000D02*
X124000000Y-121500000D01*
X149250000Y-111000000D02*
X124000000Y-111000000D01*
D10*
X131202380Y-120226190D02*
X131202380Y-120035714D01*
X131250000Y-119940476D01*
X131345238Y-119845238D01*
X131535714Y-119797619D01*
X131869047Y-119797619D01*
X132059523Y-119845238D01*
X132154761Y-119940476D01*
X132202380Y-120035714D01*
X132202380Y-120226190D01*
X132154761Y-120321428D01*
X132059523Y-120416666D01*
X131869047Y-120464285D01*
X131535714Y-120464285D01*
X131345238Y-120416666D01*
X131250000Y-120321428D01*
X131202380Y-120226190D01*
X131202380Y-119511904D02*
X131202380Y-118940476D01*
X132202380Y-119226190D02*
X131202380Y-119226190D01*
X131250000Y-118083333D02*
X131202380Y-118178571D01*
X131202380Y-118321428D01*
X131250000Y-118464285D01*
X131345238Y-118559523D01*
X131440476Y-118607142D01*
X131630952Y-118654761D01*
X131773809Y-118654761D01*
X131964285Y-118607142D01*
X132059523Y-118559523D01*
X132154761Y-118464285D01*
X132202380Y-118321428D01*
X132202380Y-118226190D01*
X132154761Y-118083333D01*
X132107142Y-118035714D01*
X131773809Y-118035714D01*
X131773809Y-118226190D01*
X125785714Y-120597222D02*
X125214285Y-120597222D01*
X125500000Y-120597222D02*
X125500000Y-119597222D01*
X125404761Y-119740080D01*
X125309523Y-119835318D01*
X125214285Y-119882937D01*
X125690476Y-112337222D02*
X125500000Y-112337222D01*
X125404761Y-112384842D01*
X125357142Y-112432461D01*
X125261904Y-112575318D01*
X125214285Y-112765794D01*
X125214285Y-113146746D01*
X125261904Y-113241984D01*
X125309523Y-113289603D01*
X125404761Y-113337222D01*
X125595238Y-113337222D01*
X125690476Y-113289603D01*
X125738095Y-113241984D01*
X125785714Y-113146746D01*
X125785714Y-112908651D01*
X125738095Y-112813413D01*
X125690476Y-112765794D01*
X125595238Y-112718175D01*
X125404761Y-112718175D01*
X125309523Y-112765794D01*
X125261904Y-112813413D01*
X125214285Y-112908651D01*
X125738095Y-114152222D02*
X125261904Y-114152222D01*
X125214285Y-114628413D01*
X125261904Y-114580794D01*
X125357142Y-114533175D01*
X125595238Y-114533175D01*
X125690476Y-114580794D01*
X125738095Y-114628413D01*
X125785714Y-114723651D01*
X125785714Y-114961746D01*
X125738095Y-115056984D01*
X125690476Y-115104603D01*
X125595238Y-115152222D01*
X125357142Y-115152222D01*
X125261904Y-115104603D01*
X125214285Y-115056984D01*
X125166666Y-115967222D02*
X125785714Y-115967222D01*
X125452380Y-116348175D01*
X125595238Y-116348175D01*
X125690476Y-116395794D01*
X125738095Y-116443413D01*
X125785714Y-116538651D01*
X125785714Y-116776746D01*
X125738095Y-116871984D01*
X125690476Y-116919603D01*
X125595238Y-116967222D01*
X125309523Y-116967222D01*
X125214285Y-116919603D01*
X125166666Y-116871984D01*
X125214285Y-117877461D02*
X125261904Y-117829842D01*
X125357142Y-117782222D01*
X125595238Y-117782222D01*
X125690476Y-117829842D01*
X125738095Y-117877461D01*
X125785714Y-117972699D01*
X125785714Y-118067937D01*
X125738095Y-118210794D01*
X125166666Y-118782222D01*
X125785714Y-118782222D01*
X95773809Y-131452380D02*
X95964285Y-131452380D01*
X96059523Y-131500000D01*
X96154761Y-131595238D01*
X96202380Y-131785714D01*
X96202380Y-132119047D01*
X96154761Y-132309523D01*
X96059523Y-132404761D01*
X95964285Y-132452380D01*
X95773809Y-132452380D01*
X95678571Y-132404761D01*
X95583333Y-132309523D01*
X95535714Y-132119047D01*
X95535714Y-131785714D01*
X95583333Y-131595238D01*
X95678571Y-131500000D01*
X95773809Y-131452380D01*
X96488095Y-131452380D02*
X97059523Y-131452380D01*
X96773809Y-132452380D02*
X96773809Y-131452380D01*
X97916666Y-131500000D02*
X97821428Y-131452380D01*
X97678571Y-131452380D01*
X97535714Y-131500000D01*
X97440476Y-131595238D01*
X97392857Y-131690476D01*
X97345238Y-131880952D01*
X97345238Y-132023809D01*
X97392857Y-132214285D01*
X97440476Y-132309523D01*
X97535714Y-132404761D01*
X97678571Y-132452380D01*
X97773809Y-132452380D01*
X97916666Y-132404761D01*
X97964285Y-132357142D01*
X97964285Y-132023809D01*
X97773809Y-132023809D01*
X103863076Y-125452380D02*
X103672600Y-125452380D01*
X103577361Y-125500000D01*
X103529742Y-125547619D01*
X103434504Y-125690476D01*
X103386885Y-125880952D01*
X103386885Y-126261904D01*
X103434504Y-126357142D01*
X103482123Y-126404761D01*
X103577361Y-126452380D01*
X103767838Y-126452380D01*
X103863076Y-126404761D01*
X103910695Y-126357142D01*
X103958314Y-126261904D01*
X103958314Y-126023809D01*
X103910695Y-125928571D01*
X103863076Y-125880952D01*
X103767838Y-125833333D01*
X103577361Y-125833333D01*
X103482123Y-125880952D01*
X103434504Y-125928571D01*
X103386885Y-126023809D01*
X102095695Y-125452380D02*
X101619504Y-125452380D01*
X101571885Y-125928571D01*
X101619504Y-125880952D01*
X101714742Y-125833333D01*
X101952838Y-125833333D01*
X102048076Y-125880952D01*
X102095695Y-125928571D01*
X102143314Y-126023809D01*
X102143314Y-126261904D01*
X102095695Y-126357142D01*
X102048076Y-126404761D01*
X101952838Y-126452380D01*
X101714742Y-126452380D01*
X101619504Y-126404761D01*
X101571885Y-126357142D01*
X99709266Y-125452380D02*
X100328314Y-125452380D01*
X99994980Y-125833333D01*
X100137838Y-125833333D01*
X100233076Y-125880952D01*
X100280695Y-125928571D01*
X100328314Y-126023809D01*
X100328314Y-126261904D01*
X100280695Y-126357142D01*
X100233076Y-126404761D01*
X100137838Y-126452380D01*
X99852123Y-126452380D01*
X99756885Y-126404761D01*
X99709266Y-126357142D01*
X97941885Y-125547619D02*
X97989504Y-125500000D01*
X98084742Y-125452380D01*
X98322838Y-125452380D01*
X98418076Y-125500000D01*
X98465695Y-125547619D01*
X98513314Y-125642857D01*
X98513314Y-125738095D01*
X98465695Y-125880952D01*
X97894266Y-126452380D01*
X98513314Y-126452380D01*
X96698314Y-126452380D02*
X96126885Y-126452380D01*
X96412600Y-126452380D02*
X96412600Y-125452380D01*
X96317361Y-125595238D01*
X96222123Y-125690476D01*
X96126885Y-125738095D01*
X67702380Y-114726190D02*
X67702380Y-114535714D01*
X67750000Y-114440476D01*
X67845238Y-114345238D01*
X68035714Y-114297619D01*
X68369047Y-114297619D01*
X68559523Y-114345238D01*
X68654761Y-114440476D01*
X68702380Y-114535714D01*
X68702380Y-114726190D01*
X68654761Y-114821428D01*
X68559523Y-114916666D01*
X68369047Y-114964285D01*
X68035714Y-114964285D01*
X67845238Y-114916666D01*
X67750000Y-114821428D01*
X67702380Y-114726190D01*
X67702380Y-114011904D02*
X67702380Y-113440476D01*
X68702380Y-113726190D02*
X67702380Y-113726190D01*
X67750000Y-112583333D02*
X67702380Y-112678571D01*
X67702380Y-112821428D01*
X67750000Y-112964285D01*
X67845238Y-113059523D01*
X67940476Y-113107142D01*
X68130952Y-113154761D01*
X68273809Y-113154761D01*
X68464285Y-113107142D01*
X68559523Y-113059523D01*
X68654761Y-112964285D01*
X68702380Y-112821428D01*
X68702380Y-112726190D01*
X68654761Y-112583333D01*
X68607142Y-112535714D01*
X68273809Y-112535714D01*
X68273809Y-112726190D01*
X74940476Y-119597222D02*
X74750000Y-119597222D01*
X74654761Y-119644842D01*
X74607142Y-119692461D01*
X74511904Y-119835318D01*
X74464285Y-120025794D01*
X74464285Y-120406746D01*
X74511904Y-120501984D01*
X74559523Y-120549603D01*
X74654761Y-120597222D01*
X74845238Y-120597222D01*
X74940476Y-120549603D01*
X74988095Y-120501984D01*
X75035714Y-120406746D01*
X75035714Y-120168651D01*
X74988095Y-120073413D01*
X74940476Y-120025794D01*
X74845238Y-119978175D01*
X74654761Y-119978175D01*
X74559523Y-120025794D01*
X74511904Y-120073413D01*
X74464285Y-120168651D01*
X74988095Y-117782222D02*
X74511904Y-117782222D01*
X74464285Y-118258413D01*
X74511904Y-118210794D01*
X74607142Y-118163175D01*
X74845238Y-118163175D01*
X74940476Y-118210794D01*
X74988095Y-118258413D01*
X75035714Y-118353651D01*
X75035714Y-118591746D01*
X74988095Y-118686984D01*
X74940476Y-118734603D01*
X74845238Y-118782222D01*
X74607142Y-118782222D01*
X74511904Y-118734603D01*
X74464285Y-118686984D01*
X74416666Y-115967222D02*
X75035714Y-115967222D01*
X74702380Y-116348175D01*
X74845238Y-116348175D01*
X74940476Y-116395794D01*
X74988095Y-116443413D01*
X75035714Y-116538651D01*
X75035714Y-116776746D01*
X74988095Y-116871984D01*
X74940476Y-116919603D01*
X74845238Y-116967222D01*
X74559523Y-116967222D01*
X74464285Y-116919603D01*
X74416666Y-116871984D01*
X74464285Y-114247461D02*
X74511904Y-114199842D01*
X74607142Y-114152222D01*
X74845238Y-114152222D01*
X74940476Y-114199842D01*
X74988095Y-114247461D01*
X75035714Y-114342699D01*
X75035714Y-114437937D01*
X74988095Y-114580794D01*
X74416666Y-115152222D01*
X75035714Y-115152222D01*
X75035714Y-113337222D02*
X74464285Y-113337222D01*
X74750000Y-113337222D02*
X74750000Y-112337222D01*
X74654761Y-112480080D01*
X74559523Y-112575318D01*
X74464285Y-112622937D01*
X126988095Y-91040000D02*
X126892857Y-90992380D01*
X126750000Y-90992380D01*
X126607142Y-91040000D01*
X126511904Y-91135238D01*
X126464285Y-91230476D01*
X126416666Y-91420952D01*
X126416666Y-91563809D01*
X126464285Y-91754285D01*
X126511904Y-91849523D01*
X126607142Y-91944761D01*
X126750000Y-91992380D01*
X126845238Y-91992380D01*
X126988095Y-91944761D01*
X127035714Y-91897142D01*
X127035714Y-91563809D01*
X126845238Y-91563809D01*
X127464285Y-91992380D02*
X127464285Y-90992380D01*
X128035714Y-91992380D01*
X128035714Y-90992380D01*
X128511904Y-91992380D02*
X128511904Y-90992380D01*
X128750000Y-90992380D01*
X128892857Y-91040000D01*
X128988095Y-91135238D01*
X129035714Y-91230476D01*
X129083333Y-91420952D01*
X129083333Y-91563809D01*
X129035714Y-91754285D01*
X128988095Y-91849523D01*
X128892857Y-91944761D01*
X128750000Y-91992380D01*
X128511904Y-91992380D01*
X127440476Y-93492380D02*
X127250000Y-93492380D01*
X127154761Y-93540000D01*
X127107142Y-93587619D01*
X127011904Y-93730476D01*
X126964285Y-93920952D01*
X126964285Y-94301904D01*
X127011904Y-94397142D01*
X127059523Y-94444761D01*
X127154761Y-94492380D01*
X127345238Y-94492380D01*
X127440476Y-94444761D01*
X127488095Y-94397142D01*
X127535714Y-94301904D01*
X127535714Y-94063809D01*
X127488095Y-93968571D01*
X127440476Y-93920952D01*
X127345238Y-93873333D01*
X127154761Y-93873333D01*
X127059523Y-93920952D01*
X127011904Y-93968571D01*
X126964285Y-94063809D01*
X127488095Y-95992380D02*
X127011904Y-95992380D01*
X126964285Y-96468571D01*
X127011904Y-96420952D01*
X127107142Y-96373333D01*
X127345238Y-96373333D01*
X127440476Y-96420952D01*
X127488095Y-96468571D01*
X127535714Y-96563809D01*
X127535714Y-96801904D01*
X127488095Y-96897142D01*
X127440476Y-96944761D01*
X127345238Y-96992380D01*
X127107142Y-96992380D01*
X127011904Y-96944761D01*
X126964285Y-96897142D01*
X126916666Y-98452380D02*
X127535714Y-98452380D01*
X127202380Y-98833333D01*
X127345238Y-98833333D01*
X127440476Y-98880952D01*
X127488095Y-98928571D01*
X127535714Y-99023809D01*
X127535714Y-99261904D01*
X127488095Y-99357142D01*
X127440476Y-99404761D01*
X127345238Y-99452380D01*
X127059523Y-99452380D01*
X126964285Y-99404761D01*
X126916666Y-99357142D01*
X126964285Y-101047619D02*
X127011904Y-101000000D01*
X127107142Y-100952380D01*
X127345238Y-100952380D01*
X127440476Y-101000000D01*
X127488095Y-101047619D01*
X127535714Y-101142857D01*
X127535714Y-101238095D01*
X127488095Y-101380952D01*
X126916666Y-101952380D01*
X127535714Y-101952380D01*
X127535714Y-104452380D02*
X126964285Y-104452380D01*
X127250000Y-104452380D02*
X127250000Y-103452380D01*
X127154761Y-103595238D01*
X127059523Y-103690476D01*
X126964285Y-103738095D01*
X123345238Y-106377380D02*
X123916666Y-106377380D01*
X123630952Y-107377380D02*
X123630952Y-106377380D01*
X124630952Y-107329761D02*
X124535714Y-107377380D01*
X124345238Y-107377380D01*
X124250000Y-107329761D01*
X124202380Y-107234523D01*
X124202380Y-106853571D01*
X124250000Y-106758333D01*
X124345238Y-106710714D01*
X124535714Y-106710714D01*
X124630952Y-106758333D01*
X124678571Y-106853571D01*
X124678571Y-106948809D01*
X124202380Y-107044047D01*
X125059523Y-107329761D02*
X125154761Y-107377380D01*
X125345238Y-107377380D01*
X125440476Y-107329761D01*
X125488095Y-107234523D01*
X125488095Y-107186904D01*
X125440476Y-107091666D01*
X125345238Y-107044047D01*
X125202380Y-107044047D01*
X125107142Y-106996428D01*
X125059523Y-106901190D01*
X125059523Y-106853571D01*
X125107142Y-106758333D01*
X125202380Y-106710714D01*
X125345238Y-106710714D01*
X125440476Y-106758333D01*
X125773809Y-106710714D02*
X126154761Y-106710714D01*
X125916666Y-106377380D02*
X125916666Y-107234523D01*
X125964285Y-107329761D01*
X126059523Y-107377380D01*
X126154761Y-107377380D01*
X122654761Y-109027380D02*
X122654761Y-108027380D01*
X123035714Y-108027380D01*
X123130952Y-108075000D01*
X123178571Y-108122619D01*
X123226190Y-108217857D01*
X123226190Y-108360714D01*
X123178571Y-108455952D01*
X123130952Y-108503571D01*
X123035714Y-108551190D01*
X122654761Y-108551190D01*
X123797619Y-109027380D02*
X123702380Y-108979761D01*
X123654761Y-108932142D01*
X123607142Y-108836904D01*
X123607142Y-108551190D01*
X123654761Y-108455952D01*
X123702380Y-108408333D01*
X123797619Y-108360714D01*
X123940476Y-108360714D01*
X124035714Y-108408333D01*
X124083333Y-108455952D01*
X124130952Y-108551190D01*
X124130952Y-108836904D01*
X124083333Y-108932142D01*
X124035714Y-108979761D01*
X123940476Y-109027380D01*
X123797619Y-109027380D01*
X124559523Y-109027380D02*
X124559523Y-108360714D01*
X124559523Y-108027380D02*
X124511904Y-108075000D01*
X124559523Y-108122619D01*
X124607142Y-108075000D01*
X124559523Y-108027380D01*
X124559523Y-108122619D01*
X125035714Y-108360714D02*
X125035714Y-109027380D01*
X125035714Y-108455952D02*
X125083333Y-108408333D01*
X125178571Y-108360714D01*
X125321428Y-108360714D01*
X125416666Y-108408333D01*
X125464285Y-108503571D01*
X125464285Y-109027380D01*
X125797619Y-108360714D02*
X126178571Y-108360714D01*
X125940476Y-108027380D02*
X125940476Y-108884523D01*
X125988095Y-108979761D01*
X126083333Y-109027380D01*
X126178571Y-109027380D01*
X126464285Y-108979761D02*
X126559523Y-109027380D01*
X126750000Y-109027380D01*
X126845238Y-108979761D01*
X126892857Y-108884523D01*
X126892857Y-108836904D01*
X126845238Y-108741666D01*
X126750000Y-108694047D01*
X126607142Y-108694047D01*
X126511904Y-108646428D01*
X126464285Y-108551190D01*
X126464285Y-108503571D01*
X126511904Y-108408333D01*
X126607142Y-108360714D01*
X126750000Y-108360714D01*
X126845238Y-108408333D01*
D14*
X109678571Y-61714285D02*
X109678571Y-61428571D01*
X109750000Y-61285714D01*
X109892857Y-61142857D01*
X110178571Y-61071428D01*
X110678571Y-61071428D01*
X110964285Y-61142857D01*
X111107142Y-61285714D01*
X111178571Y-61428571D01*
X111178571Y-61714285D01*
X111107142Y-61857142D01*
X110964285Y-62000000D01*
X110678571Y-62071428D01*
X110178571Y-62071428D01*
X109892857Y-62000000D01*
X109750000Y-61857142D01*
X109678571Y-61714285D01*
X111178571Y-60428571D02*
X109678571Y-60428571D01*
X111178571Y-59571428D01*
X109678571Y-59571428D01*
X109678571Y-55142857D02*
X109678571Y-54857142D01*
X109750000Y-54714285D01*
X109892857Y-54571428D01*
X110178571Y-54500000D01*
X110678571Y-54500000D01*
X110964285Y-54571428D01*
X111107142Y-54714285D01*
X111178571Y-54857142D01*
X111178571Y-55142857D01*
X111107142Y-55285714D01*
X110964285Y-55428571D01*
X110678571Y-55500000D01*
X110178571Y-55500000D01*
X109892857Y-55428571D01*
X109750000Y-55285714D01*
X109678571Y-55142857D01*
X110392857Y-53357142D02*
X110392857Y-53857142D01*
X111178571Y-53857142D02*
X109678571Y-53857142D01*
X109678571Y-53142857D01*
X110392857Y-52071428D02*
X110392857Y-52571428D01*
X111178571Y-52571428D02*
X109678571Y-52571428D01*
X109678571Y-51857142D01*
D12*
X113178571Y-64903571D02*
X114035714Y-64903571D01*
X113607142Y-66403571D02*
X113607142Y-64903571D01*
X114535714Y-65617857D02*
X115035714Y-65617857D01*
X115250000Y-66403571D02*
X114535714Y-66403571D01*
X114535714Y-64903571D01*
X115250000Y-64903571D01*
X115821428Y-66332142D02*
X116035714Y-66403571D01*
X116392857Y-66403571D01*
X116535714Y-66332142D01*
X116607142Y-66260714D01*
X116678571Y-66117857D01*
X116678571Y-65975000D01*
X116607142Y-65832142D01*
X116535714Y-65760714D01*
X116392857Y-65689285D01*
X116107142Y-65617857D01*
X115964285Y-65546428D01*
X115892857Y-65475000D01*
X115821428Y-65332142D01*
X115821428Y-65189285D01*
X115892857Y-65046428D01*
X115964285Y-64975000D01*
X116107142Y-64903571D01*
X116464285Y-64903571D01*
X116678571Y-64975000D01*
X117107142Y-64903571D02*
X117964285Y-64903571D01*
X117535714Y-66403571D02*
X117535714Y-64903571D01*
X119535714Y-66332142D02*
X119750000Y-66403571D01*
X120107142Y-66403571D01*
X120250000Y-66332142D01*
X120321428Y-66260714D01*
X120392857Y-66117857D01*
X120392857Y-65975000D01*
X120321428Y-65832142D01*
X120250000Y-65760714D01*
X120107142Y-65689285D01*
X119821428Y-65617857D01*
X119678571Y-65546428D01*
X119607142Y-65475000D01*
X119535714Y-65332142D01*
X119535714Y-65189285D01*
X119607142Y-65046428D01*
X119678571Y-64975000D01*
X119821428Y-64903571D01*
X120178571Y-64903571D01*
X120392857Y-64975000D01*
X121035714Y-66403571D02*
X121035714Y-64903571D01*
X122535714Y-64975000D02*
X122392857Y-64903571D01*
X122178571Y-64903571D01*
X121964285Y-64975000D01*
X121821428Y-65117857D01*
X121750000Y-65260714D01*
X121678571Y-65546428D01*
X121678571Y-65760714D01*
X121750000Y-66046428D01*
X121821428Y-66189285D01*
X121964285Y-66332142D01*
X122178571Y-66403571D01*
X122321428Y-66403571D01*
X122535714Y-66332142D01*
X122607142Y-66260714D01*
X122607142Y-65760714D01*
X122321428Y-65760714D01*
X123250000Y-66403571D02*
X123250000Y-64903571D01*
X124107142Y-66403571D01*
X124107142Y-64903571D01*
X124750000Y-65975000D02*
X125464285Y-65975000D01*
X124607142Y-66403571D02*
X125107142Y-64903571D01*
X125607142Y-66403571D01*
X126821428Y-66403571D02*
X126107142Y-66403571D01*
X126107142Y-64903571D01*
X116392857Y-67453571D02*
X116678571Y-67453571D01*
X116821428Y-67525000D01*
X116964285Y-67667857D01*
X117035714Y-67953571D01*
X117035714Y-68453571D01*
X116964285Y-68739285D01*
X116821428Y-68882142D01*
X116678571Y-68953571D01*
X116392857Y-68953571D01*
X116250000Y-68882142D01*
X116107142Y-68739285D01*
X116035714Y-68453571D01*
X116035714Y-67953571D01*
X116107142Y-67667857D01*
X116250000Y-67525000D01*
X116392857Y-67453571D01*
X117678571Y-67453571D02*
X117678571Y-68667857D01*
X117750000Y-68810714D01*
X117821428Y-68882142D01*
X117964285Y-68953571D01*
X118250000Y-68953571D01*
X118392857Y-68882142D01*
X118464285Y-68810714D01*
X118535714Y-68667857D01*
X118535714Y-67453571D01*
X119035714Y-67453571D02*
X119892857Y-67453571D01*
X119464285Y-68953571D02*
X119464285Y-67453571D01*
X120392857Y-68953571D02*
X120392857Y-67453571D01*
X120964285Y-67453571D01*
X121107142Y-67525000D01*
X121178571Y-67596428D01*
X121250000Y-67739285D01*
X121250000Y-67953571D01*
X121178571Y-68096428D01*
X121107142Y-68167857D01*
X120964285Y-68239285D01*
X120392857Y-68239285D01*
X121892857Y-67453571D02*
X121892857Y-68667857D01*
X121964285Y-68810714D01*
X122035714Y-68882142D01*
X122178571Y-68953571D01*
X122464285Y-68953571D01*
X122607142Y-68882142D01*
X122678571Y-68810714D01*
X122750000Y-68667857D01*
X122750000Y-67453571D01*
X123250000Y-67453571D02*
X124107142Y-67453571D01*
X123678571Y-68953571D02*
X123678571Y-67453571D01*
X128476190Y-60885438D02*
X128571428Y-60790200D01*
X128761904Y-60694961D01*
X129238095Y-60694961D01*
X129428571Y-60790200D01*
X129523809Y-60885438D01*
X129619047Y-61075914D01*
X129619047Y-61266390D01*
X129523809Y-61552104D01*
X128380952Y-62694961D01*
X129619047Y-62694961D01*
X131523809Y-62694961D02*
X130380952Y-62694961D01*
X130952380Y-62694961D02*
X130952380Y-60694961D01*
X130761904Y-60980676D01*
X130571428Y-61171152D01*
X130380952Y-61266390D01*
X128476190Y-71771152D02*
X128571428Y-71675914D01*
X128761904Y-71580675D01*
X129238095Y-71580675D01*
X129428571Y-71675914D01*
X129523809Y-71771152D01*
X129619047Y-71961628D01*
X129619047Y-72152104D01*
X129523809Y-72437818D01*
X128380952Y-73580675D01*
X129619047Y-73580675D01*
X130857142Y-71580675D02*
X131047619Y-71580675D01*
X131238095Y-71675914D01*
X131333333Y-71771152D01*
X131428571Y-71961628D01*
X131523809Y-72342580D01*
X131523809Y-72818771D01*
X131428571Y-73199723D01*
X131333333Y-73390199D01*
X131238095Y-73485437D01*
X131047619Y-73580675D01*
X130857142Y-73580675D01*
X130666666Y-73485437D01*
X130571428Y-73390199D01*
X130476190Y-73199723D01*
X130380952Y-72818771D01*
X130380952Y-72342580D01*
X130476190Y-71961628D01*
X130571428Y-71771152D01*
X130666666Y-71675914D01*
X130857142Y-71580675D01*
X129619047Y-84466389D02*
X128476190Y-84466389D01*
X129047619Y-84466389D02*
X129047619Y-82466389D01*
X128857142Y-82752104D01*
X128666666Y-82942580D01*
X128476190Y-83037818D01*
X130571428Y-84466389D02*
X130952380Y-84466389D01*
X131142857Y-84371151D01*
X131238095Y-84275913D01*
X131428571Y-83990199D01*
X131523809Y-83609247D01*
X131523809Y-82847342D01*
X131428571Y-82656866D01*
X131333333Y-82561628D01*
X131142857Y-82466389D01*
X130761904Y-82466389D01*
X130571428Y-82561628D01*
X130476190Y-82656866D01*
X130380952Y-82847342D01*
X130380952Y-83323532D01*
X130476190Y-83514008D01*
X130571428Y-83609247D01*
X130761904Y-83704485D01*
X131142857Y-83704485D01*
X131333333Y-83609247D01*
X131428571Y-83514008D01*
X131523809Y-83323532D01*
X129619047Y-95352103D02*
X128476190Y-95352103D01*
X129047619Y-95352103D02*
X129047619Y-93352103D01*
X128857142Y-93637818D01*
X128666666Y-93828294D01*
X128476190Y-93923532D01*
X130761904Y-94209246D02*
X130571428Y-94114008D01*
X130476190Y-94018770D01*
X130380952Y-93828294D01*
X130380952Y-93733056D01*
X130476190Y-93542580D01*
X130571428Y-93447342D01*
X130761904Y-93352103D01*
X131142857Y-93352103D01*
X131333333Y-93447342D01*
X131428571Y-93542580D01*
X131523809Y-93733056D01*
X131523809Y-93828294D01*
X131428571Y-94018770D01*
X131333333Y-94114008D01*
X131142857Y-94209246D01*
X130761904Y-94209246D01*
X130571428Y-94304484D01*
X130476190Y-94399722D01*
X130380952Y-94590199D01*
X130380952Y-94971151D01*
X130476190Y-95161627D01*
X130571428Y-95256865D01*
X130761904Y-95352103D01*
X131142857Y-95352103D01*
X131333333Y-95256865D01*
X131428571Y-95161627D01*
X131523809Y-94971151D01*
X131523809Y-94590199D01*
X131428571Y-94399722D01*
X131333333Y-94304484D01*
X131142857Y-94209246D01*
X129619047Y-106237817D02*
X128476190Y-106237817D01*
X129047619Y-106237817D02*
X129047619Y-104237817D01*
X128857142Y-104523532D01*
X128666666Y-104714008D01*
X128476190Y-104809246D01*
X130285714Y-104237817D02*
X131619047Y-104237817D01*
X130761904Y-106237817D01*
X129619047Y-117123531D02*
X128476190Y-117123531D01*
X129047619Y-117123531D02*
X129047619Y-115123531D01*
X128857142Y-115409246D01*
X128666666Y-115599722D01*
X128476190Y-115694960D01*
X131333333Y-115123531D02*
X130952380Y-115123531D01*
X130761904Y-115218770D01*
X130666666Y-115314008D01*
X130476190Y-115599722D01*
X130380952Y-115980674D01*
X130380952Y-116742579D01*
X130476190Y-116933055D01*
X130571428Y-117028293D01*
X130761904Y-117123531D01*
X131142857Y-117123531D01*
X131333333Y-117028293D01*
X131428571Y-116933055D01*
X131523809Y-116742579D01*
X131523809Y-116266389D01*
X131428571Y-116075912D01*
X131333333Y-115980674D01*
X131142857Y-115885436D01*
X130761904Y-115885436D01*
X130571428Y-115980674D01*
X130476190Y-116075912D01*
X130380952Y-116266389D01*
X129619047Y-126364761D02*
X128476190Y-126364761D01*
X129047619Y-126364761D02*
X129047619Y-124364761D01*
X128857142Y-124650476D01*
X128666666Y-124840952D01*
X128476190Y-124936190D01*
X131428571Y-124364761D02*
X130476190Y-124364761D01*
X130380952Y-125317142D01*
X130476190Y-125221904D01*
X130666666Y-125126666D01*
X131142857Y-125126666D01*
X131333333Y-125221904D01*
X131428571Y-125317142D01*
X131523809Y-125507619D01*
X131523809Y-125983809D01*
X131428571Y-126174285D01*
X131333333Y-126269523D01*
X131142857Y-126364761D01*
X130666666Y-126364761D01*
X130476190Y-126269523D01*
X130380952Y-126174285D01*
X137619047Y-146904761D02*
X136476190Y-146904761D01*
X137047619Y-146904761D02*
X137047619Y-144904761D01*
X136857142Y-145190476D01*
X136666666Y-145380952D01*
X136476190Y-145476190D01*
X139333333Y-145571428D02*
X139333333Y-146904761D01*
X138857142Y-144809523D02*
X138380952Y-146238095D01*
X139619047Y-146238095D01*
X126391647Y-130904761D02*
X125248790Y-130904761D01*
X125820219Y-130904761D02*
X125820219Y-128904761D01*
X125629742Y-129190476D01*
X125439266Y-129380952D01*
X125248790Y-129476190D01*
X127058314Y-128904761D02*
X128296409Y-128904761D01*
X127629742Y-129666666D01*
X127915457Y-129666666D01*
X128105933Y-129761904D01*
X128201171Y-129857142D01*
X128296409Y-130047619D01*
X128296409Y-130523809D01*
X128201171Y-130714285D01*
X128105933Y-130809523D01*
X127915457Y-130904761D01*
X127344028Y-130904761D01*
X127153552Y-130809523D01*
X127058314Y-130714285D01*
X113141647Y-130904761D02*
X111998790Y-130904761D01*
X112570219Y-130904761D02*
X112570219Y-128904761D01*
X112379742Y-129190476D01*
X112189266Y-129380952D01*
X111998790Y-129476190D01*
X113903552Y-129095238D02*
X113998790Y-129000000D01*
X114189266Y-128904761D01*
X114665457Y-128904761D01*
X114855933Y-129000000D01*
X114951171Y-129095238D01*
X115046409Y-129285714D01*
X115046409Y-129476190D01*
X114951171Y-129761904D01*
X113808314Y-130904761D01*
X115046409Y-130904761D01*
X99661647Y-130904761D02*
X98518790Y-130904761D01*
X99090219Y-130904761D02*
X99090219Y-128904761D01*
X98899742Y-129190476D01*
X98709266Y-129380952D01*
X98518790Y-129476190D01*
X101566409Y-130904761D02*
X100423552Y-130904761D01*
X100994980Y-130904761D02*
X100994980Y-128904761D01*
X100804504Y-129190476D01*
X100614028Y-129380952D01*
X100423552Y-129476190D01*
X86291647Y-130904761D02*
X85148790Y-130904761D01*
X85720219Y-130904761D02*
X85720219Y-128904761D01*
X85529742Y-129190476D01*
X85339266Y-129380952D01*
X85148790Y-129476190D01*
X87529742Y-128904761D02*
X87720219Y-128904761D01*
X87910695Y-129000000D01*
X88005933Y-129095238D01*
X88101171Y-129285714D01*
X88196409Y-129666666D01*
X88196409Y-130142857D01*
X88101171Y-130523809D01*
X88005933Y-130714285D01*
X87910695Y-130809523D01*
X87720219Y-130904761D01*
X87529742Y-130904761D01*
X87339266Y-130809523D01*
X87244028Y-130714285D01*
X87148790Y-130523809D01*
X87053552Y-130142857D01*
X87053552Y-129666666D01*
X87148790Y-129285714D01*
X87244028Y-129095238D01*
X87339266Y-129000000D01*
X87529742Y-128904761D01*
X72991647Y-130904761D02*
X73372600Y-130904761D01*
X73563076Y-130809523D01*
X73658314Y-130714285D01*
X73848790Y-130428571D01*
X73944028Y-130047619D01*
X73944028Y-129285714D01*
X73848790Y-129095238D01*
X73753552Y-129000000D01*
X73563076Y-128904761D01*
X73182123Y-128904761D01*
X72991647Y-129000000D01*
X72896409Y-129095238D01*
X72801171Y-129285714D01*
X72801171Y-129761904D01*
X72896409Y-129952380D01*
X72991647Y-130047619D01*
X73182123Y-130142857D01*
X73563076Y-130142857D01*
X73753552Y-130047619D01*
X73848790Y-129952380D01*
X73944028Y-129761904D01*
X60809523Y-145761904D02*
X60619047Y-145666666D01*
X60523809Y-145571428D01*
X60428571Y-145380952D01*
X60428571Y-145285714D01*
X60523809Y-145095238D01*
X60619047Y-145000000D01*
X60809523Y-144904761D01*
X61190476Y-144904761D01*
X61380952Y-145000000D01*
X61476190Y-145095238D01*
X61571428Y-145285714D01*
X61571428Y-145380952D01*
X61476190Y-145571428D01*
X61380952Y-145666666D01*
X61190476Y-145761904D01*
X60809523Y-145761904D01*
X60619047Y-145857142D01*
X60523809Y-145952380D01*
X60428571Y-146142857D01*
X60428571Y-146523809D01*
X60523809Y-146714285D01*
X60619047Y-146809523D01*
X60809523Y-146904761D01*
X61190476Y-146904761D01*
X61380952Y-146809523D01*
X61476190Y-146714285D01*
X61571428Y-146523809D01*
X61571428Y-146142857D01*
X61476190Y-145952380D01*
X61380952Y-145857142D01*
X61190476Y-145761904D01*
X69333333Y-126009245D02*
X70666666Y-126009245D01*
X69809523Y-128009245D01*
X70380952Y-115123531D02*
X70000000Y-115123531D01*
X69809523Y-115218770D01*
X69714285Y-115314008D01*
X69523809Y-115599722D01*
X69428571Y-115980674D01*
X69428571Y-116742579D01*
X69523809Y-116933055D01*
X69619047Y-117028293D01*
X69809523Y-117123531D01*
X70190476Y-117123531D01*
X70380952Y-117028293D01*
X70476190Y-116933055D01*
X70571428Y-116742579D01*
X70571428Y-116266389D01*
X70476190Y-116075912D01*
X70380952Y-115980674D01*
X70190476Y-115885436D01*
X69809523Y-115885436D01*
X69619047Y-115980674D01*
X69523809Y-116075912D01*
X69428571Y-116266389D01*
X70476190Y-104237817D02*
X69523809Y-104237817D01*
X69428571Y-105190198D01*
X69523809Y-105094960D01*
X69714285Y-104999722D01*
X70190476Y-104999722D01*
X70380952Y-105094960D01*
X70476190Y-105190198D01*
X70571428Y-105380675D01*
X70571428Y-105856865D01*
X70476190Y-106047341D01*
X70380952Y-106142579D01*
X70190476Y-106237817D01*
X69714285Y-106237817D01*
X69523809Y-106142579D01*
X69428571Y-106047341D01*
X70380952Y-94018770D02*
X70380952Y-95352103D01*
X69904761Y-93256865D02*
X69428571Y-94685437D01*
X70666666Y-94685437D01*
X69333333Y-82466389D02*
X70571428Y-82466389D01*
X69904761Y-83228294D01*
X70190476Y-83228294D01*
X70380952Y-83323532D01*
X70476190Y-83418770D01*
X70571428Y-83609247D01*
X70571428Y-84085437D01*
X70476190Y-84275913D01*
X70380952Y-84371151D01*
X70190476Y-84466389D01*
X69619047Y-84466389D01*
X69428571Y-84371151D01*
X69333333Y-84275913D01*
X69428571Y-71771152D02*
X69523809Y-71675914D01*
X69714285Y-71580675D01*
X70190476Y-71580675D01*
X70380952Y-71675914D01*
X70476190Y-71771152D01*
X70571428Y-71961628D01*
X70571428Y-72152104D01*
X70476190Y-72437818D01*
X69333333Y-73580675D01*
X70571428Y-73580675D01*
X70571428Y-62694961D02*
X69428571Y-62694961D01*
X70000000Y-62694961D02*
X70000000Y-60694961D01*
X69809523Y-60980676D01*
X69619047Y-61171152D01*
X69428571Y-61266390D01*
D10*
X127000000Y-105702380D02*
X127000000Y-105940476D01*
X126761904Y-105845238D02*
X127000000Y-105940476D01*
X127238095Y-105845238D01*
X126857142Y-106130952D02*
X127000000Y-105940476D01*
X127142857Y-106130952D01*
X105750000Y-106202380D02*
X105750000Y-106440476D01*
X105511904Y-106345238D02*
X105750000Y-106440476D01*
X105988095Y-106345238D01*
X105607142Y-106630952D02*
X105750000Y-106440476D01*
X105892857Y-106630952D01*
X116000000Y-102952380D02*
X116000000Y-103190476D01*
X115761904Y-103095238D02*
X116000000Y-103190476D01*
X116238095Y-103095238D01*
X115857142Y-103380952D02*
X116000000Y-103190476D01*
X116142857Y-103380952D01*
X107250000Y-102952380D02*
X107250000Y-103190476D01*
X107011904Y-103095238D02*
X107250000Y-103190476D01*
X107488095Y-103095238D01*
X107107142Y-103380952D02*
X107250000Y-103190476D01*
X107392857Y-103380952D01*
X110000000Y-88452380D02*
X110000000Y-88690476D01*
X109761904Y-88595238D02*
X110000000Y-88690476D01*
X110238095Y-88595238D01*
X109857142Y-88880952D02*
X110000000Y-88690476D01*
X110142857Y-88880952D01*
X85500000Y-63952380D02*
X85500000Y-64190476D01*
X85261904Y-64095238D02*
X85500000Y-64190476D01*
X85738095Y-64095238D01*
X85357142Y-64380952D02*
X85500000Y-64190476D01*
X85642857Y-64380952D01*
X85750000Y-72702380D02*
X85750000Y-72940476D01*
X85511904Y-72845238D02*
X85750000Y-72940476D01*
X85988095Y-72845238D01*
X85607142Y-73130952D02*
X85750000Y-72940476D01*
X85892857Y-73130952D01*
X102750000Y-60452380D02*
X102750000Y-60690476D01*
X102511904Y-60595238D02*
X102750000Y-60690476D01*
X102988095Y-60595238D01*
X102607142Y-60880952D02*
X102750000Y-60690476D01*
X102892857Y-60880952D01*
X97250000Y-55702380D02*
X97250000Y-55940476D01*
X97011904Y-55845238D02*
X97250000Y-55940476D01*
X97488095Y-55845238D01*
X97107142Y-56130952D02*
X97250000Y-55940476D01*
X97392857Y-56130952D01*
X124750000Y-63202380D02*
X124750000Y-63440476D01*
X124511904Y-63345238D02*
X124750000Y-63440476D01*
X124988095Y-63345238D01*
X124607142Y-63630952D02*
X124750000Y-63440476D01*
X124892857Y-63630952D01*
X135250000Y-66702380D02*
X135250000Y-66940476D01*
X135011904Y-66845238D02*
X135250000Y-66940476D01*
X135488095Y-66845238D01*
X135107142Y-67130952D02*
X135250000Y-66940476D01*
X135392857Y-67130952D01*
X135250000Y-77452380D02*
X135250000Y-77690476D01*
X135011904Y-77595238D02*
X135250000Y-77690476D01*
X135488095Y-77595238D01*
X135107142Y-77880952D02*
X135250000Y-77690476D01*
X135392857Y-77880952D01*
X135250000Y-88452380D02*
X135250000Y-88690476D01*
X135011904Y-88595238D02*
X135250000Y-88690476D01*
X135488095Y-88595238D01*
X135107142Y-88880952D02*
X135250000Y-88690476D01*
X135392857Y-88880952D01*
X135250000Y-99452380D02*
X135250000Y-99690476D01*
X135011904Y-99595238D02*
X135250000Y-99690476D01*
X135488095Y-99595238D01*
X135107142Y-99880952D02*
X135250000Y-99690476D01*
X135392857Y-99880952D01*
X135250000Y-110702380D02*
X135250000Y-110940476D01*
X135011904Y-110845238D02*
X135250000Y-110940476D01*
X135488095Y-110845238D01*
X135107142Y-111130952D02*
X135250000Y-110940476D01*
X135392857Y-111130952D01*
X135250000Y-121202380D02*
X135250000Y-121440476D01*
X135011904Y-121345238D02*
X135250000Y-121440476D01*
X135488095Y-121345238D01*
X135107142Y-121630952D02*
X135250000Y-121440476D01*
X135392857Y-121630952D01*
X135250000Y-132202380D02*
X135250000Y-132440476D01*
X135011904Y-132345238D02*
X135250000Y-132440476D01*
X135488095Y-132345238D01*
X135107142Y-132630952D02*
X135250000Y-132440476D01*
X135392857Y-132630952D01*
X135250000Y-142952380D02*
X135250000Y-143190476D01*
X135011904Y-143095238D02*
X135250000Y-143190476D01*
X135488095Y-143095238D01*
X135107142Y-143380952D02*
X135250000Y-143190476D01*
X135392857Y-143380952D01*
X121750000Y-134952380D02*
X121750000Y-135190476D01*
X121511904Y-135095238D02*
X121750000Y-135190476D01*
X121988095Y-135095238D01*
X121607142Y-135380952D02*
X121750000Y-135190476D01*
X121892857Y-135380952D01*
X108500000Y-135202380D02*
X108500000Y-135440476D01*
X108261904Y-135345238D02*
X108500000Y-135440476D01*
X108738095Y-135345238D01*
X108357142Y-135630952D02*
X108500000Y-135440476D01*
X108642857Y-135630952D01*
X95000000Y-135202380D02*
X95000000Y-135440476D01*
X94761904Y-135345238D02*
X95000000Y-135440476D01*
X95238095Y-135345238D01*
X94857142Y-135630952D02*
X95000000Y-135440476D01*
X95142857Y-135630952D01*
X81750000Y-135202380D02*
X81750000Y-135440476D01*
X81511904Y-135345238D02*
X81750000Y-135440476D01*
X81988095Y-135345238D01*
X81607142Y-135630952D02*
X81750000Y-135440476D01*
X81892857Y-135630952D01*
X68500000Y-135202380D02*
X68500000Y-135440476D01*
X68261904Y-135345238D02*
X68500000Y-135440476D01*
X68738095Y-135345238D01*
X68357142Y-135630952D02*
X68500000Y-135440476D01*
X68642857Y-135630952D01*
X64500000Y-132952380D02*
X64500000Y-133190476D01*
X64261904Y-133095238D02*
X64500000Y-133190476D01*
X64738095Y-133095238D01*
X64357142Y-133380952D02*
X64500000Y-133190476D01*
X64642857Y-133380952D01*
X64500000Y-121952380D02*
X64500000Y-122190476D01*
X64261904Y-122095238D02*
X64500000Y-122190476D01*
X64738095Y-122095238D01*
X64357142Y-122380952D02*
X64500000Y-122190476D01*
X64642857Y-122380952D01*
X64500000Y-111202380D02*
X64500000Y-111440476D01*
X64261904Y-111345238D02*
X64500000Y-111440476D01*
X64738095Y-111345238D01*
X64357142Y-111630952D02*
X64500000Y-111440476D01*
X64642857Y-111630952D01*
X64500000Y-100202380D02*
X64500000Y-100440476D01*
X64261904Y-100345238D02*
X64500000Y-100440476D01*
X64738095Y-100345238D01*
X64357142Y-100630952D02*
X64500000Y-100440476D01*
X64642857Y-100630952D01*
X64500000Y-89452380D02*
X64500000Y-89690476D01*
X64261904Y-89595238D02*
X64500000Y-89690476D01*
X64738095Y-89595238D01*
X64357142Y-89880952D02*
X64500000Y-89690476D01*
X64642857Y-89880952D01*
X64500000Y-78452380D02*
X64500000Y-78690476D01*
X64261904Y-78595238D02*
X64500000Y-78690476D01*
X64738095Y-78595238D01*
X64357142Y-78880952D02*
X64500000Y-78690476D01*
X64642857Y-78880952D01*
X64500000Y-67702380D02*
X64500000Y-67940476D01*
X64261904Y-67845238D02*
X64500000Y-67940476D01*
X64738095Y-67845238D01*
X64357142Y-68130952D02*
X64500000Y-67940476D01*
X64642857Y-68130952D01*
X64500000Y-56702380D02*
X64500000Y-56940476D01*
X64261904Y-56845238D02*
X64500000Y-56940476D01*
X64738095Y-56845238D01*
X64357142Y-57130952D02*
X64500000Y-56940476D01*
X64642857Y-57130952D01*
X67500000Y-60952380D02*
X67500000Y-61190476D01*
X67261904Y-61095238D02*
X67500000Y-61190476D01*
X67738095Y-61095238D01*
X67357142Y-61380952D02*
X67500000Y-61190476D01*
X67642857Y-61380952D01*
X67500000Y-71702380D02*
X67500000Y-71940476D01*
X67261904Y-71845238D02*
X67500000Y-71940476D01*
X67738095Y-71845238D01*
X67357142Y-72130952D02*
X67500000Y-71940476D01*
X67642857Y-72130952D01*
X67500000Y-82702380D02*
X67500000Y-82940476D01*
X67261904Y-82845238D02*
X67500000Y-82940476D01*
X67738095Y-82845238D01*
X67357142Y-83130952D02*
X67500000Y-82940476D01*
X67642857Y-83130952D01*
X67500000Y-93702380D02*
X67500000Y-93940476D01*
X67261904Y-93845238D02*
X67500000Y-93940476D01*
X67738095Y-93845238D01*
X67357142Y-94130952D02*
X67500000Y-93940476D01*
X67642857Y-94130952D01*
X67750000Y-104452380D02*
X67750000Y-104690476D01*
X67511904Y-104595238D02*
X67750000Y-104690476D01*
X67988095Y-104595238D01*
X67607142Y-104880952D02*
X67750000Y-104690476D01*
X67892857Y-104880952D01*
X67750000Y-115452380D02*
X67750000Y-115690476D01*
X67511904Y-115595238D02*
X67750000Y-115690476D01*
X67988095Y-115595238D01*
X67607142Y-115880952D02*
X67750000Y-115690476D01*
X67892857Y-115880952D01*
X67750000Y-126202380D02*
X67750000Y-126440476D01*
X67511904Y-126345238D02*
X67750000Y-126440476D01*
X67988095Y-126345238D01*
X67607142Y-126630952D02*
X67750000Y-126440476D01*
X67892857Y-126630952D01*
X67500000Y-136952380D02*
X67500000Y-137190476D01*
X67261904Y-137095238D02*
X67500000Y-137190476D01*
X67738095Y-137095238D01*
X67357142Y-137380952D02*
X67500000Y-137190476D01*
X67642857Y-137380952D01*
X72500000Y-132202380D02*
X72500000Y-132440476D01*
X72261904Y-132345238D02*
X72500000Y-132440476D01*
X72738095Y-132345238D01*
X72357142Y-132630952D02*
X72500000Y-132440476D01*
X72642857Y-132630952D01*
X86000000Y-132202380D02*
X86000000Y-132440476D01*
X85761904Y-132345238D02*
X86000000Y-132440476D01*
X86238095Y-132345238D01*
X85857142Y-132630952D02*
X86000000Y-132440476D01*
X86142857Y-132630952D01*
X99250000Y-132202380D02*
X99250000Y-132440476D01*
X99011904Y-132345238D02*
X99250000Y-132440476D01*
X99488095Y-132345238D01*
X99107142Y-132630952D02*
X99250000Y-132440476D01*
X99392857Y-132630952D01*
X112750000Y-132202380D02*
X112750000Y-132440476D01*
X112511904Y-132345238D02*
X112750000Y-132440476D01*
X112988095Y-132345238D01*
X112607142Y-132630952D02*
X112750000Y-132440476D01*
X112892857Y-132630952D01*
X126000000Y-132202380D02*
X126000000Y-132440476D01*
X125761904Y-132345238D02*
X126000000Y-132440476D01*
X126238095Y-132345238D01*
X125857142Y-132630952D02*
X126000000Y-132440476D01*
X126142857Y-132630952D01*
X132250000Y-127702380D02*
X132250000Y-127940476D01*
X132011904Y-127845238D02*
X132250000Y-127940476D01*
X132488095Y-127845238D01*
X132107142Y-128130952D02*
X132250000Y-127940476D01*
X132392857Y-128130952D01*
X132250000Y-116952380D02*
X132250000Y-117190476D01*
X132011904Y-117095238D02*
X132250000Y-117190476D01*
X132488095Y-117095238D01*
X132107142Y-117380952D02*
X132250000Y-117190476D01*
X132392857Y-117380952D01*
X132250000Y-106202380D02*
X132250000Y-106440476D01*
X132011904Y-106345238D02*
X132250000Y-106440476D01*
X132488095Y-106345238D01*
X132107142Y-106630952D02*
X132250000Y-106440476D01*
X132392857Y-106630952D01*
X132250000Y-94952380D02*
X132250000Y-95190476D01*
X132011904Y-95095238D02*
X132250000Y-95190476D01*
X132488095Y-95095238D01*
X132107142Y-95380952D02*
X132250000Y-95190476D01*
X132392857Y-95380952D01*
X132250000Y-83952380D02*
X132250000Y-84190476D01*
X132011904Y-84095238D02*
X132250000Y-84190476D01*
X132488095Y-84095238D01*
X132107142Y-84380952D02*
X132250000Y-84190476D01*
X132392857Y-84380952D01*
X132250000Y-73202380D02*
X132250000Y-73440476D01*
X132011904Y-73345238D02*
X132250000Y-73440476D01*
X132488095Y-73345238D01*
X132107142Y-73630952D02*
X132250000Y-73440476D01*
X132392857Y-73630952D01*
X132250000Y-62452380D02*
X132250000Y-62690476D01*
X132011904Y-62595238D02*
X132250000Y-62690476D01*
X132488095Y-62595238D01*
X132107142Y-62880952D02*
X132250000Y-62690476D01*
X132392857Y-62880952D01*
X110250000Y-73452380D02*
X110250000Y-73690476D01*
X110011904Y-73595238D02*
X110250000Y-73690476D01*
X110488095Y-73595238D01*
X110107142Y-73880952D02*
X110250000Y-73690476D01*
X110392857Y-73880952D01*
X98750000Y-74452380D02*
X98750000Y-74690476D01*
X98511904Y-74595238D02*
X98750000Y-74690476D01*
X98988095Y-74595238D01*
X98607142Y-74880952D02*
X98750000Y-74690476D01*
X98892857Y-74880952D01*
X98500000Y-69202380D02*
X98500000Y-69440476D01*
X98261904Y-69345238D02*
X98500000Y-69440476D01*
X98738095Y-69345238D01*
X98357142Y-69630952D02*
X98500000Y-69440476D01*
X98642857Y-69630952D01*
X98250000Y-63702380D02*
X98250000Y-63940476D01*
X98011904Y-63845238D02*
X98250000Y-63940476D01*
X98488095Y-63845238D01*
X98107142Y-64130952D02*
X98250000Y-63940476D01*
X98392857Y-64130952D01*
D11*
X98142000Y-74243200D02*
X92742000Y-74243200D01*
X98142000Y-70943200D02*
X92742000Y-70943200D01*
X98142000Y-74243200D02*
X98142000Y-70943200D01*
X98142000Y-68706000D02*
X92742000Y-68706000D01*
X98142000Y-65406000D02*
X92742000Y-65406000D01*
X98142000Y-68706000D02*
X98142000Y-65406000D01*
X107485264Y-62691600D02*
X106281136Y-62691600D01*
X107485264Y-64511600D02*
X106281136Y-64511600D01*
X87353200Y-62672800D02*
X84753200Y-62672800D01*
X87353200Y-47972800D02*
X87353200Y-62672800D01*
X78153200Y-62672800D02*
X78153200Y-60772800D01*
X80853200Y-62672800D02*
X78153200Y-62672800D01*
X78153200Y-47972800D02*
X87353200Y-47972800D01*
X78153200Y-56772800D02*
X78153200Y-47972800D01*
X87553200Y-61822800D02*
X87553200Y-62872800D01*
X86503200Y-62872800D02*
X87553200Y-62872800D01*
X85785000Y-69358200D02*
X85785000Y-70688200D01*
X84455000Y-69358200D02*
X85785000Y-69358200D01*
X83185000Y-69358200D02*
X83185000Y-72018200D01*
X83185000Y-72018200D02*
X80585000Y-72018200D01*
X83185000Y-69358200D02*
X80585000Y-69358200D01*
X80585000Y-69358200D02*
X80585000Y-72018200D01*
X127117800Y-48224000D02*
X112617800Y-48224000D01*
X112617800Y-48224000D02*
X112617800Y-48724000D01*
X112617800Y-48724000D02*
X113617800Y-48724000D01*
X113617800Y-48724000D02*
X113617800Y-56724000D01*
X113617800Y-60224000D02*
X113617800Y-62224000D01*
X113617800Y-62224000D02*
X126117800Y-62224000D01*
X126117800Y-62224000D02*
X126117800Y-60224000D01*
X126117800Y-56724000D02*
X126117800Y-48724000D01*
X126117800Y-48724000D02*
X127117800Y-48724000D01*
X127117800Y-48724000D02*
X127117800Y-48224000D01*
X123867800Y-62474000D02*
X122867800Y-62474000D01*
X110571800Y-85090000D02*
X110571800Y-88090000D01*
X113811800Y-84090000D02*
X113811800Y-86090000D01*
X111633000Y-93913800D02*
X109683000Y-93913800D01*
X111633000Y-93913800D02*
X113583000Y-93913800D01*
X111633000Y-102783800D02*
X109683000Y-102783800D01*
X111633000Y-102783800D02*
X115083000Y-102783800D01*
X109383000Y-72701200D02*
X103373000Y-72701200D01*
X107133000Y-65881200D02*
X103373000Y-65881200D01*
X103373000Y-72701200D02*
X103373000Y-71441200D01*
X103373000Y-65881200D02*
X103373000Y-67141200D01*
X64767400Y-57560200D02*
X62482400Y-57560200D01*
X64767400Y-59030200D02*
X64767400Y-57560200D01*
X62482400Y-59030200D02*
X64767400Y-59030200D01*
X62482400Y-69915914D02*
X64767400Y-69915914D01*
X64767400Y-69915914D02*
X64767400Y-68445914D01*
X64767400Y-68445914D02*
X62482400Y-68445914D01*
X62482400Y-80801628D02*
X64767400Y-80801628D01*
X64767400Y-80801628D02*
X64767400Y-79331628D01*
X64767400Y-79331628D02*
X62482400Y-79331628D01*
X62482400Y-91687342D02*
X64767400Y-91687342D01*
X64767400Y-91687342D02*
X64767400Y-90217342D01*
X64767400Y-90217342D02*
X62482400Y-90217342D01*
X62482400Y-64475200D02*
X64767400Y-64475200D01*
X64767400Y-64475200D02*
X64767400Y-63005200D01*
X64767400Y-63005200D02*
X62482400Y-63005200D01*
X64767400Y-73890914D02*
X62482400Y-73890914D01*
X64767400Y-75360914D02*
X64767400Y-73890914D01*
X62482400Y-75360914D02*
X64767400Y-75360914D01*
X64767400Y-84776628D02*
X62482400Y-84776628D01*
X64767400Y-86246628D02*
X64767400Y-84776628D01*
X62482400Y-86246628D02*
X64767400Y-86246628D01*
X64767400Y-95662342D02*
X62482400Y-95662342D01*
X64767400Y-97132342D02*
X64767400Y-95662342D01*
X62482400Y-97132342D02*
X64767400Y-97132342D01*
X64767400Y-61190200D02*
X62482400Y-61190200D01*
X64767400Y-62660200D02*
X64767400Y-61190200D01*
X62482400Y-62660200D02*
X64767400Y-62660200D01*
X62482400Y-73545914D02*
X64767400Y-73545914D01*
X64767400Y-73545914D02*
X64767400Y-72075914D01*
X64767400Y-72075914D02*
X62482400Y-72075914D01*
X62482400Y-84431628D02*
X64767400Y-84431628D01*
X64767400Y-84431628D02*
X64767400Y-82961628D01*
X64767400Y-82961628D02*
X62482400Y-82961628D01*
X62482400Y-95317342D02*
X64767400Y-95317342D01*
X64767400Y-95317342D02*
X64767400Y-93847342D01*
X64767400Y-93847342D02*
X62482400Y-93847342D01*
X64767400Y-59375200D02*
X62482400Y-59375200D01*
X64767400Y-60845200D02*
X64767400Y-59375200D01*
X62482400Y-60845200D02*
X64767400Y-60845200D01*
X64767400Y-64820200D02*
X62482400Y-64820200D01*
X64767400Y-66290200D02*
X64767400Y-64820200D01*
X62482400Y-66290200D02*
X64767400Y-66290200D01*
X62482400Y-71730914D02*
X64767400Y-71730914D01*
X64767400Y-71730914D02*
X64767400Y-70260914D01*
X64767400Y-70260914D02*
X62482400Y-70260914D01*
X62482400Y-77175914D02*
X64767400Y-77175914D01*
X64767400Y-77175914D02*
X64767400Y-75705914D01*
X64767400Y-75705914D02*
X62482400Y-75705914D01*
X64767400Y-81146628D02*
X62482400Y-81146628D01*
X64767400Y-82616628D02*
X64767400Y-81146628D01*
X62482400Y-82616628D02*
X64767400Y-82616628D01*
X62482400Y-88061628D02*
X64767400Y-88061628D01*
X64767400Y-88061628D02*
X64767400Y-86591628D01*
X64767400Y-86591628D02*
X62482400Y-86591628D01*
X64767400Y-92032342D02*
X62482400Y-92032342D01*
X64767400Y-93502342D02*
X64767400Y-92032342D01*
X62482400Y-93502342D02*
X64767400Y-93502342D01*
X62482400Y-98947342D02*
X64767400Y-98947342D01*
X64767400Y-98947342D02*
X64767400Y-97477342D01*
X64767400Y-97477342D02*
X62482400Y-97477342D01*
X64767400Y-101103056D02*
X62482400Y-101103056D01*
X64767400Y-102573056D02*
X64767400Y-101103056D01*
X62482400Y-102573056D02*
X64767400Y-102573056D01*
X62482400Y-113458770D02*
X64767400Y-113458770D01*
X64767400Y-113458770D02*
X64767400Y-111988770D01*
X64767400Y-111988770D02*
X62482400Y-111988770D01*
X62482400Y-124344484D02*
X64767400Y-124344484D01*
X64767400Y-124344484D02*
X64767400Y-122874484D01*
X64767400Y-122874484D02*
X62482400Y-122874484D01*
X62482400Y-135230200D02*
X64767400Y-135230200D01*
X64767400Y-135230200D02*
X64767400Y-133760200D01*
X64767400Y-133760200D02*
X62482400Y-133760200D01*
X62482400Y-108018056D02*
X64767400Y-108018056D01*
X64767400Y-108018056D02*
X64767400Y-106548056D01*
X64767400Y-106548056D02*
X62482400Y-106548056D01*
X64767400Y-117433770D02*
X62482400Y-117433770D01*
X64767400Y-118903770D02*
X64767400Y-117433770D01*
X62482400Y-118903770D02*
X64767400Y-118903770D01*
X62482400Y-129789484D02*
X64767400Y-129789484D01*
X64767400Y-129789484D02*
X64767400Y-128319484D01*
X64767400Y-128319484D02*
X62482400Y-128319484D01*
X62482400Y-140675200D02*
X64767400Y-140675200D01*
X64767400Y-140675200D02*
X64767400Y-139205200D01*
X64767400Y-139205200D02*
X62482400Y-139205200D01*
X62482400Y-106203056D02*
X64767400Y-106203056D01*
X64767400Y-106203056D02*
X64767400Y-104733056D01*
X64767400Y-104733056D02*
X62482400Y-104733056D01*
X64767400Y-115618770D02*
X62482400Y-115618770D01*
X64767400Y-117088770D02*
X64767400Y-115618770D01*
X62482400Y-117088770D02*
X64767400Y-117088770D01*
X62482400Y-127974484D02*
X64767400Y-127974484D01*
X64767400Y-127974484D02*
X64767400Y-126504484D01*
X64767400Y-126504484D02*
X62482400Y-126504484D01*
X64767400Y-137390200D02*
X62482400Y-137390200D01*
X64767400Y-138860200D02*
X64767400Y-137390200D01*
X62482400Y-138860200D02*
X64767400Y-138860200D01*
X62482400Y-104388056D02*
X64767400Y-104388056D01*
X64767400Y-104388056D02*
X64767400Y-102918056D01*
X64767400Y-102918056D02*
X62482400Y-102918056D01*
X62482400Y-109833056D02*
X64767400Y-109833056D01*
X64767400Y-109833056D02*
X64767400Y-108363056D01*
X64767400Y-108363056D02*
X62482400Y-108363056D01*
X64767400Y-113803770D02*
X62482400Y-113803770D01*
X64767400Y-115273770D02*
X64767400Y-113803770D01*
X62482400Y-115273770D02*
X64767400Y-115273770D01*
X62482400Y-120718770D02*
X64767400Y-120718770D01*
X64767400Y-120718770D02*
X64767400Y-119248770D01*
X64767400Y-119248770D02*
X62482400Y-119248770D01*
X64767400Y-124689484D02*
X62482400Y-124689484D01*
X64767400Y-126159484D02*
X64767400Y-124689484D01*
X62482400Y-126159484D02*
X64767400Y-126159484D01*
X64767400Y-130134484D02*
X62482400Y-130134484D01*
X64767400Y-131604484D02*
X64767400Y-130134484D01*
X62482400Y-131604484D02*
X64767400Y-131604484D01*
X62482400Y-137045200D02*
X64767400Y-137045200D01*
X64767400Y-137045200D02*
X64767400Y-135575200D01*
X64767400Y-135575200D02*
X62482400Y-135575200D01*
X62482400Y-142490200D02*
X64767400Y-142490200D01*
X64767400Y-142490200D02*
X64767400Y-141020200D01*
X64767400Y-141020200D02*
X62482400Y-141020200D01*
X70477600Y-137521400D02*
X70477600Y-135236400D01*
X70477600Y-135236400D02*
X69007600Y-135236400D01*
X69007600Y-135236400D02*
X69007600Y-137521400D01*
X83777600Y-137521400D02*
X83777600Y-135236400D01*
X83777600Y-135236400D02*
X82307600Y-135236400D01*
X82307600Y-135236400D02*
X82307600Y-137521400D01*
X97147600Y-137521400D02*
X97147600Y-135236400D01*
X97147600Y-135236400D02*
X95677600Y-135236400D01*
X95677600Y-135236400D02*
X95677600Y-137521400D01*
X109157600Y-135236400D02*
X109157600Y-137521400D01*
X110627600Y-135236400D02*
X109157600Y-135236400D01*
X110627600Y-137521400D02*
X110627600Y-135236400D01*
X74452600Y-135236400D02*
X74452600Y-137521400D01*
X75922600Y-135236400D02*
X74452600Y-135236400D01*
X75922600Y-137521400D02*
X75922600Y-135236400D01*
X89222600Y-137521400D02*
X89222600Y-135236400D01*
X89222600Y-135236400D02*
X87752600Y-135236400D01*
X87752600Y-135236400D02*
X87752600Y-137521400D01*
X102592600Y-137521400D02*
X102592600Y-135236400D01*
X102592600Y-135236400D02*
X101122600Y-135236400D01*
X101122600Y-135236400D02*
X101122600Y-137521400D01*
X116072600Y-137521400D02*
X116072600Y-135236400D01*
X116072600Y-135236400D02*
X114602600Y-135236400D01*
X114602600Y-135236400D02*
X114602600Y-137521400D01*
X72637600Y-135236400D02*
X72637600Y-137521400D01*
X74107600Y-135236400D02*
X72637600Y-135236400D01*
X74107600Y-137521400D02*
X74107600Y-135236400D01*
X85937600Y-135236400D02*
X85937600Y-137521400D01*
X87407600Y-135236400D02*
X85937600Y-135236400D01*
X87407600Y-137521400D02*
X87407600Y-135236400D01*
X99307600Y-135236400D02*
X99307600Y-137521400D01*
X100777600Y-135236400D02*
X99307600Y-135236400D01*
X100777600Y-137521400D02*
X100777600Y-135236400D01*
X112787600Y-135236400D02*
X112787600Y-137521400D01*
X114257600Y-135236400D02*
X112787600Y-135236400D01*
X114257600Y-137521400D02*
X114257600Y-135236400D01*
X70822600Y-135236400D02*
X70822600Y-137521400D01*
X72292600Y-135236400D02*
X70822600Y-135236400D01*
X72292600Y-137521400D02*
X72292600Y-135236400D01*
X77737600Y-137521400D02*
X77737600Y-135236400D01*
X77737600Y-135236400D02*
X76267600Y-135236400D01*
X76267600Y-135236400D02*
X76267600Y-137521400D01*
X85592600Y-137521400D02*
X85592600Y-135236400D01*
X85592600Y-135236400D02*
X84122600Y-135236400D01*
X84122600Y-135236400D02*
X84122600Y-137521400D01*
X91037600Y-137521400D02*
X91037600Y-135236400D01*
X91037600Y-135236400D02*
X89567600Y-135236400D01*
X89567600Y-135236400D02*
X89567600Y-137521400D01*
X97492600Y-135236400D02*
X97492600Y-137521400D01*
X98962600Y-135236400D02*
X97492600Y-135236400D01*
X98962600Y-137521400D02*
X98962600Y-135236400D01*
X102937600Y-135236400D02*
X102937600Y-137521400D01*
X104407600Y-135236400D02*
X102937600Y-135236400D01*
X104407600Y-137521400D02*
X104407600Y-135236400D01*
X110972600Y-135236400D02*
X110972600Y-137521400D01*
X112442600Y-135236400D02*
X110972600Y-135236400D01*
X112442600Y-137521400D02*
X112442600Y-135236400D01*
X116417600Y-135236400D02*
X116417600Y-137521400D01*
X117887600Y-135236400D02*
X116417600Y-135236400D01*
X117887600Y-137521400D02*
X117887600Y-135236400D01*
X123877600Y-137521400D02*
X123877600Y-135236400D01*
X123877600Y-135236400D02*
X122407600Y-135236400D01*
X122407600Y-135236400D02*
X122407600Y-137521400D01*
X135215000Y-142490200D02*
X137500000Y-142490200D01*
X135215000Y-141020200D02*
X135215000Y-142490200D01*
X137500000Y-141020200D02*
X135215000Y-141020200D01*
X135215000Y-131604484D02*
X137500000Y-131604484D01*
X135215000Y-130134484D02*
X135215000Y-131604484D01*
X137500000Y-130134484D02*
X135215000Y-130134484D01*
X129322600Y-137521400D02*
X129322600Y-135236400D01*
X129322600Y-135236400D02*
X127852600Y-135236400D01*
X127852600Y-135236400D02*
X127852600Y-137521400D01*
X135215000Y-137045200D02*
X137500000Y-137045200D01*
X135215000Y-135575200D02*
X135215000Y-137045200D01*
X137500000Y-135575200D02*
X135215000Y-135575200D01*
X135215000Y-126159484D02*
X137500000Y-126159484D01*
X135215000Y-124689484D02*
X135215000Y-126159484D01*
X137500000Y-124689484D02*
X135215000Y-124689484D01*
X127507600Y-137521400D02*
X127507600Y-135236400D01*
X127507600Y-135236400D02*
X126037600Y-135236400D01*
X126037600Y-135236400D02*
X126037600Y-137521400D01*
X135215000Y-138860200D02*
X137500000Y-138860200D01*
X135215000Y-137390200D02*
X135215000Y-138860200D01*
X137500000Y-137390200D02*
X135215000Y-137390200D01*
X135215000Y-127974484D02*
X137500000Y-127974484D01*
X135215000Y-126504484D02*
X135215000Y-127974484D01*
X137500000Y-126504484D02*
X135215000Y-126504484D01*
X124222600Y-135236400D02*
X124222600Y-137521400D01*
X125692600Y-135236400D02*
X124222600Y-135236400D01*
X125692600Y-137521400D02*
X125692600Y-135236400D01*
X129667600Y-135236400D02*
X129667600Y-137521400D01*
X131137600Y-135236400D02*
X129667600Y-135236400D01*
X131137600Y-137521400D02*
X131137600Y-135236400D01*
X137500000Y-139205200D02*
X135215000Y-139205200D01*
X135215000Y-139205200D02*
X135215000Y-140675200D01*
X135215000Y-140675200D02*
X137500000Y-140675200D01*
X137500000Y-133760200D02*
X135215000Y-133760200D01*
X135215000Y-133760200D02*
X135215000Y-135230200D01*
X135215000Y-135230200D02*
X137500000Y-135230200D01*
X137500000Y-128319484D02*
X135215000Y-128319484D01*
X135215000Y-128319484D02*
X135215000Y-129789484D01*
X135215000Y-129789484D02*
X137500000Y-129789484D01*
X137500000Y-122874484D02*
X135215000Y-122874484D01*
X135215000Y-122874484D02*
X135215000Y-124344484D01*
X135215000Y-124344484D02*
X137500000Y-124344484D01*
X137500000Y-119248770D02*
X135215000Y-119248770D01*
X135215000Y-119248770D02*
X135215000Y-120718770D01*
X135215000Y-120718770D02*
X137500000Y-120718770D01*
X137500000Y-108683057D02*
X135215000Y-108683057D01*
X135215000Y-108683057D02*
X135215000Y-110153057D01*
X135215000Y-110153057D02*
X137500000Y-110153057D01*
X137500000Y-97477342D02*
X135215000Y-97477342D01*
X135215000Y-97477342D02*
X135215000Y-98947342D01*
X135215000Y-98947342D02*
X137500000Y-98947342D01*
X137500000Y-86591628D02*
X135215000Y-86591628D01*
X135215000Y-86591628D02*
X135215000Y-88061628D01*
X135215000Y-88061628D02*
X137500000Y-88061628D01*
X137500000Y-113803770D02*
X135215000Y-113803770D01*
X135215000Y-113803770D02*
X135215000Y-115273770D01*
X135215000Y-115273770D02*
X137500000Y-115273770D01*
X137500000Y-102998056D02*
X135215000Y-102998056D01*
X135215000Y-102998056D02*
X135215000Y-104468056D01*
X135215000Y-104468056D02*
X137500000Y-104468056D01*
X135215000Y-93502342D02*
X137500000Y-93502342D01*
X135215000Y-92032342D02*
X135215000Y-93502342D01*
X137500000Y-92032342D02*
X135215000Y-92032342D01*
X135215000Y-82616628D02*
X137500000Y-82616628D01*
X135215000Y-81146628D02*
X135215000Y-82616628D01*
X137500000Y-81146628D02*
X135215000Y-81146628D01*
X137500000Y-115618770D02*
X135215000Y-115618770D01*
X135215000Y-115618770D02*
X135215000Y-117088770D01*
X135215000Y-117088770D02*
X137500000Y-117088770D01*
X137500000Y-104893056D02*
X135215000Y-104893056D01*
X135215000Y-104893056D02*
X135215000Y-106363056D01*
X135215000Y-106363056D02*
X137500000Y-106363056D01*
X137500000Y-93847342D02*
X135215000Y-93847342D01*
X135215000Y-93847342D02*
X135215000Y-95317342D01*
X135215000Y-95317342D02*
X137500000Y-95317342D01*
X135215000Y-84431628D02*
X137500000Y-84431628D01*
X135215000Y-82961628D02*
X135215000Y-84431628D01*
X137500000Y-82961628D02*
X135215000Y-82961628D01*
X137500000Y-117433770D02*
X135215000Y-117433770D01*
X135215000Y-117433770D02*
X135215000Y-118903770D01*
X135215000Y-118903770D02*
X137500000Y-118903770D01*
X137500000Y-111988770D02*
X135215000Y-111988770D01*
X135215000Y-111988770D02*
X135215000Y-113458770D01*
X135215000Y-113458770D02*
X137500000Y-113458770D01*
X135215000Y-108258056D02*
X137500000Y-108258056D01*
X135215000Y-106788056D02*
X135215000Y-108258056D01*
X137500000Y-106788056D02*
X135215000Y-106788056D01*
X135215000Y-102573056D02*
X137500000Y-102573056D01*
X135215000Y-101103056D02*
X135215000Y-102573056D01*
X137500000Y-101103056D02*
X135215000Y-101103056D01*
X135215000Y-97132342D02*
X137500000Y-97132342D01*
X135215000Y-95662342D02*
X135215000Y-97132342D01*
X137500000Y-95662342D02*
X135215000Y-95662342D01*
X135215000Y-91687342D02*
X137500000Y-91687342D01*
X135215000Y-90217342D02*
X135215000Y-91687342D01*
X137500000Y-90217342D02*
X135215000Y-90217342D01*
X137500000Y-84776628D02*
X135215000Y-84776628D01*
X135215000Y-84776628D02*
X135215000Y-86246628D01*
X135215000Y-86246628D02*
X137500000Y-86246628D01*
X137500000Y-79331628D02*
X135215000Y-79331628D01*
X135215000Y-79331628D02*
X135215000Y-80801628D01*
X135215000Y-80801628D02*
X137500000Y-80801628D01*
X135215000Y-77175914D02*
X137500000Y-77175914D01*
X135215000Y-75705914D02*
X135215000Y-77175914D01*
X137500000Y-75705914D02*
X135215000Y-75705914D01*
X135215000Y-66290200D02*
X137500000Y-66290200D01*
X135215000Y-64820200D02*
X135215000Y-66290200D01*
X137500000Y-64820200D02*
X135215000Y-64820200D01*
X137500000Y-70260914D02*
X135215000Y-70260914D01*
X135215000Y-70260914D02*
X135215000Y-71730914D01*
X135215000Y-71730914D02*
X137500000Y-71730914D01*
X135215000Y-60845200D02*
X137500000Y-60845200D01*
X135215000Y-59375200D02*
X135215000Y-60845200D01*
X137500000Y-59375200D02*
X135215000Y-59375200D01*
X135215000Y-73545914D02*
X137500000Y-73545914D01*
X135215000Y-72075914D02*
X135215000Y-73545914D01*
X137500000Y-72075914D02*
X135215000Y-72075914D01*
X137500000Y-61190200D02*
X135215000Y-61190200D01*
X135215000Y-61190200D02*
X135215000Y-62660200D01*
X135215000Y-62660200D02*
X137500000Y-62660200D01*
X137500000Y-73890914D02*
X135215000Y-73890914D01*
X135215000Y-73890914D02*
X135215000Y-75360914D01*
X135215000Y-75360914D02*
X137500000Y-75360914D01*
X135215000Y-69915914D02*
X137500000Y-69915914D01*
X135215000Y-68445914D02*
X135215000Y-69915914D01*
X137500000Y-68445914D02*
X135215000Y-68445914D01*
X135215000Y-64475200D02*
X137500000Y-64475200D01*
X135215000Y-63005200D02*
X135215000Y-64475200D01*
X137500000Y-63005200D02*
X135215000Y-63005200D01*
X137500000Y-57560200D02*
X135215000Y-57560200D01*
X135215000Y-57560200D02*
X135215000Y-59030200D01*
X135215000Y-59030200D02*
X137500000Y-59030200D01*
X97636000Y-104812200D02*
X97636000Y-102527200D01*
X96166000Y-104812200D02*
X97636000Y-104812200D01*
X96166000Y-102527200D02*
X96166000Y-104812200D01*
X98142000Y-63168800D02*
X98142000Y-59868800D01*
X98142000Y-59868800D02*
X92742000Y-59868800D01*
X98142000Y-63168800D02*
X92742000Y-63168800D01*
X54478500Y-58025200D02*
X54478500Y-58475200D01*
X52628500Y-58025200D02*
X54478500Y-58025200D01*
X50078500Y-65825200D02*
X50328500Y-65825200D01*
X50078500Y-58025200D02*
X50328500Y-58025200D01*
X52628500Y-65825200D02*
X54478500Y-65825200D01*
X54478500Y-65825200D02*
X54478500Y-65375200D01*
X55028500Y-60225200D02*
X55028500Y-60675200D01*
X55028500Y-60225200D02*
X54578500Y-60225200D01*
X55028500Y-71110914D02*
X54578500Y-71110914D01*
X55028500Y-71110914D02*
X55028500Y-71560914D01*
X54478500Y-76710914D02*
X54478500Y-76260914D01*
X52628500Y-76710914D02*
X54478500Y-76710914D01*
X50078500Y-68910914D02*
X50328500Y-68910914D01*
X50078500Y-76710914D02*
X50328500Y-76710914D01*
X52628500Y-68910914D02*
X54478500Y-68910914D01*
X54478500Y-68910914D02*
X54478500Y-69360914D01*
X55028500Y-81996628D02*
X54578500Y-81996628D01*
X55028500Y-81996628D02*
X55028500Y-82446628D01*
X54478500Y-87596628D02*
X54478500Y-87146628D01*
X52628500Y-87596628D02*
X54478500Y-87596628D01*
X50078500Y-79796628D02*
X50328500Y-79796628D01*
X50078500Y-87596628D02*
X50328500Y-87596628D01*
X52628500Y-79796628D02*
X54478500Y-79796628D01*
X54478500Y-79796628D02*
X54478500Y-80246628D01*
X55028500Y-92882342D02*
X54578500Y-92882342D01*
X55028500Y-92882342D02*
X55028500Y-93332342D01*
X54478500Y-98482342D02*
X54478500Y-98032342D01*
X52628500Y-98482342D02*
X54478500Y-98482342D01*
X50078500Y-90682342D02*
X50328500Y-90682342D01*
X50078500Y-98482342D02*
X50328500Y-98482342D01*
X52628500Y-90682342D02*
X54478500Y-90682342D01*
X54478500Y-90682342D02*
X54478500Y-91132342D01*
X55028500Y-103768056D02*
X54578500Y-103768056D01*
X55028500Y-103768056D02*
X55028500Y-104218056D01*
X54478500Y-109368056D02*
X54478500Y-108918056D01*
X52628500Y-109368056D02*
X54478500Y-109368056D01*
X50078500Y-101568056D02*
X50328500Y-101568056D01*
X50078500Y-109368056D02*
X50328500Y-109368056D01*
X52628500Y-101568056D02*
X54478500Y-101568056D01*
X54478500Y-101568056D02*
X54478500Y-102018056D01*
X55028500Y-114653770D02*
X54578500Y-114653770D01*
X55028500Y-114653770D02*
X55028500Y-115103770D01*
X54478500Y-120253770D02*
X54478500Y-119803770D01*
X52628500Y-120253770D02*
X54478500Y-120253770D01*
X50078500Y-112453770D02*
X50328500Y-112453770D01*
X50078500Y-120253770D02*
X50328500Y-120253770D01*
X52628500Y-112453770D02*
X54478500Y-112453770D01*
X54478500Y-112453770D02*
X54478500Y-112903770D01*
X54478500Y-123339484D02*
X54478500Y-123789484D01*
X52628500Y-123339484D02*
X54478500Y-123339484D01*
X50078500Y-131139484D02*
X50328500Y-131139484D01*
X50078500Y-123339484D02*
X50328500Y-123339484D01*
X52628500Y-131139484D02*
X54478500Y-131139484D01*
X54478500Y-131139484D02*
X54478500Y-130689484D01*
X55028500Y-125539484D02*
X55028500Y-125989484D01*
X55028500Y-125539484D02*
X54578500Y-125539484D01*
X55028500Y-136425200D02*
X54578500Y-136425200D01*
X55028500Y-136425200D02*
X55028500Y-136875200D01*
X54478500Y-142025200D02*
X54478500Y-141575200D01*
X52628500Y-142025200D02*
X54478500Y-142025200D01*
X50078500Y-134225200D02*
X50328500Y-134225200D01*
X50078500Y-142025200D02*
X50328500Y-142025200D01*
X52628500Y-134225200D02*
X54478500Y-134225200D01*
X54478500Y-134225200D02*
X54478500Y-134675200D01*
X69472600Y-145578900D02*
X69922600Y-145578900D01*
X69472600Y-147428900D02*
X69472600Y-145578900D01*
X77272600Y-149978900D02*
X77272600Y-149728900D01*
X69472600Y-149978900D02*
X69472600Y-149728900D01*
X77272600Y-147428900D02*
X77272600Y-145578900D01*
X77272600Y-145578900D02*
X76822600Y-145578900D01*
X71672600Y-145028900D02*
X72122600Y-145028900D01*
X71672600Y-145028900D02*
X71672600Y-145478900D01*
X82772600Y-145578900D02*
X83222600Y-145578900D01*
X82772600Y-147428900D02*
X82772600Y-145578900D01*
X90572600Y-149978900D02*
X90572600Y-149728900D01*
X82772600Y-149978900D02*
X82772600Y-149728900D01*
X90572600Y-147428900D02*
X90572600Y-145578900D01*
X90572600Y-145578900D02*
X90122600Y-145578900D01*
X84972600Y-145028900D02*
X85422600Y-145028900D01*
X84972600Y-145028900D02*
X84972600Y-145478900D01*
X96142600Y-145578900D02*
X96592600Y-145578900D01*
X96142600Y-147428900D02*
X96142600Y-145578900D01*
X103942600Y-149978900D02*
X103942600Y-149728900D01*
X96142600Y-149978900D02*
X96142600Y-149728900D01*
X103942600Y-147428900D02*
X103942600Y-145578900D01*
X103942600Y-145578900D02*
X103492600Y-145578900D01*
X98342600Y-145028900D02*
X98792600Y-145028900D01*
X98342600Y-145028900D02*
X98342600Y-145478900D01*
X109622600Y-145578900D02*
X110072600Y-145578900D01*
X109622600Y-147428900D02*
X109622600Y-145578900D01*
X117422600Y-149978900D02*
X117422600Y-149728900D01*
X109622600Y-149978900D02*
X109622600Y-149728900D01*
X117422600Y-147428900D02*
X117422600Y-145578900D01*
X117422600Y-145578900D02*
X116972600Y-145578900D01*
X111822600Y-145028900D02*
X112272600Y-145028900D01*
X111822600Y-145028900D02*
X111822600Y-145478900D01*
X122872600Y-145578900D02*
X123322600Y-145578900D01*
X122872600Y-147428900D02*
X122872600Y-145578900D01*
X130672600Y-149978900D02*
X130672600Y-149728900D01*
X122872600Y-149978900D02*
X122872600Y-149728900D01*
X130672600Y-147428900D02*
X130672600Y-145578900D01*
X130672600Y-145578900D02*
X130222600Y-145578900D01*
X125072600Y-145028900D02*
X125522600Y-145028900D01*
X125072600Y-145028900D02*
X125072600Y-145478900D01*
X145597100Y-142025200D02*
X145597100Y-141575200D01*
X147447100Y-142025200D02*
X145597100Y-142025200D01*
X149997100Y-134225200D02*
X149747100Y-134225200D01*
X149997100Y-142025200D02*
X149747100Y-142025200D01*
X147447100Y-134225200D02*
X145597100Y-134225200D01*
X145597100Y-134225200D02*
X145597100Y-134675200D01*
X145047100Y-139825200D02*
X145047100Y-139375200D01*
X145047100Y-139825200D02*
X145497100Y-139825200D01*
X145557500Y-131139484D02*
X145557500Y-130689484D01*
X147407500Y-131139484D02*
X145557500Y-131139484D01*
X149957500Y-123339484D02*
X149707500Y-123339484D01*
X149957500Y-131139484D02*
X149707500Y-131139484D01*
X147407500Y-123339484D02*
X145557500Y-123339484D01*
X145557500Y-123339484D02*
X145557500Y-123789484D01*
X145007500Y-128939484D02*
X145007500Y-128489484D01*
X145007500Y-128939484D02*
X145457500Y-128939484D01*
X145047100Y-118053770D02*
X145497100Y-118053770D01*
X145047100Y-118053770D02*
X145047100Y-117603770D01*
X145597100Y-112453770D02*
X145597100Y-112903770D01*
X147447100Y-112453770D02*
X145597100Y-112453770D01*
X149997100Y-120253770D02*
X149747100Y-120253770D01*
X149997100Y-112453770D02*
X149747100Y-112453770D01*
X147447100Y-120253770D02*
X145597100Y-120253770D01*
X145597100Y-120253770D02*
X145597100Y-119803770D01*
X145597100Y-109368056D02*
X145597100Y-108918056D01*
X147447100Y-109368056D02*
X145597100Y-109368056D01*
X149997100Y-101568056D02*
X149747100Y-101568056D01*
X149997100Y-109368056D02*
X149747100Y-109368056D01*
X147447100Y-101568056D02*
X145597100Y-101568056D01*
X145597100Y-101568056D02*
X145597100Y-102018056D01*
X145047100Y-107168056D02*
X145047100Y-106718056D01*
X145047100Y-107168056D02*
X145497100Y-107168056D01*
X145007500Y-96282342D02*
X145457500Y-96282342D01*
X145007500Y-96282342D02*
X145007500Y-95832342D01*
X145557500Y-90682342D02*
X145557500Y-91132342D01*
X147407500Y-90682342D02*
X145557500Y-90682342D01*
X149957500Y-98482342D02*
X149707500Y-98482342D01*
X149957500Y-90682342D02*
X149707500Y-90682342D01*
X147407500Y-98482342D02*
X145557500Y-98482342D01*
X145557500Y-98482342D02*
X145557500Y-98032342D01*
X145007500Y-85396628D02*
X145457500Y-85396628D01*
X145007500Y-85396628D02*
X145007500Y-84946628D01*
X145557500Y-79796628D02*
X145557500Y-80246628D01*
X147407500Y-79796628D02*
X145557500Y-79796628D01*
X149957500Y-87596628D02*
X149707500Y-87596628D01*
X149957500Y-79796628D02*
X149707500Y-79796628D01*
X147407500Y-87596628D02*
X145557500Y-87596628D01*
X145557500Y-87596628D02*
X145557500Y-87146628D01*
X145557500Y-76710914D02*
X145557500Y-76260914D01*
X147407500Y-76710914D02*
X145557500Y-76710914D01*
X149957500Y-68910914D02*
X149707500Y-68910914D01*
X149957500Y-76710914D02*
X149707500Y-76710914D01*
X147407500Y-68910914D02*
X145557500Y-68910914D01*
X145557500Y-68910914D02*
X145557500Y-69360914D01*
X145007500Y-74510914D02*
X145007500Y-74060914D01*
X145007500Y-74510914D02*
X145457500Y-74510914D01*
X145047100Y-63625200D02*
X145497100Y-63625200D01*
X145047100Y-63625200D02*
X145047100Y-63175200D01*
X145597100Y-58025200D02*
X145597100Y-58475200D01*
X147447100Y-58025200D02*
X145597100Y-58025200D01*
X149997100Y-65825200D02*
X149747100Y-65825200D01*
X149997100Y-58025200D02*
X149747100Y-58025200D01*
X147447100Y-65825200D02*
X145597100Y-65825200D01*
X145597100Y-65825200D02*
X145597100Y-65375200D01*
X96492800Y-54941300D02*
X96492800Y-54491300D01*
X96492800Y-54941300D02*
X96042800Y-54941300D01*
X90892800Y-54391300D02*
X91342800Y-54391300D01*
X90892800Y-52541300D02*
X90892800Y-54391300D01*
X98692800Y-49991300D02*
X98692800Y-50241300D01*
X90892800Y-49991300D02*
X90892800Y-50241300D01*
X98692800Y-52541300D02*
X98692800Y-54391300D01*
X98692800Y-54391300D02*
X98242800Y-54391300D01*
D13*
X103572000Y-61542800D02*
X103572000Y-61192800D01*
X103572000Y-61542800D02*
X104072000Y-61542800D01*
X103572000Y-51842800D02*
X103572000Y-52192800D01*
X103572000Y-51842800D02*
X104072000Y-51842800D01*
X108772000Y-51842800D02*
X108272000Y-51842800D01*
X108772000Y-51842800D02*
X108772000Y-52192800D01*
X108772000Y-61542800D02*
X108772000Y-61192800D01*
X108772000Y-61542800D02*
X108272000Y-61542800D01*
D11*
X60592800Y-65325200D02*
G75*
G03X60592800Y-65325200I-700000J0D01*
G01*
X60592800Y-76210914D02*
G75*
G03X60592800Y-76210914I-700000J0D01*
G01*
X60592800Y-87096628D02*
G75*
G03X60592800Y-87096628I-700000J0D01*
G01*
X60592800Y-97982342D02*
G75*
G03X60592800Y-97982342I-700000J0D01*
G01*
X57683200Y-58525200D02*
G75*
G03X57683200Y-58525200I-700000J0D01*
G01*
X66936800Y-64235199D02*
G75*
G03X66936800Y-64235199I-700000J0D01*
G01*
X57683200Y-69410914D02*
G75*
G03X57683200Y-69410914I-700000J0D01*
G01*
X66936800Y-75120913D02*
G75*
G03X66936800Y-75120913I-700000J0D01*
G01*
X57683200Y-80296628D02*
G75*
G03X57683200Y-80296628I-700000J0D01*
G01*
X66936800Y-86006627D02*
G75*
G03X66936800Y-86006627I-700000J0D01*
G01*
X57683200Y-91182342D02*
G75*
G03X57683200Y-91182342I-700000J0D01*
G01*
X66936800Y-96892341D02*
G75*
G03X66936800Y-96892341I-700000J0D01*
G01*
X57683200Y-63965200D02*
G75*
G03X57683200Y-63965200I-700000J0D01*
G01*
X57683200Y-74850914D02*
G75*
G03X57683200Y-74850914I-700000J0D01*
G01*
X57683200Y-85736628D02*
G75*
G03X57683200Y-85736628I-700000J0D01*
G01*
X57683200Y-96622342D02*
G75*
G03X57683200Y-96622342I-700000J0D01*
G01*
X57683200Y-61245200D02*
G75*
G03X57683200Y-61245200I-700000J0D01*
G01*
X57683200Y-72130914D02*
G75*
G03X57683200Y-72130914I-700000J0D01*
G01*
X57683200Y-83016628D02*
G75*
G03X57683200Y-83016628I-700000J0D01*
G01*
X57683200Y-93902342D02*
G75*
G03X57683200Y-93902342I-700000J0D01*
G01*
X60592800Y-59885200D02*
G75*
G03X60592800Y-59885200I-700000J0D01*
G01*
X60592800Y-70770914D02*
G75*
G03X60592800Y-70770914I-700000J0D01*
G01*
X60592800Y-81656628D02*
G75*
G03X60592800Y-81656628I-700000J0D01*
G01*
X60592800Y-92542342D02*
G75*
G03X60592800Y-92542342I-700000J0D01*
G01*
X60592800Y-108868056D02*
G75*
G03X60592800Y-108868056I-700000J0D01*
G01*
X60592800Y-119753770D02*
G75*
G03X60592800Y-119753770I-700000J0D01*
G01*
X60592800Y-130639484D02*
G75*
G03X60592800Y-130639484I-700000J0D01*
G01*
X60592800Y-141525200D02*
G75*
G03X60592800Y-141525200I-700000J0D01*
G01*
X57683200Y-102068056D02*
G75*
G03X57683200Y-102068056I-700000J0D01*
G01*
X66936800Y-107778055D02*
G75*
G03X66936800Y-107778055I-700000J0D01*
G01*
X57683200Y-112953770D02*
G75*
G03X57683200Y-112953770I-700000J0D01*
G01*
X66936800Y-118663769D02*
G75*
G03X66936800Y-118663769I-700000J0D01*
G01*
X57683200Y-123839484D02*
G75*
G03X57683200Y-123839484I-700000J0D01*
G01*
X66936800Y-129549483D02*
G75*
G03X66936800Y-129549483I-700000J0D01*
G01*
X57683200Y-134725200D02*
G75*
G03X57683200Y-134725200I-700000J0D01*
G01*
X66936800Y-140435199D02*
G75*
G03X66936800Y-140435199I-700000J0D01*
G01*
X57683200Y-107508056D02*
G75*
G03X57683200Y-107508056I-700000J0D01*
G01*
X57683200Y-118393770D02*
G75*
G03X57683200Y-118393770I-700000J0D01*
G01*
X57683200Y-129279484D02*
G75*
G03X57683200Y-129279484I-700000J0D01*
G01*
X57683200Y-140165200D02*
G75*
G03X57683200Y-140165200I-700000J0D01*
G01*
X57683200Y-104788056D02*
G75*
G03X57683200Y-104788056I-700000J0D01*
G01*
X57683200Y-115673770D02*
G75*
G03X57683200Y-115673770I-700000J0D01*
G01*
X57683200Y-126559484D02*
G75*
G03X57683200Y-126559484I-700000J0D01*
G01*
X57683200Y-137445200D02*
G75*
G03X57683200Y-137445200I-700000J0D01*
G01*
X60592800Y-103428056D02*
G75*
G03X60592800Y-103428056I-700000J0D01*
G01*
X60592800Y-114313770D02*
G75*
G03X60592800Y-114313770I-700000J0D01*
G01*
X60592800Y-125199484D02*
G75*
G03X60592800Y-125199484I-700000J0D01*
G01*
X60592800Y-136085200D02*
G75*
G03X60592800Y-136085200I-700000J0D01*
G01*
X77472600Y-140121400D02*
G75*
G03X77472600Y-140121400I-700000J0D01*
G01*
X90772600Y-140121400D02*
G75*
G03X90772600Y-140121400I-700000J0D01*
G01*
X104142600Y-140121400D02*
G75*
G03X104142600Y-140121400I-700000J0D01*
G01*
X117622600Y-140121400D02*
G75*
G03X117622600Y-140121400I-700000J0D01*
G01*
X70672600Y-143021400D02*
G75*
G03X70672600Y-143021400I-700000J0D01*
G01*
X76382599Y-133762800D02*
G75*
G03X76382599Y-133762800I-700000J0D01*
G01*
X83972600Y-143021400D02*
G75*
G03X83972600Y-143021400I-700000J0D01*
G01*
X89682599Y-133762800D02*
G75*
G03X89682599Y-133762800I-700000J0D01*
G01*
X97342600Y-143021400D02*
G75*
G03X97342600Y-143021400I-700000J0D01*
G01*
X103052599Y-133762800D02*
G75*
G03X103052599Y-133762800I-700000J0D01*
G01*
X110822600Y-143021400D02*
G75*
G03X110822600Y-143021400I-700000J0D01*
G01*
X116532599Y-133762800D02*
G75*
G03X116532599Y-133762800I-700000J0D01*
G01*
X76112600Y-143021400D02*
G75*
G03X76112600Y-143021400I-700000J0D01*
G01*
X89412600Y-143021400D02*
G75*
G03X89412600Y-143021400I-700000J0D01*
G01*
X102782600Y-143021400D02*
G75*
G03X102782600Y-143021400I-700000J0D01*
G01*
X116262600Y-143021400D02*
G75*
G03X116262600Y-143021400I-700000J0D01*
G01*
X73392600Y-143021400D02*
G75*
G03X73392600Y-143021400I-700000J0D01*
G01*
X86692600Y-143021400D02*
G75*
G03X86692600Y-143021400I-700000J0D01*
G01*
X100062600Y-143021400D02*
G75*
G03X100062600Y-143021400I-700000J0D01*
G01*
X113542600Y-143021400D02*
G75*
G03X113542600Y-143021400I-700000J0D01*
G01*
X72032600Y-140121400D02*
G75*
G03X72032600Y-140121400I-700000J0D01*
G01*
X85332600Y-140121400D02*
G75*
G03X85332600Y-140121400I-700000J0D01*
G01*
X98702600Y-140121400D02*
G75*
G03X98702600Y-140121400I-700000J0D01*
G01*
X112182600Y-140121400D02*
G75*
G03X112182600Y-140121400I-700000J0D01*
G01*
X130872600Y-140121400D02*
G75*
G03X130872600Y-140121400I-700000J0D01*
G01*
X140800000Y-134725200D02*
G75*
G03X140800000Y-134725200I-700000J0D01*
G01*
X140800000Y-123839484D02*
G75*
G03X140800000Y-123839484I-700000J0D01*
G01*
X124072600Y-143021400D02*
G75*
G03X124072600Y-143021400I-700000J0D01*
G01*
X129782599Y-133762800D02*
G75*
G03X129782599Y-133762800I-700000J0D01*
G01*
X143700000Y-141525200D02*
G75*
G03X143700000Y-141525200I-700000J0D01*
G01*
X134456400Y-135815199D02*
G75*
G03X134456400Y-135815199I-700000J0D01*
G01*
X143700000Y-130639484D02*
G75*
G03X143700000Y-130639484I-700000J0D01*
G01*
X134456400Y-124929483D02*
G75*
G03X134456400Y-124929483I-700000J0D01*
G01*
X129512600Y-143021400D02*
G75*
G03X129512600Y-143021400I-700000J0D01*
G01*
X143700000Y-136085200D02*
G75*
G03X143700000Y-136085200I-700000J0D01*
G01*
X143700000Y-125199484D02*
G75*
G03X143700000Y-125199484I-700000J0D01*
G01*
X126792600Y-143021400D02*
G75*
G03X126792600Y-143021400I-700000J0D01*
G01*
X143700000Y-138805200D02*
G75*
G03X143700000Y-138805200I-700000J0D01*
G01*
X143700000Y-127919484D02*
G75*
G03X143700000Y-127919484I-700000J0D01*
G01*
X125432600Y-140121400D02*
G75*
G03X125432600Y-140121400I-700000J0D01*
G01*
X140800000Y-140165200D02*
G75*
G03X140800000Y-140165200I-700000J0D01*
G01*
X140800000Y-129279484D02*
G75*
G03X140800000Y-129279484I-700000J0D01*
G01*
X140800000Y-112953770D02*
G75*
G03X140800000Y-112953770I-700000J0D01*
G01*
X140800000Y-102068056D02*
G75*
G03X140800000Y-102068056I-700000J0D01*
G01*
X140800000Y-91182342D02*
G75*
G03X140800000Y-91182342I-700000J0D01*
G01*
X140800000Y-80296628D02*
G75*
G03X140800000Y-80296628I-700000J0D01*
G01*
X143700000Y-119753770D02*
G75*
G03X143700000Y-119753770I-700000J0D01*
G01*
X134456400Y-114043769D02*
G75*
G03X134456400Y-114043769I-700000J0D01*
G01*
X143700000Y-108868056D02*
G75*
G03X143700000Y-108868056I-700000J0D01*
G01*
X134456400Y-103238055D02*
G75*
G03X134456400Y-103238055I-700000J0D01*
G01*
X143700000Y-97982342D02*
G75*
G03X143700000Y-97982342I-700000J0D01*
G01*
X134456400Y-92272341D02*
G75*
G03X134456400Y-92272341I-700000J0D01*
G01*
X143700000Y-87096628D02*
G75*
G03X143700000Y-87096628I-700000J0D01*
G01*
X134456400Y-81386627D02*
G75*
G03X134456400Y-81386627I-700000J0D01*
G01*
X143700000Y-114313770D02*
G75*
G03X143700000Y-114313770I-700000J0D01*
G01*
X143700000Y-103428056D02*
G75*
G03X143700000Y-103428056I-700000J0D01*
G01*
X143700000Y-92542342D02*
G75*
G03X143700000Y-92542342I-700000J0D01*
G01*
X143700000Y-81656628D02*
G75*
G03X143700000Y-81656628I-700000J0D01*
G01*
X143700000Y-117033770D02*
G75*
G03X143700000Y-117033770I-700000J0D01*
G01*
X143700000Y-106148056D02*
G75*
G03X143700000Y-106148056I-700000J0D01*
G01*
X143700000Y-95262342D02*
G75*
G03X143700000Y-95262342I-700000J0D01*
G01*
X143700000Y-84376628D02*
G75*
G03X143700000Y-84376628I-700000J0D01*
G01*
X140800000Y-118393770D02*
G75*
G03X140800000Y-118393770I-700000J0D01*
G01*
X140800000Y-107508056D02*
G75*
G03X140800000Y-107508056I-700000J0D01*
G01*
X140800000Y-96622342D02*
G75*
G03X140800000Y-96622342I-700000J0D01*
G01*
X140800000Y-85736628D02*
G75*
G03X140800000Y-85736628I-700000J0D01*
G01*
X140800000Y-69410914D02*
G75*
G03X140800000Y-69410914I-700000J0D01*
G01*
X140800000Y-58525200D02*
G75*
G03X140800000Y-58525200I-700000J0D01*
G01*
X143700000Y-76210914D02*
G75*
G03X143700000Y-76210914I-700000J0D01*
G01*
X134456400Y-70500913D02*
G75*
G03X134456400Y-70500913I-700000J0D01*
G01*
X143700000Y-65325200D02*
G75*
G03X143700000Y-65325200I-700000J0D01*
G01*
X134456400Y-59512200D02*
G75*
G03X134456400Y-59512200I-700000J0D01*
G01*
X143700000Y-70770914D02*
G75*
G03X143700000Y-70770914I-700000J0D01*
G01*
X143700000Y-59885200D02*
G75*
G03X143700000Y-59885200I-700000J0D01*
G01*
X143700000Y-73490914D02*
G75*
G03X143700000Y-73490914I-700000J0D01*
G01*
X143700000Y-62605200D02*
G75*
G03X143700000Y-62605200I-700000J0D01*
G01*
X140800000Y-74850914D02*
G75*
G03X140800000Y-74850914I-700000J0D01*
G01*
X140800000Y-63965200D02*
G75*
G03X140800000Y-63965200I-700000J0D01*
G01*
X106731840Y-109257320D02*
X108131840Y-109257320D01*
X108131840Y-106937320D02*
X106231840Y-106937320D01*
X134491400Y-75440913D02*
X134491400Y-73155913D01*
X134491400Y-73155913D02*
X133021400Y-73155913D01*
X133021400Y-73155913D02*
X133021400Y-75440913D01*
X133021400Y-116698769D02*
X133021400Y-118983769D01*
X134491400Y-116698769D02*
X133021400Y-116698769D01*
X134491400Y-118983769D02*
X134491400Y-116698769D01*
X134491400Y-108338055D02*
X134491400Y-106053055D01*
X134491400Y-106053055D02*
X133021400Y-106053055D01*
X133021400Y-106053055D02*
X133021400Y-108338055D01*
X133021400Y-94927341D02*
X133021400Y-97212341D01*
X134491400Y-94927341D02*
X133021400Y-94927341D01*
X134491400Y-97212341D02*
X134491400Y-94927341D01*
X134491400Y-86326627D02*
X134491400Y-84041627D01*
X134491400Y-84041627D02*
X133021400Y-84041627D01*
X133021400Y-84041627D02*
X133021400Y-86326627D01*
X134491400Y-64555199D02*
X134491400Y-62270199D01*
X134491400Y-62270199D02*
X133021400Y-62270199D01*
X133021400Y-62270199D02*
X133021400Y-64555199D01*
X133602759Y-116233769D02*
X133910041Y-116233769D01*
X133602759Y-115473769D02*
X133910041Y-115473769D01*
X133602759Y-104748055D02*
X133910041Y-104748055D01*
X133602759Y-105508055D02*
X133910041Y-105508055D01*
X133602759Y-93702341D02*
X133910041Y-93702341D01*
X133602759Y-94462341D02*
X133910041Y-94462341D01*
X133602759Y-83576627D02*
X133910041Y-83576627D01*
X133602759Y-82816627D02*
X133910041Y-82816627D01*
X133602759Y-61045199D02*
X133910041Y-61045199D01*
X133602759Y-61805199D02*
X133910041Y-61805199D01*
X65501800Y-59295199D02*
X65501800Y-61580199D01*
X65501800Y-61580199D02*
X66971800Y-61580199D01*
X66971800Y-61580199D02*
X66971800Y-59295199D01*
X66971800Y-72465913D02*
X66971800Y-70180913D01*
X65501800Y-72465913D02*
X66971800Y-72465913D01*
X65501800Y-70180913D02*
X65501800Y-72465913D01*
X65501800Y-81066627D02*
X65501800Y-83351627D01*
X65501800Y-83351627D02*
X66971800Y-83351627D01*
X66971800Y-83351627D02*
X66971800Y-81066627D01*
X66971800Y-94237341D02*
X66971800Y-91952341D01*
X65501800Y-94237341D02*
X66971800Y-94237341D01*
X65501800Y-91952341D02*
X65501800Y-94237341D01*
X66971800Y-105123055D02*
X66971800Y-102838055D01*
X65501800Y-105123055D02*
X66971800Y-105123055D01*
X65501800Y-102838055D02*
X65501800Y-105123055D01*
X65501800Y-113723769D02*
X65501800Y-116008769D01*
X65501800Y-116008769D02*
X66971800Y-116008769D01*
X66971800Y-116008769D02*
X66971800Y-113723769D01*
X66971800Y-126894483D02*
X66971800Y-124609483D01*
X65501800Y-126894483D02*
X66971800Y-126894483D01*
X65501800Y-124609483D02*
X65501800Y-126894483D01*
X65501800Y-135495199D02*
X65501800Y-137780199D01*
X65501800Y-137780199D02*
X66971800Y-137780199D01*
X66971800Y-137780199D02*
X66971800Y-135495199D01*
X73027599Y-133027800D02*
X70742599Y-133027800D01*
X73027599Y-134497800D02*
X73027599Y-133027800D01*
X70742599Y-134497800D02*
X73027599Y-134497800D01*
X86327599Y-133027800D02*
X84042599Y-133027800D01*
X86327599Y-134497800D02*
X86327599Y-133027800D01*
X84042599Y-134497800D02*
X86327599Y-134497800D01*
X97412599Y-134497800D02*
X99697599Y-134497800D01*
X99697599Y-134497800D02*
X99697599Y-133027800D01*
X99697599Y-133027800D02*
X97412599Y-133027800D01*
X113177599Y-133027800D02*
X110892599Y-133027800D01*
X113177599Y-134497800D02*
X113177599Y-133027800D01*
X110892599Y-134497800D02*
X113177599Y-134497800D01*
X124142599Y-134497800D02*
X126427599Y-134497800D01*
X126427599Y-134497800D02*
X126427599Y-133027800D01*
X126427599Y-133027800D02*
X124142599Y-133027800D01*
X134491400Y-140755199D02*
X134491400Y-138470199D01*
X134491400Y-138470199D02*
X133021400Y-138470199D01*
X133021400Y-138470199D02*
X133021400Y-140755199D01*
X134491400Y-129869483D02*
X134491400Y-127584483D01*
X134491400Y-127584483D02*
X133021400Y-127584483D01*
X133021400Y-127584483D02*
X133021400Y-129869483D01*
X66390441Y-62045199D02*
X66083159Y-62045199D01*
X66390441Y-62805199D02*
X66083159Y-62805199D01*
X66390441Y-73690913D02*
X66083159Y-73690913D01*
X66390441Y-72930913D02*
X66083159Y-72930913D01*
X66390441Y-83816627D02*
X66083159Y-83816627D01*
X66390441Y-84576627D02*
X66083159Y-84576627D01*
X66390441Y-95462341D02*
X66083159Y-95462341D01*
X66390441Y-94702341D02*
X66083159Y-94702341D01*
X66390441Y-106348055D02*
X66083159Y-106348055D01*
X66390441Y-105588055D02*
X66083159Y-105588055D01*
X66390441Y-116473769D02*
X66083159Y-116473769D01*
X66390441Y-117233769D02*
X66083159Y-117233769D01*
X66390441Y-128119483D02*
X66083159Y-128119483D01*
X66390441Y-127359483D02*
X66083159Y-127359483D01*
X66390441Y-138245199D02*
X66083159Y-138245199D01*
X66390441Y-139005199D02*
X66083159Y-139005199D01*
X73492599Y-133609159D02*
X73492599Y-133916441D01*
X74252599Y-133609159D02*
X74252599Y-133916441D01*
X87552599Y-133609159D02*
X87552599Y-133916441D01*
X86792599Y-133609159D02*
X86792599Y-133916441D01*
X100162599Y-133609159D02*
X100162599Y-133916441D01*
X100922599Y-133609159D02*
X100922599Y-133916441D01*
X114402599Y-133609159D02*
X114402599Y-133916441D01*
X113642599Y-133609159D02*
X113642599Y-133916441D01*
X127652599Y-133609159D02*
X127652599Y-133916441D01*
X126892599Y-133609159D02*
X126892599Y-133916441D01*
X133602759Y-138005199D02*
X133910041Y-138005199D01*
X133602759Y-137245199D02*
X133910041Y-137245199D01*
X133602759Y-127119483D02*
X133910041Y-127119483D01*
X133602759Y-126359483D02*
X133910041Y-126359483D01*
X102946200Y-93913800D02*
X100996200Y-93913800D01*
X102946200Y-93913800D02*
X104896200Y-93913800D01*
X102946200Y-102783800D02*
X100996200Y-102783800D01*
X102946200Y-102783800D02*
X106396200Y-102783800D01*
X126080000Y-90220000D02*
X123420000Y-90220000D01*
X126080000Y-102980000D02*
X126080000Y-90220000D01*
X123420000Y-102980000D02*
X123420000Y-90220000D01*
X126080000Y-102980000D02*
X123420000Y-102980000D01*
X126080000Y-104250000D02*
X126080000Y-105580000D01*
X126080000Y-105580000D02*
X124750000Y-105580000D01*
D15*
G36*
X98272666Y-97172666D02*
G01*
X81678000Y-97172666D01*
X81678000Y-95977770D01*
X82640298Y-95977770D01*
X82683762Y-96046374D01*
X82827039Y-96069583D01*
X83029418Y-96072000D01*
X83277882Y-96065904D01*
X83404016Y-96028184D01*
X83454806Y-95929687D01*
X83471802Y-95797526D01*
X83534541Y-95568663D01*
X83639959Y-95487812D01*
X83751431Y-95557636D01*
X83830618Y-95771426D01*
X83876159Y-95957204D01*
X83955651Y-96044504D01*
X84122629Y-96070442D01*
X84264169Y-96072000D01*
X84504563Y-96058742D01*
X84616569Y-96008574D01*
X84640401Y-95923833D01*
X84628247Y-95793901D01*
X84595173Y-95527373D01*
X84564566Y-95298978D01*
X85164379Y-95298978D01*
X85182107Y-95545887D01*
X85311704Y-95763218D01*
X85370719Y-95828144D01*
X85523338Y-95966615D01*
X85681754Y-96040075D01*
X85907260Y-96068390D01*
X86123000Y-96072000D01*
X86427374Y-96062412D01*
X86623691Y-96020750D01*
X86772750Y-95927665D01*
X86869159Y-95834533D01*
X87008264Y-95658589D01*
X87076487Y-95464282D01*
X87096438Y-95181740D01*
X87096666Y-95131475D01*
X87084615Y-94843549D01*
X87030483Y-94652819D01*
X86907304Y-94487826D01*
X86821500Y-94402301D01*
X86603818Y-94232004D01*
X86391644Y-94124389D01*
X86334666Y-94110526D01*
X86189687Y-94062807D01*
X86120312Y-93936709D01*
X86096722Y-93764833D01*
X86100464Y-93552784D01*
X86146937Y-93450461D01*
X86160222Y-93447333D01*
X86227698Y-93519756D01*
X86250000Y-93659000D01*
X86265791Y-93789615D01*
X86343413Y-93851499D01*
X86528236Y-93869858D01*
X86631000Y-93870666D01*
X87012000Y-93870666D01*
X87012000Y-93552891D01*
X86938518Y-93209941D01*
X86730451Y-92955238D01*
X86468203Y-92833500D01*
X87521751Y-92833500D01*
X87549927Y-92934745D01*
X87624744Y-93158874D01*
X87733943Y-93470015D01*
X87832776Y-93743666D01*
X87997127Y-94229008D01*
X88099741Y-94635808D01*
X88156195Y-95036178D01*
X88175700Y-95331166D01*
X88209350Y-96072000D01*
X89044000Y-96072000D01*
X89044000Y-95393758D01*
X89053344Y-95057210D01*
X89088523Y-94754527D01*
X89160259Y-94432941D01*
X89279270Y-94039683D01*
X89379421Y-93742758D01*
X89714843Y-92770000D01*
X90314000Y-92770000D01*
X90314000Y-96072000D01*
X91753333Y-96072000D01*
X91753333Y-95775666D01*
X91739173Y-95576571D01*
X91667353Y-95494911D01*
X91499333Y-95479333D01*
X91245333Y-95479333D01*
X91245333Y-92770000D01*
X92515333Y-92770000D01*
X92515333Y-95719209D01*
X92748166Y-95892922D01*
X92990879Y-96015012D01*
X93320957Y-96065831D01*
X93451992Y-96069317D01*
X93744864Y-96058499D01*
X93936287Y-96006888D01*
X94093151Y-95891999D01*
X94150492Y-95834533D01*
X94378000Y-95597067D01*
X94378000Y-92770000D01*
X95055333Y-92770000D01*
X95055333Y-96072000D01*
X95837531Y-96072000D01*
X95802352Y-95267666D01*
X95791971Y-94922279D01*
X95792815Y-94651146D01*
X95804278Y-94490955D01*
X95815644Y-94463333D01*
X95849002Y-94541002D01*
X95898636Y-94749549D01*
X95956430Y-95052287D01*
X95988891Y-95246500D01*
X96052365Y-95617511D01*
X96106863Y-95850707D01*
X96163588Y-95976397D01*
X96233745Y-96024893D01*
X96278405Y-96029666D01*
X96360343Y-96009245D01*
X96421346Y-95927357D01*
X96472587Y-95753071D01*
X96525240Y-95455451D01*
X96552824Y-95269907D01*
X96618165Y-94835800D01*
X96666395Y-94568939D01*
X96700182Y-94468396D01*
X96722197Y-94533246D01*
X96735107Y-94762559D01*
X96741582Y-95155408D01*
X96741982Y-95204166D01*
X96748666Y-96072000D01*
X97426000Y-96072000D01*
X97426000Y-92761150D01*
X96982219Y-92786742D01*
X96538438Y-92812333D01*
X96399467Y-93616666D01*
X96339535Y-93953516D01*
X96290437Y-94210706D01*
X96258708Y-94355027D01*
X96250581Y-94373049D01*
X96230151Y-94260019D01*
X96190450Y-94031285D01*
X96140239Y-93738140D01*
X96088277Y-93431877D01*
X96043327Y-93163790D01*
X96023784Y-93045166D01*
X95989884Y-92887292D01*
X95924005Y-92805462D01*
X95780147Y-92774692D01*
X95517163Y-92770000D01*
X95055333Y-92770000D01*
X94378000Y-92770000D01*
X93531333Y-92770000D01*
X93531333Y-94124666D01*
X93529230Y-94640130D01*
X93521491Y-95009166D01*
X93505972Y-95254644D01*
X93480529Y-95399434D01*
X93443019Y-95466405D01*
X93404333Y-95479333D01*
X93356008Y-95456899D01*
X93321411Y-95374349D01*
X93298397Y-95208815D01*
X93284823Y-94937427D01*
X93278545Y-94537315D01*
X93277333Y-94124666D01*
X93277333Y-92770000D01*
X92515333Y-92770000D01*
X91245333Y-92770000D01*
X90314000Y-92770000D01*
X89714843Y-92770000D01*
X89298734Y-92770000D01*
X89048663Y-92776831D01*
X88914184Y-92819877D01*
X88841574Y-92932961D01*
X88794451Y-93087500D01*
X88735435Y-93341408D01*
X88705385Y-93551262D01*
X88704509Y-93574333D01*
X88669618Y-93771643D01*
X88633515Y-93852776D01*
X88583219Y-93839342D01*
X88522683Y-93670641D01*
X88457789Y-93365942D01*
X88351288Y-92770000D01*
X87935644Y-92770000D01*
X87697059Y-92781615D01*
X87547588Y-92811264D01*
X87521751Y-92833500D01*
X86468203Y-92833500D01*
X86406364Y-92804794D01*
X86104110Y-92770000D01*
X85819164Y-92789136D01*
X85624280Y-92865468D01*
X85461507Y-93007466D01*
X85331785Y-93166549D01*
X85262936Y-93337624D01*
X85236778Y-93581914D01*
X85234000Y-93773527D01*
X85242524Y-94077718D01*
X85280205Y-94270049D01*
X85365208Y-94407635D01*
X85466833Y-94505674D01*
X85693405Y-94661565D01*
X85922853Y-94760016D01*
X85932500Y-94762340D01*
X86085191Y-94818677D01*
X86151310Y-94931034D01*
X86165333Y-95147393D01*
X86146200Y-95356968D01*
X86098511Y-95471864D01*
X86080666Y-95479333D01*
X86021632Y-95405656D01*
X85996030Y-95227690D01*
X85996000Y-95220694D01*
X85987581Y-95065460D01*
X85932542Y-94993109D01*
X85786205Y-94977773D01*
X85593833Y-94987861D01*
X85350383Y-95010884D01*
X85228207Y-95062030D01*
X85179372Y-95176021D01*
X85164379Y-95298978D01*
X84564566Y-95298978D01*
X84545288Y-95155127D01*
X84482705Y-94708039D01*
X84429051Y-94336333D01*
X84359992Y-93860316D01*
X84300418Y-93442758D01*
X84254352Y-93112423D01*
X84225818Y-92898075D01*
X84218316Y-92829631D01*
X84140967Y-92799201D01*
X83938391Y-92783960D01*
X83654272Y-92787170D01*
X83651357Y-92787298D01*
X83084715Y-92812333D01*
X82892902Y-94209333D01*
X82825623Y-94694273D01*
X82763115Y-95135546D01*
X82710291Y-95499164D01*
X82672061Y-95751142D01*
X82657327Y-95839166D01*
X82640298Y-95977770D01*
X81678000Y-95977770D01*
X81678000Y-91584666D01*
X98272666Y-91584666D01*
X98272666Y-97172666D01*
G37*
X98272666Y-97172666D02*
X81678000Y-97172666D01*
X81678000Y-95977770D01*
X82640298Y-95977770D01*
X82683762Y-96046374D01*
X82827039Y-96069583D01*
X83029418Y-96072000D01*
X83277882Y-96065904D01*
X83404016Y-96028184D01*
X83454806Y-95929687D01*
X83471802Y-95797526D01*
X83534541Y-95568663D01*
X83639959Y-95487812D01*
X83751431Y-95557636D01*
X83830618Y-95771426D01*
X83876159Y-95957204D01*
X83955651Y-96044504D01*
X84122629Y-96070442D01*
X84264169Y-96072000D01*
X84504563Y-96058742D01*
X84616569Y-96008574D01*
X84640401Y-95923833D01*
X84628247Y-95793901D01*
X84595173Y-95527373D01*
X84564566Y-95298978D01*
X85164379Y-95298978D01*
X85182107Y-95545887D01*
X85311704Y-95763218D01*
X85370719Y-95828144D01*
X85523338Y-95966615D01*
X85681754Y-96040075D01*
X85907260Y-96068390D01*
X86123000Y-96072000D01*
X86427374Y-96062412D01*
X86623691Y-96020750D01*
X86772750Y-95927665D01*
X86869159Y-95834533D01*
X87008264Y-95658589D01*
X87076487Y-95464282D01*
X87096438Y-95181740D01*
X87096666Y-95131475D01*
X87084615Y-94843549D01*
X87030483Y-94652819D01*
X86907304Y-94487826D01*
X86821500Y-94402301D01*
X86603818Y-94232004D01*
X86391644Y-94124389D01*
X86334666Y-94110526D01*
X86189687Y-94062807D01*
X86120312Y-93936709D01*
X86096722Y-93764833D01*
X86100464Y-93552784D01*
X86146937Y-93450461D01*
X86160222Y-93447333D01*
X86227698Y-93519756D01*
X86250000Y-93659000D01*
X86265791Y-93789615D01*
X86343413Y-93851499D01*
X86528236Y-93869858D01*
X86631000Y-93870666D01*
X87012000Y-93870666D01*
X87012000Y-93552891D01*
X86938518Y-93209941D01*
X86730451Y-92955238D01*
X86468203Y-92833500D01*
X87521751Y-92833500D01*
X87549927Y-92934745D01*
X87624744Y-93158874D01*
X87733943Y-93470015D01*
X87832776Y-93743666D01*
X87997127Y-94229008D01*
X88099741Y-94635808D01*
X88156195Y-95036178D01*
X88175700Y-95331166D01*
X88209350Y-96072000D01*
X89044000Y-96072000D01*
X89044000Y-95393758D01*
X89053344Y-95057210D01*
X89088523Y-94754527D01*
X89160259Y-94432941D01*
X89279270Y-94039683D01*
X89379421Y-93742758D01*
X89714843Y-92770000D01*
X90314000Y-92770000D01*
X90314000Y-96072000D01*
X91753333Y-96072000D01*
X91753333Y-95775666D01*
X91739173Y-95576571D01*
X91667353Y-95494911D01*
X91499333Y-95479333D01*
X91245333Y-95479333D01*
X91245333Y-92770000D01*
X92515333Y-92770000D01*
X92515333Y-95719209D01*
X92748166Y-95892922D01*
X92990879Y-96015012D01*
X93320957Y-96065831D01*
X93451992Y-96069317D01*
X93744864Y-96058499D01*
X93936287Y-96006888D01*
X94093151Y-95891999D01*
X94150492Y-95834533D01*
X94378000Y-95597067D01*
X94378000Y-92770000D01*
X95055333Y-92770000D01*
X95055333Y-96072000D01*
X95837531Y-96072000D01*
X95802352Y-95267666D01*
X95791971Y-94922279D01*
X95792815Y-94651146D01*
X95804278Y-94490955D01*
X95815644Y-94463333D01*
X95849002Y-94541002D01*
X95898636Y-94749549D01*
X95956430Y-95052287D01*
X95988891Y-95246500D01*
X96052365Y-95617511D01*
X96106863Y-95850707D01*
X96163588Y-95976397D01*
X96233745Y-96024893D01*
X96278405Y-96029666D01*
X96360343Y-96009245D01*
X96421346Y-95927357D01*
X96472587Y-95753071D01*
X96525240Y-95455451D01*
X96552824Y-95269907D01*
X96618165Y-94835800D01*
X96666395Y-94568939D01*
X96700182Y-94468396D01*
X96722197Y-94533246D01*
X96735107Y-94762559D01*
X96741582Y-95155408D01*
X96741982Y-95204166D01*
X96748666Y-96072000D01*
X97426000Y-96072000D01*
X97426000Y-92761150D01*
X96982219Y-92786742D01*
X96538438Y-92812333D01*
X96399467Y-93616666D01*
X96339535Y-93953516D01*
X96290437Y-94210706D01*
X96258708Y-94355027D01*
X96250581Y-94373049D01*
X96230151Y-94260019D01*
X96190450Y-94031285D01*
X96140239Y-93738140D01*
X96088277Y-93431877D01*
X96043327Y-93163790D01*
X96023784Y-93045166D01*
X95989884Y-92887292D01*
X95924005Y-92805462D01*
X95780147Y-92774692D01*
X95517163Y-92770000D01*
X95055333Y-92770000D01*
X94378000Y-92770000D01*
X93531333Y-92770000D01*
X93531333Y-94124666D01*
X93529230Y-94640130D01*
X93521491Y-95009166D01*
X93505972Y-95254644D01*
X93480529Y-95399434D01*
X93443019Y-95466405D01*
X93404333Y-95479333D01*
X93356008Y-95456899D01*
X93321411Y-95374349D01*
X93298397Y-95208815D01*
X93284823Y-94937427D01*
X93278545Y-94537315D01*
X93277333Y-94124666D01*
X93277333Y-92770000D01*
X92515333Y-92770000D01*
X91245333Y-92770000D01*
X90314000Y-92770000D01*
X89714843Y-92770000D01*
X89298734Y-92770000D01*
X89048663Y-92776831D01*
X88914184Y-92819877D01*
X88841574Y-92932961D01*
X88794451Y-93087500D01*
X88735435Y-93341408D01*
X88705385Y-93551262D01*
X88704509Y-93574333D01*
X88669618Y-93771643D01*
X88633515Y-93852776D01*
X88583219Y-93839342D01*
X88522683Y-93670641D01*
X88457789Y-93365942D01*
X88351288Y-92770000D01*
X87935644Y-92770000D01*
X87697059Y-92781615D01*
X87547588Y-92811264D01*
X87521751Y-92833500D01*
X86468203Y-92833500D01*
X86406364Y-92804794D01*
X86104110Y-92770000D01*
X85819164Y-92789136D01*
X85624280Y-92865468D01*
X85461507Y-93007466D01*
X85331785Y-93166549D01*
X85262936Y-93337624D01*
X85236778Y-93581914D01*
X85234000Y-93773527D01*
X85242524Y-94077718D01*
X85280205Y-94270049D01*
X85365208Y-94407635D01*
X85466833Y-94505674D01*
X85693405Y-94661565D01*
X85922853Y-94760016D01*
X85932500Y-94762340D01*
X86085191Y-94818677D01*
X86151310Y-94931034D01*
X86165333Y-95147393D01*
X86146200Y-95356968D01*
X86098511Y-95471864D01*
X86080666Y-95479333D01*
X86021632Y-95405656D01*
X85996030Y-95227690D01*
X85996000Y-95220694D01*
X85987581Y-95065460D01*
X85932542Y-94993109D01*
X85786205Y-94977773D01*
X85593833Y-94987861D01*
X85350383Y-95010884D01*
X85228207Y-95062030D01*
X85179372Y-95176021D01*
X85164379Y-95298978D01*
X84564566Y-95298978D01*
X84545288Y-95155127D01*
X84482705Y-94708039D01*
X84429051Y-94336333D01*
X84359992Y-93860316D01*
X84300418Y-93442758D01*
X84254352Y-93112423D01*
X84225818Y-92898075D01*
X84218316Y-92829631D01*
X84140967Y-92799201D01*
X83938391Y-92783960D01*
X83654272Y-92787170D01*
X83651357Y-92787298D01*
X83084715Y-92812333D01*
X82892902Y-94209333D01*
X82825623Y-94694273D01*
X82763115Y-95135546D01*
X82710291Y-95499164D01*
X82672061Y-95751142D01*
X82657327Y-95839166D01*
X82640298Y-95977770D01*
X81678000Y-95977770D01*
X81678000Y-91584666D01*
X98272666Y-91584666D01*
X98272666Y-97172666D01*
G36*
X92869631Y-84273326D02*
G01*
X93242002Y-84430225D01*
X93489162Y-84681734D01*
X93542908Y-84790205D01*
X93579499Y-85013151D01*
X93572494Y-85331126D01*
X93528384Y-85677402D01*
X93453665Y-85985255D01*
X93417261Y-86081333D01*
X93430898Y-86169509D01*
X93555249Y-86282601D01*
X93808967Y-86435172D01*
X93998335Y-86535005D01*
X94679548Y-86919718D01*
X95204589Y-87294215D01*
X95570283Y-87655524D01*
X95773458Y-88000674D01*
X95817333Y-88238919D01*
X95747382Y-88457956D01*
X95560509Y-88717305D01*
X95291181Y-88981421D01*
X94973867Y-89214755D01*
X94754834Y-89334657D01*
X94545549Y-89434278D01*
X94413569Y-89500802D01*
X94394604Y-89512156D01*
X94417587Y-89590021D01*
X94506455Y-89757806D01*
X94542454Y-89818284D01*
X94687815Y-90186193D01*
X94699175Y-90559701D01*
X94576649Y-90888657D01*
X94539857Y-90939940D01*
X94471249Y-91028680D01*
X94406820Y-91105643D01*
X94334695Y-91171668D01*
X94243000Y-91227596D01*
X94119861Y-91274266D01*
X93953404Y-91312518D01*
X93731755Y-91343191D01*
X93443040Y-91367126D01*
X93075385Y-91385162D01*
X92616915Y-91398138D01*
X92055757Y-91406895D01*
X91380037Y-91412273D01*
X90577879Y-91415110D01*
X89637412Y-91416247D01*
X88546759Y-91416524D01*
X87799371Y-91416629D01*
X86798365Y-91417735D01*
X85845928Y-91420517D01*
X84955742Y-91424829D01*
X84141488Y-91430521D01*
X83416848Y-91437447D01*
X82795504Y-91445458D01*
X82291136Y-91454406D01*
X81917428Y-91464143D01*
X81688060Y-91474521D01*
X81617162Y-91483481D01*
X81566060Y-91594321D01*
X81527653Y-91857682D01*
X81501263Y-92279763D01*
X81490162Y-92645420D01*
X81466333Y-93741805D01*
X80831333Y-94013173D01*
X80467670Y-94160171D01*
X80103896Y-94293471D01*
X79813819Y-94386153D01*
X79793707Y-94391620D01*
X79540307Y-94449684D01*
X79388944Y-94449479D01*
X79281504Y-94387744D01*
X79253709Y-94361328D01*
X79182525Y-94269255D01*
X79163688Y-94157314D01*
X79202292Y-93984939D01*
X79303427Y-93711563D01*
X79349744Y-93596334D01*
X79349709Y-93537529D01*
X79264311Y-93539758D01*
X79071997Y-93608589D01*
X78751213Y-93749587D01*
X78744571Y-93752619D01*
X77819008Y-94146110D01*
X77005860Y-94428202D01*
X76292717Y-94601919D01*
X75667169Y-94670282D01*
X75116803Y-94636316D01*
X75116333Y-94636239D01*
X74672561Y-94517263D01*
X74372724Y-94318936D01*
X74203577Y-94024903D01*
X74151877Y-93618809D01*
X74158608Y-93453575D01*
X74208074Y-93104106D01*
X74318097Y-92790164D01*
X74512923Y-92437646D01*
X74629585Y-92242169D01*
X75667100Y-92242169D01*
X75733794Y-92535369D01*
X75906221Y-92853551D01*
X76144363Y-93135496D01*
X76354177Y-93293207D01*
X76671275Y-93395521D01*
X77086873Y-93428689D01*
X77546025Y-93395180D01*
X77993787Y-93297466D01*
X78235002Y-93208655D01*
X78604265Y-92987985D01*
X79009303Y-92651942D01*
X79413645Y-92238300D01*
X79780822Y-91784834D01*
X80074364Y-91329320D01*
X80105708Y-91270980D01*
X80266205Y-90970666D01*
X80378798Y-90793445D01*
X80472746Y-90711676D01*
X80577310Y-90697724D01*
X80691650Y-90717533D01*
X80946279Y-90759735D01*
X81148833Y-90777220D01*
X81307257Y-90833457D01*
X81339333Y-90928500D01*
X81406581Y-91044009D01*
X81575367Y-91086485D01*
X81796254Y-91059577D01*
X82019803Y-90966934D01*
X82147515Y-90868848D01*
X82288368Y-90701623D01*
X82307630Y-90663654D01*
X83129873Y-90663654D01*
X83187106Y-90748855D01*
X83223166Y-90767567D01*
X83452182Y-90790110D01*
X83631314Y-90651817D01*
X83679985Y-90568067D01*
X83770655Y-90358536D01*
X83791584Y-90304132D01*
X85135286Y-90304132D01*
X85139583Y-90378166D01*
X85218825Y-90449839D01*
X85393675Y-90481171D01*
X85595157Y-90471636D01*
X85754292Y-90420708D01*
X85794326Y-90383163D01*
X85795183Y-90274982D01*
X85756990Y-90249107D01*
X85667824Y-90141636D01*
X85690008Y-89913903D01*
X85824003Y-89563239D01*
X85904006Y-89397847D01*
X86157674Y-89003037D01*
X86437793Y-88773441D01*
X86719650Y-88706000D01*
X86808713Y-88732025D01*
X86832683Y-88826578D01*
X86788115Y-89014372D01*
X86671564Y-89320122D01*
X86615308Y-89454440D01*
X86483710Y-89822236D01*
X86458396Y-90070715D01*
X86542806Y-90215084D01*
X86740381Y-90270550D01*
X86800333Y-90272333D01*
X86977890Y-90230500D01*
X87118194Y-90132024D01*
X87185156Y-90017439D01*
X87142688Y-89927279D01*
X87117833Y-89915725D01*
X87032995Y-89844515D01*
X87027639Y-89703540D01*
X87086750Y-89525445D01*
X87262529Y-89525445D01*
X87353675Y-89847293D01*
X87490029Y-90022376D01*
X87782076Y-90198173D01*
X88084834Y-90210166D01*
X88372731Y-90058640D01*
X88423134Y-90011896D01*
X88555811Y-89856409D01*
X88605955Y-89701477D01*
X88592571Y-89473560D01*
X88581752Y-89398062D01*
X88580591Y-89389460D01*
X88790000Y-89389460D01*
X88842486Y-89703837D01*
X88982201Y-89900713D01*
X89182524Y-89964827D01*
X89416837Y-89880914D01*
X89512668Y-89803846D01*
X89651873Y-89692376D01*
X89742021Y-89698866D01*
X89803659Y-89761512D01*
X89990753Y-89872351D01*
X90220696Y-89874971D01*
X90381733Y-89789733D01*
X90456487Y-89649472D01*
X90472754Y-89533568D01*
X90616623Y-89533568D01*
X90619541Y-89616977D01*
X90714224Y-89636903D01*
X90769150Y-89637333D01*
X90990600Y-89581315D01*
X91137744Y-89489166D01*
X91247420Y-89339476D01*
X91383891Y-89081694D01*
X91519821Y-88768176D01*
X91535605Y-88727166D01*
X91672439Y-88395432D01*
X91783640Y-88201780D01*
X91885851Y-88120319D01*
X91930148Y-88113333D01*
X92053106Y-88156268D01*
X92081728Y-88295096D01*
X92015054Y-88544854D01*
X91882724Y-88855628D01*
X91777473Y-89119151D01*
X91722406Y-89334139D01*
X91723556Y-89427858D01*
X91850613Y-89555936D01*
X92055690Y-89613373D01*
X92255979Y-89582516D01*
X92304766Y-89551754D01*
X92418272Y-89412716D01*
X92395083Y-89319358D01*
X92303666Y-89298666D01*
X92197361Y-89237361D01*
X92193448Y-89074248D01*
X92289527Y-88840534D01*
X92346000Y-88748333D01*
X92514217Y-88494333D01*
X92514775Y-88764778D01*
X92589107Y-89089370D01*
X92787240Y-89336923D01*
X93074051Y-89471114D01*
X93211130Y-89484933D01*
X93492725Y-89463019D01*
X93667736Y-89371334D01*
X93796078Y-89170964D01*
X93836590Y-89078701D01*
X93904752Y-88870325D01*
X93901816Y-88681845D01*
X93829183Y-88432870D01*
X93729751Y-88100184D01*
X93711683Y-87888953D01*
X93774815Y-87772215D01*
X93824955Y-87745089D01*
X93971319Y-87764975D01*
X94076496Y-87910388D01*
X94090953Y-87965166D01*
X94116109Y-88092166D01*
X94163707Y-88086151D01*
X94252840Y-87990854D01*
X94339080Y-87862881D01*
X94377998Y-87758840D01*
X94378000Y-87758484D01*
X94303916Y-87604523D01*
X94120140Y-87462200D01*
X93884386Y-87368636D01*
X93744951Y-87351333D01*
X93454074Y-87413509D01*
X93281830Y-87590300D01*
X93237423Y-87867097D01*
X93280120Y-88089248D01*
X93355756Y-88459082D01*
X93325363Y-88704931D01*
X93189893Y-88822684D01*
X93108000Y-88833000D01*
X92943017Y-88794425D01*
X92885491Y-88647214D01*
X92883509Y-88621333D01*
X92870547Y-88433488D01*
X92862343Y-88343187D01*
X92794281Y-88323937D01*
X92692977Y-88362885D01*
X92576300Y-88406189D01*
X92564695Y-88328051D01*
X92575969Y-88280746D01*
X92567613Y-88060166D01*
X92426105Y-87920603D01*
X92176330Y-87882263D01*
X92096472Y-87891409D01*
X91799208Y-87895429D01*
X91513242Y-87837526D01*
X91312441Y-87779642D01*
X91195298Y-87804791D01*
X91112353Y-87895526D01*
X91036899Y-88100954D01*
X91041649Y-88241998D01*
X91039438Y-88439847D01*
X90974146Y-88689178D01*
X90955160Y-88736308D01*
X90827092Y-89032765D01*
X90699334Y-89328348D01*
X90693863Y-89341000D01*
X90616623Y-89533568D01*
X90472754Y-89533568D01*
X90481068Y-89474338D01*
X90453014Y-89335741D01*
X90398666Y-89298666D01*
X90324144Y-89256392D01*
X90340917Y-89120593D01*
X90453472Y-88877803D01*
X90652666Y-88536666D01*
X90848602Y-88209613D01*
X90954159Y-88006123D01*
X90973870Y-87909522D01*
X90912265Y-87903137D01*
X90812316Y-87949182D01*
X90587864Y-88002855D01*
X90278764Y-87991724D01*
X90261313Y-87989206D01*
X89961166Y-87983959D01*
X89691517Y-88078086D01*
X89421381Y-88289849D01*
X89119774Y-88637511D01*
X89085185Y-88682424D01*
X88884735Y-88991807D01*
X88798300Y-89263524D01*
X88790000Y-89389460D01*
X88580591Y-89389460D01*
X88526857Y-88991448D01*
X88509116Y-88722537D01*
X88530331Y-88563430D01*
X88592309Y-88486230D01*
X88641833Y-88469076D01*
X88761521Y-88497093D01*
X88790000Y-88622180D01*
X88829177Y-88755839D01*
X88895833Y-88769500D01*
X88972215Y-88668598D01*
X89001666Y-88490524D01*
X88928775Y-88251191D01*
X88741075Y-88091803D01*
X88485024Y-88040666D01*
X88317700Y-88073795D01*
X88094893Y-88187535D01*
X87982702Y-88351314D01*
X87968850Y-88600562D01*
X88026907Y-88913110D01*
X88087096Y-89190553D01*
X88098089Y-89357446D01*
X88057498Y-89465978D01*
X87998494Y-89533791D01*
X87828805Y-89618968D01*
X87677102Y-89564156D01*
X87586436Y-89396831D01*
X87578272Y-89265584D01*
X87544937Y-89095634D01*
X87448506Y-89043126D01*
X87342554Y-89125926D01*
X87317391Y-89178591D01*
X87262529Y-89525445D01*
X87086750Y-89525445D01*
X87106029Y-89467363D01*
X87242658Y-89170781D01*
X87371414Y-88881223D01*
X87416877Y-88692876D01*
X87388261Y-88565116D01*
X87382285Y-88555072D01*
X87212191Y-88419586D01*
X86982716Y-88382711D01*
X86771299Y-88449711D01*
X86707228Y-88509180D01*
X86620508Y-88599845D01*
X86606667Y-88548505D01*
X86608607Y-88536666D01*
X86574923Y-88437299D01*
X86525166Y-88430833D01*
X86429020Y-88407367D01*
X86450963Y-88301414D01*
X86520933Y-88214933D01*
X86561759Y-88139818D01*
X86459530Y-88114147D01*
X86411711Y-88113333D01*
X86212838Y-88174651D01*
X85959084Y-88339332D01*
X85844444Y-88435911D01*
X85597828Y-88684395D01*
X85494793Y-88855983D01*
X85531772Y-88957568D01*
X85565908Y-88974111D01*
X85571502Y-89057333D01*
X85509847Y-89247181D01*
X85402554Y-89485286D01*
X85241162Y-89832986D01*
X85157030Y-90089103D01*
X85135286Y-90304132D01*
X83791584Y-90304132D01*
X83878461Y-90078305D01*
X83919924Y-89962183D01*
X84068244Y-89649131D01*
X84266867Y-89379988D01*
X84487813Y-89176488D01*
X84703104Y-89060366D01*
X84884760Y-89053354D01*
X84983918Y-89135673D01*
X85060449Y-89197131D01*
X85176062Y-89137323D01*
X85228831Y-89091677D01*
X85358601Y-88935405D01*
X85403333Y-88817220D01*
X85343616Y-88682669D01*
X85175763Y-88661292D01*
X84916722Y-88752124D01*
X84731929Y-88855494D01*
X84321681Y-89110518D01*
X84160509Y-88894646D01*
X84010340Y-88744566D01*
X83842660Y-88721409D01*
X83770002Y-88736333D01*
X83581770Y-88839412D01*
X83540666Y-88961613D01*
X83576428Y-89098315D01*
X83625333Y-89129333D01*
X83693815Y-89160756D01*
X83693833Y-89269037D01*
X83619635Y-89475195D01*
X83465469Y-89800249D01*
X83413666Y-89902733D01*
X83237509Y-90266216D01*
X83144792Y-90511315D01*
X83129873Y-90663654D01*
X82307630Y-90663654D01*
X82354602Y-90571064D01*
X82355333Y-90562022D01*
X82414651Y-90456461D01*
X82568181Y-90285374D01*
X82729242Y-90133887D01*
X82979009Y-89873619D01*
X83201051Y-89575100D01*
X83288056Y-89422795D01*
X83394142Y-89188624D01*
X83426293Y-89041648D01*
X83389147Y-88919060D01*
X83332136Y-88825903D01*
X83175033Y-88675112D01*
X83014665Y-88648657D01*
X82899753Y-88747949D01*
X82879264Y-88812805D01*
X82910461Y-88933319D01*
X83026458Y-88960000D01*
X83153527Y-88988044D01*
X83190271Y-89089478D01*
X83137389Y-89290253D01*
X83041443Y-89516988D01*
X82922466Y-89719948D01*
X82760623Y-89927013D01*
X82592055Y-90100194D01*
X82452904Y-90201501D01*
X82386835Y-90205058D01*
X82381196Y-90104933D01*
X82406963Y-89874283D01*
X82458217Y-89547751D01*
X82529043Y-89159982D01*
X82613522Y-88745618D01*
X82704979Y-88342449D01*
X82775116Y-88022315D01*
X87109758Y-88022315D01*
X87193594Y-88138014D01*
X87202500Y-88141926D01*
X87350663Y-88186453D01*
X87457223Y-88151873D01*
X87486158Y-88133203D01*
X87644016Y-87966434D01*
X87718648Y-87764853D01*
X87707935Y-87578388D01*
X87609760Y-87456970D01*
X87543217Y-87442128D01*
X92532574Y-87442128D01*
X92614744Y-87623362D01*
X92696914Y-87702069D01*
X92901874Y-87818478D01*
X93030845Y-87787137D01*
X93093332Y-87615208D01*
X93062817Y-87384153D01*
X92922841Y-87231438D01*
X92735273Y-87199080D01*
X92574025Y-87283985D01*
X92532574Y-87442128D01*
X87543217Y-87442128D01*
X87515742Y-87436000D01*
X87348649Y-87498337D01*
X87210086Y-87651092D01*
X87122855Y-87842879D01*
X87109758Y-88022315D01*
X82775116Y-88022315D01*
X82778317Y-88007708D01*
X82824035Y-87737557D01*
X82835966Y-87572109D01*
X82828051Y-87541828D01*
X82710686Y-87536319D01*
X82502038Y-87631713D01*
X82230901Y-87809519D01*
X81926069Y-88051244D01*
X81669182Y-88286111D01*
X81188211Y-88755223D01*
X80923770Y-88518945D01*
X80714226Y-88365806D01*
X80488422Y-88296522D01*
X80230818Y-88282666D01*
X79942797Y-88300311D01*
X79744482Y-88372198D01*
X79558226Y-88526753D01*
X79554820Y-88530153D01*
X79404900Y-88706087D01*
X79330973Y-88889059D01*
X79308032Y-89150581D01*
X79307333Y-89237900D01*
X79319270Y-89514569D01*
X79374404Y-89715275D01*
X79501719Y-89912274D01*
X79646524Y-90083501D01*
X79985715Y-90468842D01*
X79470420Y-90935158D01*
X79043137Y-91281886D01*
X78588775Y-91582345D01*
X78144465Y-91816600D01*
X77747336Y-91964715D01*
X77472291Y-92008000D01*
X77149384Y-91959765D01*
X76905265Y-91830691D01*
X76777563Y-91644222D01*
X76767333Y-91568787D01*
X76747254Y-91456995D01*
X76655741Y-91421656D01*
X76449833Y-91443648D01*
X76146906Y-91557075D01*
X75886279Y-91768524D01*
X75712888Y-92032152D01*
X75667100Y-92242169D01*
X74629585Y-92242169D01*
X74675720Y-92164868D01*
X74755784Y-91994198D01*
X74764239Y-91886804D01*
X74712210Y-91803852D01*
X74698516Y-91789754D01*
X74594578Y-91635800D01*
X74582278Y-91444666D01*
X74663556Y-91175118D01*
X74735302Y-91008143D01*
X74900885Y-90643287D01*
X74629854Y-90500143D01*
X74263403Y-90259582D01*
X73987466Y-89984227D01*
X73830013Y-89706018D01*
X73803999Y-89557090D01*
X73885508Y-89277940D01*
X74117410Y-89009798D01*
X74480769Y-88764764D01*
X74956648Y-88554936D01*
X75526111Y-88392414D01*
X75674827Y-88361749D01*
X75953831Y-88307163D01*
X76155274Y-88265621D01*
X76233488Y-88246720D01*
X76227211Y-88166023D01*
X76191442Y-87978129D01*
X76175380Y-87904831D01*
X76150488Y-87508531D01*
X76274123Y-87193328D01*
X76547595Y-86956648D01*
X76694033Y-86885531D01*
X77060486Y-86789142D01*
X77544139Y-86743179D01*
X78100519Y-86747708D01*
X78685155Y-86802794D01*
X79136975Y-86881934D01*
X79504753Y-86949359D01*
X79729074Y-86962698D01*
X79799820Y-86932205D01*
X79870940Y-86806827D01*
X79981705Y-86656632D01*
X80075869Y-86551710D01*
X80169755Y-86510588D01*
X80316085Y-86529250D01*
X80567577Y-86603676D01*
X80588860Y-86610361D01*
X81128894Y-86747381D01*
X81636827Y-86815535D01*
X82068765Y-86810857D01*
X82295279Y-86764514D01*
X82535660Y-86629853D01*
X82852923Y-86357508D01*
X83249267Y-85946202D01*
X83655676Y-85519137D01*
X83989567Y-85222730D01*
X84272951Y-85047151D01*
X84527840Y-84982567D01*
X84776246Y-85019145D01*
X85039424Y-85146593D01*
X85310515Y-85311887D01*
X85796443Y-85019277D01*
X86069105Y-84868690D01*
X86303487Y-84763072D01*
X86439723Y-84726666D01*
X86610931Y-84761240D01*
X86819602Y-84844558D01*
X87002589Y-84946019D01*
X87096743Y-85035018D01*
X87099359Y-85046340D01*
X87147493Y-85155489D01*
X87220585Y-85264119D01*
X87295453Y-85344462D01*
X87378699Y-85354785D01*
X87511530Y-85283290D01*
X87735153Y-85118178D01*
X87738068Y-85115953D01*
X88050769Y-84906052D01*
X88277614Y-84815369D01*
X88408909Y-84845204D01*
X88434959Y-84996858D01*
X88430611Y-85023000D01*
X88414722Y-85173543D01*
X88455097Y-85217246D01*
X88568003Y-85147947D01*
X88769708Y-84959484D01*
X88872924Y-84855441D01*
X89112285Y-84625489D01*
X89250339Y-84525998D01*
X89285588Y-84557535D01*
X89216531Y-84720668D01*
X89213333Y-84726666D01*
X89150484Y-84878513D01*
X89148957Y-84944512D01*
X89240122Y-84936664D01*
X89442945Y-84882028D01*
X89668962Y-84807709D01*
X90166726Y-84649400D01*
X90715707Y-84502208D01*
X91269634Y-84376147D01*
X91782237Y-84281233D01*
X92207247Y-84227482D01*
X92388333Y-84219092D01*
X92869631Y-84273326D01*
G37*
X92869631Y-84273326D02*
X93242002Y-84430225D01*
X93489162Y-84681734D01*
X93542908Y-84790205D01*
X93579499Y-85013151D01*
X93572494Y-85331126D01*
X93528384Y-85677402D01*
X93453665Y-85985255D01*
X93417261Y-86081333D01*
X93430898Y-86169509D01*
X93555249Y-86282601D01*
X93808967Y-86435172D01*
X93998335Y-86535005D01*
X94679548Y-86919718D01*
X95204589Y-87294215D01*
X95570283Y-87655524D01*
X95773458Y-88000674D01*
X95817333Y-88238919D01*
X95747382Y-88457956D01*
X95560509Y-88717305D01*
X95291181Y-88981421D01*
X94973867Y-89214755D01*
X94754834Y-89334657D01*
X94545549Y-89434278D01*
X94413569Y-89500802D01*
X94394604Y-89512156D01*
X94417587Y-89590021D01*
X94506455Y-89757806D01*
X94542454Y-89818284D01*
X94687815Y-90186193D01*
X94699175Y-90559701D01*
X94576649Y-90888657D01*
X94539857Y-90939940D01*
X94471249Y-91028680D01*
X94406820Y-91105643D01*
X94334695Y-91171668D01*
X94243000Y-91227596D01*
X94119861Y-91274266D01*
X93953404Y-91312518D01*
X93731755Y-91343191D01*
X93443040Y-91367126D01*
X93075385Y-91385162D01*
X92616915Y-91398138D01*
X92055757Y-91406895D01*
X91380037Y-91412273D01*
X90577879Y-91415110D01*
X89637412Y-91416247D01*
X88546759Y-91416524D01*
X87799371Y-91416629D01*
X86798365Y-91417735D01*
X85845928Y-91420517D01*
X84955742Y-91424829D01*
X84141488Y-91430521D01*
X83416848Y-91437447D01*
X82795504Y-91445458D01*
X82291136Y-91454406D01*
X81917428Y-91464143D01*
X81688060Y-91474521D01*
X81617162Y-91483481D01*
X81566060Y-91594321D01*
X81527653Y-91857682D01*
X81501263Y-92279763D01*
X81490162Y-92645420D01*
X81466333Y-93741805D01*
X80831333Y-94013173D01*
X80467670Y-94160171D01*
X80103896Y-94293471D01*
X79813819Y-94386153D01*
X79793707Y-94391620D01*
X79540307Y-94449684D01*
X79388944Y-94449479D01*
X79281504Y-94387744D01*
X79253709Y-94361328D01*
X79182525Y-94269255D01*
X79163688Y-94157314D01*
X79202292Y-93984939D01*
X79303427Y-93711563D01*
X79349744Y-93596334D01*
X79349709Y-93537529D01*
X79264311Y-93539758D01*
X79071997Y-93608589D01*
X78751213Y-93749587D01*
X78744571Y-93752619D01*
X77819008Y-94146110D01*
X77005860Y-94428202D01*
X76292717Y-94601919D01*
X75667169Y-94670282D01*
X75116803Y-94636316D01*
X75116333Y-94636239D01*
X74672561Y-94517263D01*
X74372724Y-94318936D01*
X74203577Y-94024903D01*
X74151877Y-93618809D01*
X74158608Y-93453575D01*
X74208074Y-93104106D01*
X74318097Y-92790164D01*
X74512923Y-92437646D01*
X74629585Y-92242169D01*
X75667100Y-92242169D01*
X75733794Y-92535369D01*
X75906221Y-92853551D01*
X76144363Y-93135496D01*
X76354177Y-93293207D01*
X76671275Y-93395521D01*
X77086873Y-93428689D01*
X77546025Y-93395180D01*
X77993787Y-93297466D01*
X78235002Y-93208655D01*
X78604265Y-92987985D01*
X79009303Y-92651942D01*
X79413645Y-92238300D01*
X79780822Y-91784834D01*
X80074364Y-91329320D01*
X80105708Y-91270980D01*
X80266205Y-90970666D01*
X80378798Y-90793445D01*
X80472746Y-90711676D01*
X80577310Y-90697724D01*
X80691650Y-90717533D01*
X80946279Y-90759735D01*
X81148833Y-90777220D01*
X81307257Y-90833457D01*
X81339333Y-90928500D01*
X81406581Y-91044009D01*
X81575367Y-91086485D01*
X81796254Y-91059577D01*
X82019803Y-90966934D01*
X82147515Y-90868848D01*
X82288368Y-90701623D01*
X82307630Y-90663654D01*
X83129873Y-90663654D01*
X83187106Y-90748855D01*
X83223166Y-90767567D01*
X83452182Y-90790110D01*
X83631314Y-90651817D01*
X83679985Y-90568067D01*
X83770655Y-90358536D01*
X83791584Y-90304132D01*
X85135286Y-90304132D01*
X85139583Y-90378166D01*
X85218825Y-90449839D01*
X85393675Y-90481171D01*
X85595157Y-90471636D01*
X85754292Y-90420708D01*
X85794326Y-90383163D01*
X85795183Y-90274982D01*
X85756990Y-90249107D01*
X85667824Y-90141636D01*
X85690008Y-89913903D01*
X85824003Y-89563239D01*
X85904006Y-89397847D01*
X86157674Y-89003037D01*
X86437793Y-88773441D01*
X86719650Y-88706000D01*
X86808713Y-88732025D01*
X86832683Y-88826578D01*
X86788115Y-89014372D01*
X86671564Y-89320122D01*
X86615308Y-89454440D01*
X86483710Y-89822236D01*
X86458396Y-90070715D01*
X86542806Y-90215084D01*
X86740381Y-90270550D01*
X86800333Y-90272333D01*
X86977890Y-90230500D01*
X87118194Y-90132024D01*
X87185156Y-90017439D01*
X87142688Y-89927279D01*
X87117833Y-89915725D01*
X87032995Y-89844515D01*
X87027639Y-89703540D01*
X87086750Y-89525445D01*
X87262529Y-89525445D01*
X87353675Y-89847293D01*
X87490029Y-90022376D01*
X87782076Y-90198173D01*
X88084834Y-90210166D01*
X88372731Y-90058640D01*
X88423134Y-90011896D01*
X88555811Y-89856409D01*
X88605955Y-89701477D01*
X88592571Y-89473560D01*
X88581752Y-89398062D01*
X88580591Y-89389460D01*
X88790000Y-89389460D01*
X88842486Y-89703837D01*
X88982201Y-89900713D01*
X89182524Y-89964827D01*
X89416837Y-89880914D01*
X89512668Y-89803846D01*
X89651873Y-89692376D01*
X89742021Y-89698866D01*
X89803659Y-89761512D01*
X89990753Y-89872351D01*
X90220696Y-89874971D01*
X90381733Y-89789733D01*
X90456487Y-89649472D01*
X90472754Y-89533568D01*
X90616623Y-89533568D01*
X90619541Y-89616977D01*
X90714224Y-89636903D01*
X90769150Y-89637333D01*
X90990600Y-89581315D01*
X91137744Y-89489166D01*
X91247420Y-89339476D01*
X91383891Y-89081694D01*
X91519821Y-88768176D01*
X91535605Y-88727166D01*
X91672439Y-88395432D01*
X91783640Y-88201780D01*
X91885851Y-88120319D01*
X91930148Y-88113333D01*
X92053106Y-88156268D01*
X92081728Y-88295096D01*
X92015054Y-88544854D01*
X91882724Y-88855628D01*
X91777473Y-89119151D01*
X91722406Y-89334139D01*
X91723556Y-89427858D01*
X91850613Y-89555936D01*
X92055690Y-89613373D01*
X92255979Y-89582516D01*
X92304766Y-89551754D01*
X92418272Y-89412716D01*
X92395083Y-89319358D01*
X92303666Y-89298666D01*
X92197361Y-89237361D01*
X92193448Y-89074248D01*
X92289527Y-88840534D01*
X92346000Y-88748333D01*
X92514217Y-88494333D01*
X92514775Y-88764778D01*
X92589107Y-89089370D01*
X92787240Y-89336923D01*
X93074051Y-89471114D01*
X93211130Y-89484933D01*
X93492725Y-89463019D01*
X93667736Y-89371334D01*
X93796078Y-89170964D01*
X93836590Y-89078701D01*
X93904752Y-88870325D01*
X93901816Y-88681845D01*
X93829183Y-88432870D01*
X93729751Y-88100184D01*
X93711683Y-87888953D01*
X93774815Y-87772215D01*
X93824955Y-87745089D01*
X93971319Y-87764975D01*
X94076496Y-87910388D01*
X94090953Y-87965166D01*
X94116109Y-88092166D01*
X94163707Y-88086151D01*
X94252840Y-87990854D01*
X94339080Y-87862881D01*
X94377998Y-87758840D01*
X94378000Y-87758484D01*
X94303916Y-87604523D01*
X94120140Y-87462200D01*
X93884386Y-87368636D01*
X93744951Y-87351333D01*
X93454074Y-87413509D01*
X93281830Y-87590300D01*
X93237423Y-87867097D01*
X93280120Y-88089248D01*
X93355756Y-88459082D01*
X93325363Y-88704931D01*
X93189893Y-88822684D01*
X93108000Y-88833000D01*
X92943017Y-88794425D01*
X92885491Y-88647214D01*
X92883509Y-88621333D01*
X92870547Y-88433488D01*
X92862343Y-88343187D01*
X92794281Y-88323937D01*
X92692977Y-88362885D01*
X92576300Y-88406189D01*
X92564695Y-88328051D01*
X92575969Y-88280746D01*
X92567613Y-88060166D01*
X92426105Y-87920603D01*
X92176330Y-87882263D01*
X92096472Y-87891409D01*
X91799208Y-87895429D01*
X91513242Y-87837526D01*
X91312441Y-87779642D01*
X91195298Y-87804791D01*
X91112353Y-87895526D01*
X91036899Y-88100954D01*
X91041649Y-88241998D01*
X91039438Y-88439847D01*
X90974146Y-88689178D01*
X90955160Y-88736308D01*
X90827092Y-89032765D01*
X90699334Y-89328348D01*
X90693863Y-89341000D01*
X90616623Y-89533568D01*
X90472754Y-89533568D01*
X90481068Y-89474338D01*
X90453014Y-89335741D01*
X90398666Y-89298666D01*
X90324144Y-89256392D01*
X90340917Y-89120593D01*
X90453472Y-88877803D01*
X90652666Y-88536666D01*
X90848602Y-88209613D01*
X90954159Y-88006123D01*
X90973870Y-87909522D01*
X90912265Y-87903137D01*
X90812316Y-87949182D01*
X90587864Y-88002855D01*
X90278764Y-87991724D01*
X90261313Y-87989206D01*
X89961166Y-87983959D01*
X89691517Y-88078086D01*
X89421381Y-88289849D01*
X89119774Y-88637511D01*
X89085185Y-88682424D01*
X88884735Y-88991807D01*
X88798300Y-89263524D01*
X88790000Y-89389460D01*
X88580591Y-89389460D01*
X88526857Y-88991448D01*
X88509116Y-88722537D01*
X88530331Y-88563430D01*
X88592309Y-88486230D01*
X88641833Y-88469076D01*
X88761521Y-88497093D01*
X88790000Y-88622180D01*
X88829177Y-88755839D01*
X88895833Y-88769500D01*
X88972215Y-88668598D01*
X89001666Y-88490524D01*
X88928775Y-88251191D01*
X88741075Y-88091803D01*
X88485024Y-88040666D01*
X88317700Y-88073795D01*
X88094893Y-88187535D01*
X87982702Y-88351314D01*
X87968850Y-88600562D01*
X88026907Y-88913110D01*
X88087096Y-89190553D01*
X88098089Y-89357446D01*
X88057498Y-89465978D01*
X87998494Y-89533791D01*
X87828805Y-89618968D01*
X87677102Y-89564156D01*
X87586436Y-89396831D01*
X87578272Y-89265584D01*
X87544937Y-89095634D01*
X87448506Y-89043126D01*
X87342554Y-89125926D01*
X87317391Y-89178591D01*
X87262529Y-89525445D01*
X87086750Y-89525445D01*
X87106029Y-89467363D01*
X87242658Y-89170781D01*
X87371414Y-88881223D01*
X87416877Y-88692876D01*
X87388261Y-88565116D01*
X87382285Y-88555072D01*
X87212191Y-88419586D01*
X86982716Y-88382711D01*
X86771299Y-88449711D01*
X86707228Y-88509180D01*
X86620508Y-88599845D01*
X86606667Y-88548505D01*
X86608607Y-88536666D01*
X86574923Y-88437299D01*
X86525166Y-88430833D01*
X86429020Y-88407367D01*
X86450963Y-88301414D01*
X86520933Y-88214933D01*
X86561759Y-88139818D01*
X86459530Y-88114147D01*
X86411711Y-88113333D01*
X86212838Y-88174651D01*
X85959084Y-88339332D01*
X85844444Y-88435911D01*
X85597828Y-88684395D01*
X85494793Y-88855983D01*
X85531772Y-88957568D01*
X85565908Y-88974111D01*
X85571502Y-89057333D01*
X85509847Y-89247181D01*
X85402554Y-89485286D01*
X85241162Y-89832986D01*
X85157030Y-90089103D01*
X85135286Y-90304132D01*
X83791584Y-90304132D01*
X83878461Y-90078305D01*
X83919924Y-89962183D01*
X84068244Y-89649131D01*
X84266867Y-89379988D01*
X84487813Y-89176488D01*
X84703104Y-89060366D01*
X84884760Y-89053354D01*
X84983918Y-89135673D01*
X85060449Y-89197131D01*
X85176062Y-89137323D01*
X85228831Y-89091677D01*
X85358601Y-88935405D01*
X85403333Y-88817220D01*
X85343616Y-88682669D01*
X85175763Y-88661292D01*
X84916722Y-88752124D01*
X84731929Y-88855494D01*
X84321681Y-89110518D01*
X84160509Y-88894646D01*
X84010340Y-88744566D01*
X83842660Y-88721409D01*
X83770002Y-88736333D01*
X83581770Y-88839412D01*
X83540666Y-88961613D01*
X83576428Y-89098315D01*
X83625333Y-89129333D01*
X83693815Y-89160756D01*
X83693833Y-89269037D01*
X83619635Y-89475195D01*
X83465469Y-89800249D01*
X83413666Y-89902733D01*
X83237509Y-90266216D01*
X83144792Y-90511315D01*
X83129873Y-90663654D01*
X82307630Y-90663654D01*
X82354602Y-90571064D01*
X82355333Y-90562022D01*
X82414651Y-90456461D01*
X82568181Y-90285374D01*
X82729242Y-90133887D01*
X82979009Y-89873619D01*
X83201051Y-89575100D01*
X83288056Y-89422795D01*
X83394142Y-89188624D01*
X83426293Y-89041648D01*
X83389147Y-88919060D01*
X83332136Y-88825903D01*
X83175033Y-88675112D01*
X83014665Y-88648657D01*
X82899753Y-88747949D01*
X82879264Y-88812805D01*
X82910461Y-88933319D01*
X83026458Y-88960000D01*
X83153527Y-88988044D01*
X83190271Y-89089478D01*
X83137389Y-89290253D01*
X83041443Y-89516988D01*
X82922466Y-89719948D01*
X82760623Y-89927013D01*
X82592055Y-90100194D01*
X82452904Y-90201501D01*
X82386835Y-90205058D01*
X82381196Y-90104933D01*
X82406963Y-89874283D01*
X82458217Y-89547751D01*
X82529043Y-89159982D01*
X82613522Y-88745618D01*
X82704979Y-88342449D01*
X82775116Y-88022315D01*
X87109758Y-88022315D01*
X87193594Y-88138014D01*
X87202500Y-88141926D01*
X87350663Y-88186453D01*
X87457223Y-88151873D01*
X87486158Y-88133203D01*
X87644016Y-87966434D01*
X87718648Y-87764853D01*
X87707935Y-87578388D01*
X87609760Y-87456970D01*
X87543217Y-87442128D01*
X92532574Y-87442128D01*
X92614744Y-87623362D01*
X92696914Y-87702069D01*
X92901874Y-87818478D01*
X93030845Y-87787137D01*
X93093332Y-87615208D01*
X93062817Y-87384153D01*
X92922841Y-87231438D01*
X92735273Y-87199080D01*
X92574025Y-87283985D01*
X92532574Y-87442128D01*
X87543217Y-87442128D01*
X87515742Y-87436000D01*
X87348649Y-87498337D01*
X87210086Y-87651092D01*
X87122855Y-87842879D01*
X87109758Y-88022315D01*
X82775116Y-88022315D01*
X82778317Y-88007708D01*
X82824035Y-87737557D01*
X82835966Y-87572109D01*
X82828051Y-87541828D01*
X82710686Y-87536319D01*
X82502038Y-87631713D01*
X82230901Y-87809519D01*
X81926069Y-88051244D01*
X81669182Y-88286111D01*
X81188211Y-88755223D01*
X80923770Y-88518945D01*
X80714226Y-88365806D01*
X80488422Y-88296522D01*
X80230818Y-88282666D01*
X79942797Y-88300311D01*
X79744482Y-88372198D01*
X79558226Y-88526753D01*
X79554820Y-88530153D01*
X79404900Y-88706087D01*
X79330973Y-88889059D01*
X79308032Y-89150581D01*
X79307333Y-89237900D01*
X79319270Y-89514569D01*
X79374404Y-89715275D01*
X79501719Y-89912274D01*
X79646524Y-90083501D01*
X79985715Y-90468842D01*
X79470420Y-90935158D01*
X79043137Y-91281886D01*
X78588775Y-91582345D01*
X78144465Y-91816600D01*
X77747336Y-91964715D01*
X77472291Y-92008000D01*
X77149384Y-91959765D01*
X76905265Y-91830691D01*
X76777563Y-91644222D01*
X76767333Y-91568787D01*
X76747254Y-91456995D01*
X76655741Y-91421656D01*
X76449833Y-91443648D01*
X76146906Y-91557075D01*
X75886279Y-91768524D01*
X75712888Y-92032152D01*
X75667100Y-92242169D01*
X74629585Y-92242169D01*
X74675720Y-92164868D01*
X74755784Y-91994198D01*
X74764239Y-91886804D01*
X74712210Y-91803852D01*
X74698516Y-91789754D01*
X74594578Y-91635800D01*
X74582278Y-91444666D01*
X74663556Y-91175118D01*
X74735302Y-91008143D01*
X74900885Y-90643287D01*
X74629854Y-90500143D01*
X74263403Y-90259582D01*
X73987466Y-89984227D01*
X73830013Y-89706018D01*
X73803999Y-89557090D01*
X73885508Y-89277940D01*
X74117410Y-89009798D01*
X74480769Y-88764764D01*
X74956648Y-88554936D01*
X75526111Y-88392414D01*
X75674827Y-88361749D01*
X75953831Y-88307163D01*
X76155274Y-88265621D01*
X76233488Y-88246720D01*
X76227211Y-88166023D01*
X76191442Y-87978129D01*
X76175380Y-87904831D01*
X76150488Y-87508531D01*
X76274123Y-87193328D01*
X76547595Y-86956648D01*
X76694033Y-86885531D01*
X77060486Y-86789142D01*
X77544139Y-86743179D01*
X78100519Y-86747708D01*
X78685155Y-86802794D01*
X79136975Y-86881934D01*
X79504753Y-86949359D01*
X79729074Y-86962698D01*
X79799820Y-86932205D01*
X79870940Y-86806827D01*
X79981705Y-86656632D01*
X80075869Y-86551710D01*
X80169755Y-86510588D01*
X80316085Y-86529250D01*
X80567577Y-86603676D01*
X80588860Y-86610361D01*
X81128894Y-86747381D01*
X81636827Y-86815535D01*
X82068765Y-86810857D01*
X82295279Y-86764514D01*
X82535660Y-86629853D01*
X82852923Y-86357508D01*
X83249267Y-85946202D01*
X83655676Y-85519137D01*
X83989567Y-85222730D01*
X84272951Y-85047151D01*
X84527840Y-84982567D01*
X84776246Y-85019145D01*
X85039424Y-85146593D01*
X85310515Y-85311887D01*
X85796443Y-85019277D01*
X86069105Y-84868690D01*
X86303487Y-84763072D01*
X86439723Y-84726666D01*
X86610931Y-84761240D01*
X86819602Y-84844558D01*
X87002589Y-84946019D01*
X87096743Y-85035018D01*
X87099359Y-85046340D01*
X87147493Y-85155489D01*
X87220585Y-85264119D01*
X87295453Y-85344462D01*
X87378699Y-85354785D01*
X87511530Y-85283290D01*
X87735153Y-85118178D01*
X87738068Y-85115953D01*
X88050769Y-84906052D01*
X88277614Y-84815369D01*
X88408909Y-84845204D01*
X88434959Y-84996858D01*
X88430611Y-85023000D01*
X88414722Y-85173543D01*
X88455097Y-85217246D01*
X88568003Y-85147947D01*
X88769708Y-84959484D01*
X88872924Y-84855441D01*
X89112285Y-84625489D01*
X89250339Y-84525998D01*
X89285588Y-84557535D01*
X89216531Y-84720668D01*
X89213333Y-84726666D01*
X89150484Y-84878513D01*
X89148957Y-84944512D01*
X89240122Y-84936664D01*
X89442945Y-84882028D01*
X89668962Y-84807709D01*
X90166726Y-84649400D01*
X90715707Y-84502208D01*
X91269634Y-84376147D01*
X91782237Y-84281233D01*
X92207247Y-84227482D01*
X92388333Y-84219092D01*
X92869631Y-84273326D01*
G36*
X83691477Y-93975279D02*
G01*
X83698635Y-94224055D01*
X83700263Y-94315166D01*
X83693787Y-94617143D01*
X83665928Y-94819479D01*
X83625333Y-94886666D01*
X83565461Y-94813739D01*
X83545545Y-94653833D01*
X83566475Y-94414002D01*
X83611562Y-94127112D01*
X83620476Y-94082333D01*
X83657218Y-93918486D01*
X83679278Y-93878112D01*
X83691477Y-93975279D01*
G37*
X83691477Y-93975279D02*
X83698635Y-94224055D01*
X83700263Y-94315166D01*
X83693787Y-94617143D01*
X83665928Y-94819479D01*
X83625333Y-94886666D01*
X83565461Y-94813739D01*
X83545545Y-94653833D01*
X83566475Y-94414002D01*
X83611562Y-94127112D01*
X83620476Y-94082333D01*
X83657218Y-93918486D01*
X83679278Y-93878112D01*
X83691477Y-93975279D01*
G36*
X82658472Y-87710916D02*
G01*
X82640635Y-87799317D01*
X82560640Y-88009857D01*
X82430834Y-88312613D01*
X82263564Y-88677660D01*
X82232496Y-88743327D01*
X82056575Y-89116826D01*
X81910648Y-89433019D01*
X81808420Y-89661737D01*
X81763595Y-89772808D01*
X81762666Y-89777646D01*
X81731631Y-89878712D01*
X81655802Y-90064958D01*
X81644731Y-90090204D01*
X81548252Y-90319340D01*
X81479078Y-90502074D01*
X81478055Y-90505166D01*
X81363603Y-90608634D01*
X81143544Y-90649622D01*
X80871295Y-90623829D01*
X80690120Y-90568600D01*
X80599291Y-90525164D01*
X80564729Y-90465096D01*
X80592760Y-90352420D01*
X80689709Y-90151161D01*
X80800433Y-89941195D01*
X80952033Y-89666714D01*
X81079517Y-89455692D01*
X81157869Y-89349252D01*
X81162846Y-89345421D01*
X81226857Y-89392596D01*
X81315884Y-89559567D01*
X81372217Y-89703026D01*
X81513035Y-90103000D01*
X81474530Y-89679666D01*
X81441572Y-89403958D01*
X81401600Y-89184407D01*
X81382633Y-89118624D01*
X81404424Y-88984963D01*
X81519710Y-88779296D01*
X81701373Y-88531547D01*
X81922294Y-88271635D01*
X82155355Y-88029483D01*
X82373437Y-87835012D01*
X82549422Y-87718144D01*
X82656192Y-87708799D01*
X82658472Y-87710916D01*
G37*
X82658472Y-87710916D02*
X82640635Y-87799317D01*
X82560640Y-88009857D01*
X82430834Y-88312613D01*
X82263564Y-88677660D01*
X82232496Y-88743327D01*
X82056575Y-89116826D01*
X81910648Y-89433019D01*
X81808420Y-89661737D01*
X81763595Y-89772808D01*
X81762666Y-89777646D01*
X81731631Y-89878712D01*
X81655802Y-90064958D01*
X81644731Y-90090204D01*
X81548252Y-90319340D01*
X81479078Y-90502074D01*
X81478055Y-90505166D01*
X81363603Y-90608634D01*
X81143544Y-90649622D01*
X80871295Y-90623829D01*
X80690120Y-90568600D01*
X80599291Y-90525164D01*
X80564729Y-90465096D01*
X80592760Y-90352420D01*
X80689709Y-90151161D01*
X80800433Y-89941195D01*
X80952033Y-89666714D01*
X81079517Y-89455692D01*
X81157869Y-89349252D01*
X81162846Y-89345421D01*
X81226857Y-89392596D01*
X81315884Y-89559567D01*
X81372217Y-89703026D01*
X81513035Y-90103000D01*
X81474530Y-89679666D01*
X81441572Y-89403958D01*
X81401600Y-89184407D01*
X81382633Y-89118624D01*
X81404424Y-88984963D01*
X81519710Y-88779296D01*
X81701373Y-88531547D01*
X81922294Y-88271635D01*
X82155355Y-88029483D01*
X82373437Y-87835012D01*
X82549422Y-87718144D01*
X82656192Y-87708799D01*
X82658472Y-87710916D01*
G36*
X80670176Y-88842731D02*
G01*
X80907061Y-88950638D01*
X80948085Y-89016448D01*
X80919278Y-89137927D01*
X80809427Y-89342065D01*
X80625392Y-89628720D01*
X80441883Y-89900592D01*
X80296306Y-90108456D01*
X80211668Y-90219777D01*
X80200198Y-90230000D01*
X80134454Y-90173415D01*
X80093890Y-90124166D01*
X80008023Y-89975157D01*
X79909731Y-89757692D01*
X79903918Y-89743166D01*
X79846672Y-89416654D01*
X79925867Y-89138711D01*
X80110312Y-88933980D01*
X80368812Y-88827106D01*
X80670176Y-88842731D01*
G37*
X80670176Y-88842731D02*
X80907061Y-88950638D01*
X80948085Y-89016448D01*
X80919278Y-89137927D01*
X80809427Y-89342065D01*
X80625392Y-89628720D01*
X80441883Y-89900592D01*
X80296306Y-90108456D01*
X80211668Y-90219777D01*
X80200198Y-90230000D01*
X80134454Y-90173415D01*
X80093890Y-90124166D01*
X80008023Y-89975157D01*
X79909731Y-89757692D01*
X79903918Y-89743166D01*
X79846672Y-89416654D01*
X79925867Y-89138711D01*
X80110312Y-88933980D01*
X80368812Y-88827106D01*
X80670176Y-88842731D01*
G36*
X90180774Y-88187927D02*
G01*
X90188675Y-88325716D01*
X90135691Y-88560768D01*
X90039508Y-88840344D01*
X89917811Y-89111706D01*
X89810366Y-89292534D01*
X89628776Y-89494367D01*
X89487998Y-89546027D01*
X89402283Y-89447767D01*
X89382666Y-89284938D01*
X89422797Y-89050020D01*
X89527594Y-88790252D01*
X89673667Y-88537785D01*
X89837624Y-88324772D01*
X89996074Y-88183365D01*
X90125625Y-88145714D01*
X90180774Y-88187927D01*
G37*
X90180774Y-88187927D02*
X90188675Y-88325716D01*
X90135691Y-88560768D01*
X90039508Y-88840344D01*
X89917811Y-89111706D01*
X89810366Y-89292534D01*
X89628776Y-89494367D01*
X89487998Y-89546027D01*
X89402283Y-89447767D01*
X89382666Y-89284938D01*
X89422797Y-89050020D01*
X89527594Y-88790252D01*
X89673667Y-88537785D01*
X89837624Y-88324772D01*
X89996074Y-88183365D01*
X90125625Y-88145714D01*
X90180774Y-88187927D01*
D10*
X93051523Y-75545580D02*
X93051523Y-74545580D01*
X93289619Y-74545580D01*
X93432476Y-74593200D01*
X93527714Y-74688438D01*
X93575333Y-74783676D01*
X93622952Y-74974152D01*
X93622952Y-75117009D01*
X93575333Y-75307485D01*
X93527714Y-75402723D01*
X93432476Y-75497961D01*
X93289619Y-75545580D01*
X93051523Y-75545580D01*
X94575333Y-75545580D02*
X94003904Y-75545580D01*
X94289619Y-75545580D02*
X94289619Y-74545580D01*
X94194380Y-74688438D01*
X94099142Y-74783676D01*
X94003904Y-74831295D01*
X95527714Y-75545580D02*
X94956285Y-75545580D01*
X95242000Y-75545580D02*
X95242000Y-74545580D01*
X95146761Y-74688438D01*
X95051523Y-74783676D01*
X94956285Y-74831295D01*
X95908666Y-74640819D02*
X95956285Y-74593200D01*
X96051523Y-74545580D01*
X96289619Y-74545580D01*
X96384857Y-74593200D01*
X96432476Y-74640819D01*
X96480095Y-74736057D01*
X96480095Y-74831295D01*
X96432476Y-74974152D01*
X95861047Y-75545580D01*
X96480095Y-75545580D01*
X115555733Y-84685142D02*
X115508114Y-84732761D01*
X115365257Y-84780380D01*
X115270019Y-84780380D01*
X115127161Y-84732761D01*
X115031923Y-84637523D01*
X114984304Y-84542285D01*
X114936685Y-84351809D01*
X114936685Y-84208952D01*
X114984304Y-84018476D01*
X115031923Y-83923238D01*
X115127161Y-83828000D01*
X115270019Y-83780380D01*
X115365257Y-83780380D01*
X115508114Y-83828000D01*
X115555733Y-83875619D01*
X116508114Y-84780380D02*
X115936685Y-84780380D01*
X116222400Y-84780380D02*
X116222400Y-83780380D01*
X116127161Y-83923238D01*
X116031923Y-84018476D01*
X115936685Y-84066095D01*
X106233333Y-87107142D02*
X106185714Y-87154761D01*
X106042857Y-87202380D01*
X105947619Y-87202380D01*
X105804761Y-87154761D01*
X105709523Y-87059523D01*
X105661904Y-86964285D01*
X105614285Y-86773809D01*
X105614285Y-86630952D01*
X105661904Y-86440476D01*
X105709523Y-86345238D01*
X105804761Y-86250000D01*
X105947619Y-86202380D01*
X106042857Y-86202380D01*
X106185714Y-86250000D01*
X106233333Y-86297619D01*
X106614285Y-86297619D02*
X106661904Y-86250000D01*
X106757142Y-86202380D01*
X106995238Y-86202380D01*
X107090476Y-86250000D01*
X107138095Y-86297619D01*
X107185714Y-86392857D01*
X107185714Y-86488095D01*
X107138095Y-86630952D01*
X106566666Y-87202380D01*
X107185714Y-87202380D01*
X100083333Y-107357142D02*
X100035714Y-107404761D01*
X99892857Y-107452380D01*
X99797619Y-107452380D01*
X99654761Y-107404761D01*
X99559523Y-107309523D01*
X99511904Y-107214285D01*
X99464285Y-107023809D01*
X99464285Y-106880952D01*
X99511904Y-106690476D01*
X99559523Y-106595238D01*
X99654761Y-106500000D01*
X99797619Y-106452380D01*
X99892857Y-106452380D01*
X100035714Y-106500000D01*
X100083333Y-106547619D01*
X100416666Y-106452380D02*
X101035714Y-106452380D01*
X100702380Y-106833333D01*
X100845238Y-106833333D01*
X100940476Y-106880952D01*
X100988095Y-106928571D01*
X101035714Y-107023809D01*
X101035714Y-107261904D01*
X100988095Y-107357142D01*
X100940476Y-107404761D01*
X100845238Y-107452380D01*
X100559523Y-107452380D01*
X100464285Y-107404761D01*
X100416666Y-107357142D01*
X111583333Y-105357142D02*
X111535714Y-105404761D01*
X111392857Y-105452380D01*
X111297619Y-105452380D01*
X111154761Y-105404761D01*
X111059523Y-105309523D01*
X111011904Y-105214285D01*
X110964285Y-105023809D01*
X110964285Y-104880952D01*
X111011904Y-104690476D01*
X111059523Y-104595238D01*
X111154761Y-104500000D01*
X111297619Y-104452380D01*
X111392857Y-104452380D01*
X111535714Y-104500000D01*
X111583333Y-104547619D01*
X112440476Y-104785714D02*
X112440476Y-105452380D01*
X112202380Y-104404761D02*
X111964285Y-105119047D01*
X112583333Y-105119047D01*
X113091933Y-79400342D02*
X113044314Y-79447961D01*
X112901457Y-79495580D01*
X112806219Y-79495580D01*
X112663361Y-79447961D01*
X112568123Y-79352723D01*
X112520504Y-79257485D01*
X112472885Y-79067009D01*
X112472885Y-78924152D01*
X112520504Y-78733676D01*
X112568123Y-78638438D01*
X112663361Y-78543200D01*
X112806219Y-78495580D01*
X112901457Y-78495580D01*
X113044314Y-78543200D01*
X113091933Y-78590819D01*
X113949076Y-78495580D02*
X113758600Y-78495580D01*
X113663361Y-78543200D01*
X113615742Y-78590819D01*
X113520504Y-78733676D01*
X113472885Y-78924152D01*
X113472885Y-79305104D01*
X113520504Y-79400342D01*
X113568123Y-79447961D01*
X113663361Y-79495580D01*
X113853838Y-79495580D01*
X113949076Y-79447961D01*
X113996695Y-79400342D01*
X114044314Y-79305104D01*
X114044314Y-79067009D01*
X113996695Y-78971771D01*
X113949076Y-78924152D01*
X113853838Y-78876533D01*
X113663361Y-78876533D01*
X113568123Y-78924152D01*
X113520504Y-78971771D01*
X113472885Y-79067009D01*
X113833333Y-71357142D02*
X113785714Y-71404761D01*
X113642857Y-71452380D01*
X113547619Y-71452380D01*
X113404761Y-71404761D01*
X113309523Y-71309523D01*
X113261904Y-71214285D01*
X113214285Y-71023809D01*
X113214285Y-70880952D01*
X113261904Y-70690476D01*
X113309523Y-70595238D01*
X113404761Y-70500000D01*
X113547619Y-70452380D01*
X113642857Y-70452380D01*
X113785714Y-70500000D01*
X113833333Y-70547619D01*
X114166666Y-70452380D02*
X114833333Y-70452380D01*
X114404761Y-71452380D01*
X105083333Y-76357142D02*
X105035714Y-76404761D01*
X104892857Y-76452380D01*
X104797619Y-76452380D01*
X104654761Y-76404761D01*
X104559523Y-76309523D01*
X104511904Y-76214285D01*
X104464285Y-76023809D01*
X104464285Y-75880952D01*
X104511904Y-75690476D01*
X104559523Y-75595238D01*
X104654761Y-75500000D01*
X104797619Y-75452380D01*
X104892857Y-75452380D01*
X105035714Y-75500000D01*
X105083333Y-75547619D01*
X105654761Y-75880952D02*
X105559523Y-75833333D01*
X105511904Y-75785714D01*
X105464285Y-75690476D01*
X105464285Y-75642857D01*
X105511904Y-75547619D01*
X105559523Y-75500000D01*
X105654761Y-75452380D01*
X105845238Y-75452380D01*
X105940476Y-75500000D01*
X105988095Y-75547619D01*
X106035714Y-75642857D01*
X106035714Y-75690476D01*
X105988095Y-75785714D01*
X105940476Y-75833333D01*
X105845238Y-75880952D01*
X105654761Y-75880952D01*
X105559523Y-75928571D01*
X105511904Y-75976190D01*
X105464285Y-76071428D01*
X105464285Y-76261904D01*
X105511904Y-76357142D01*
X105559523Y-76404761D01*
X105654761Y-76452380D01*
X105845238Y-76452380D01*
X105940476Y-76404761D01*
X105988095Y-76357142D01*
X106035714Y-76261904D01*
X106035714Y-76071428D01*
X105988095Y-75976190D01*
X105940476Y-75928571D01*
X105845238Y-75880952D01*
X93051523Y-70008380D02*
X93051523Y-69008380D01*
X93289619Y-69008380D01*
X93432476Y-69056000D01*
X93527714Y-69151238D01*
X93575333Y-69246476D01*
X93622952Y-69436952D01*
X93622952Y-69579809D01*
X93575333Y-69770285D01*
X93527714Y-69865523D01*
X93432476Y-69960761D01*
X93289619Y-70008380D01*
X93051523Y-70008380D01*
X94575333Y-70008380D02*
X94003904Y-70008380D01*
X94289619Y-70008380D02*
X94289619Y-69008380D01*
X94194380Y-69151238D01*
X94099142Y-69246476D01*
X94003904Y-69294095D01*
X95527714Y-70008380D02*
X94956285Y-70008380D01*
X95242000Y-70008380D02*
X95242000Y-69008380D01*
X95146761Y-69151238D01*
X95051523Y-69246476D01*
X94956285Y-69294095D01*
X95861047Y-69008380D02*
X96480095Y-69008380D01*
X96146761Y-69389333D01*
X96289619Y-69389333D01*
X96384857Y-69436952D01*
X96432476Y-69484571D01*
X96480095Y-69579809D01*
X96480095Y-69817904D01*
X96432476Y-69913142D01*
X96384857Y-69960761D01*
X96289619Y-70008380D01*
X96003904Y-70008380D01*
X95908666Y-69960761D01*
X95861047Y-69913142D01*
X110666666Y-63678571D02*
X110333333Y-63678571D01*
X110333333Y-64202380D02*
X110333333Y-63202380D01*
X110809523Y-63202380D01*
X111714285Y-64202380D02*
X111142857Y-64202380D01*
X111428571Y-64202380D02*
X111428571Y-63202380D01*
X111333333Y-63345238D01*
X111238095Y-63440476D01*
X111142857Y-63488095D01*
X74940476Y-62952380D02*
X74940476Y-63666666D01*
X74892857Y-63809523D01*
X74797619Y-63904761D01*
X74654761Y-63952380D01*
X74559523Y-63952380D01*
X75369047Y-63047619D02*
X75416666Y-63000000D01*
X75511904Y-62952380D01*
X75750000Y-62952380D01*
X75845238Y-63000000D01*
X75892857Y-63047619D01*
X75940476Y-63142857D01*
X75940476Y-63238095D01*
X75892857Y-63380952D01*
X75321428Y-63952380D01*
X75940476Y-63952380D01*
X76845238Y-62952380D02*
X76369047Y-62952380D01*
X76321428Y-63428571D01*
X76369047Y-63380952D01*
X76464285Y-63333333D01*
X76702380Y-63333333D01*
X76797619Y-63380952D01*
X76845238Y-63428571D01*
X76892857Y-63523809D01*
X76892857Y-63761904D01*
X76845238Y-63857142D01*
X76797619Y-63904761D01*
X76702380Y-63952380D01*
X76464285Y-63952380D01*
X76369047Y-63904761D01*
X76321428Y-63857142D01*
X77440476Y-70202380D02*
X77440476Y-70916666D01*
X77392857Y-71059523D01*
X77297619Y-71154761D01*
X77154761Y-71202380D01*
X77059523Y-71202380D01*
X77869047Y-70297619D02*
X77916666Y-70250000D01*
X78011904Y-70202380D01*
X78250000Y-70202380D01*
X78345238Y-70250000D01*
X78392857Y-70297619D01*
X78440476Y-70392857D01*
X78440476Y-70488095D01*
X78392857Y-70630952D01*
X77821428Y-71202380D01*
X78440476Y-71202380D01*
X79297619Y-70535714D02*
X79297619Y-71202380D01*
X79059523Y-70154761D02*
X78821428Y-70869047D01*
X79440476Y-70869047D01*
X119058276Y-62926380D02*
X119058276Y-63640666D01*
X119010657Y-63783523D01*
X118915419Y-63878761D01*
X118772561Y-63926380D01*
X118677323Y-63926380D01*
X119486847Y-63021619D02*
X119534466Y-62974000D01*
X119629704Y-62926380D01*
X119867800Y-62926380D01*
X119963038Y-62974000D01*
X120010657Y-63021619D01*
X120058276Y-63116857D01*
X120058276Y-63212095D01*
X120010657Y-63354952D01*
X119439228Y-63926380D01*
X120058276Y-63926380D01*
X120391609Y-62926380D02*
X121010657Y-62926380D01*
X120677323Y-63307333D01*
X120820180Y-63307333D01*
X120915419Y-63354952D01*
X120963038Y-63402571D01*
X121010657Y-63497809D01*
X121010657Y-63735904D01*
X120963038Y-63831142D01*
X120915419Y-63878761D01*
X120820180Y-63926380D01*
X120534466Y-63926380D01*
X120439228Y-63878761D01*
X120391609Y-63831142D01*
X108164333Y-81376780D02*
X107831000Y-80900590D01*
X107592904Y-81376780D02*
X107592904Y-80376780D01*
X107973857Y-80376780D01*
X108069095Y-80424400D01*
X108116714Y-80472019D01*
X108164333Y-80567257D01*
X108164333Y-80710114D01*
X108116714Y-80805352D01*
X108069095Y-80852971D01*
X107973857Y-80900590D01*
X107592904Y-80900590D01*
X109116714Y-81376780D02*
X108545285Y-81376780D01*
X108831000Y-81376780D02*
X108831000Y-80376780D01*
X108735761Y-80519638D01*
X108640523Y-80614876D01*
X108545285Y-80662495D01*
X110907533Y-79546380D02*
X110574200Y-79070190D01*
X110336104Y-79546380D02*
X110336104Y-78546380D01*
X110717057Y-78546380D01*
X110812295Y-78594000D01*
X110859914Y-78641619D01*
X110907533Y-78736857D01*
X110907533Y-78879714D01*
X110859914Y-78974952D01*
X110812295Y-79022571D01*
X110717057Y-79070190D01*
X110336104Y-79070190D01*
X111288485Y-78641619D02*
X111336104Y-78594000D01*
X111431342Y-78546380D01*
X111669438Y-78546380D01*
X111764676Y-78594000D01*
X111812295Y-78641619D01*
X111859914Y-78736857D01*
X111859914Y-78832095D01*
X111812295Y-78974952D01*
X111240866Y-79546380D01*
X111859914Y-79546380D01*
X111277495Y-89063580D02*
X111277495Y-89873104D01*
X111325114Y-89968342D01*
X111372733Y-90015961D01*
X111467971Y-90063580D01*
X111658447Y-90063580D01*
X111753685Y-90015961D01*
X111801304Y-89968342D01*
X111848923Y-89873104D01*
X111848923Y-89063580D01*
X112848923Y-90063580D02*
X112277495Y-90063580D01*
X112563209Y-90063580D02*
X112563209Y-89063580D01*
X112467971Y-89206438D01*
X112372733Y-89301676D01*
X112277495Y-89349295D01*
X113944495Y-103262180D02*
X113944495Y-104071704D01*
X113992114Y-104166942D01*
X114039733Y-104214561D01*
X114134971Y-104262180D01*
X114325447Y-104262180D01*
X114420685Y-104214561D01*
X114468304Y-104166942D01*
X114515923Y-104071704D01*
X114515923Y-103262180D01*
X114944495Y-103357419D02*
X114992114Y-103309800D01*
X115087352Y-103262180D01*
X115325447Y-103262180D01*
X115420685Y-103309800D01*
X115468304Y-103357419D01*
X115515923Y-103452657D01*
X115515923Y-103547895D01*
X115468304Y-103690752D01*
X114896876Y-104262180D01*
X115515923Y-104262180D01*
X110738095Y-74202380D02*
X110738095Y-75011904D01*
X110785714Y-75107142D01*
X110833333Y-75154761D01*
X110928571Y-75202380D01*
X111119047Y-75202380D01*
X111214285Y-75154761D01*
X111261904Y-75107142D01*
X111309523Y-75011904D01*
X111309523Y-74202380D01*
X112261904Y-74202380D02*
X111785714Y-74202380D01*
X111738095Y-74678571D01*
X111785714Y-74630952D01*
X111880952Y-74583333D01*
X112119047Y-74583333D01*
X112214285Y-74630952D01*
X112261904Y-74678571D01*
X112309523Y-74773809D01*
X112309523Y-75011904D01*
X112261904Y-75107142D01*
X112214285Y-75154761D01*
X112119047Y-75202380D01*
X111880952Y-75202380D01*
X111785714Y-75154761D01*
X111738095Y-75107142D01*
X108653333Y-87127142D02*
X108605714Y-87174761D01*
X108462857Y-87222380D01*
X108367619Y-87222380D01*
X108224761Y-87174761D01*
X108129523Y-87079523D01*
X108081904Y-86984285D01*
X108034285Y-86793809D01*
X108034285Y-86650952D01*
X108081904Y-86460476D01*
X108129523Y-86365238D01*
X108224761Y-86270000D01*
X108367619Y-86222380D01*
X108462857Y-86222380D01*
X108605714Y-86270000D01*
X108653333Y-86317619D01*
X109558095Y-86222380D02*
X109081904Y-86222380D01*
X109034285Y-86698571D01*
X109081904Y-86650952D01*
X109177142Y-86603333D01*
X109415238Y-86603333D01*
X109510476Y-86650952D01*
X109558095Y-86698571D01*
X109605714Y-86793809D01*
X109605714Y-87031904D01*
X109558095Y-87127142D01*
X109510476Y-87174761D01*
X109415238Y-87222380D01*
X109177142Y-87222380D01*
X109081904Y-87174761D01*
X109034285Y-87127142D01*
X95923380Y-105017676D02*
X94923380Y-105017676D01*
X94923380Y-104779580D01*
X94971000Y-104636723D01*
X95066238Y-104541485D01*
X95161476Y-104493866D01*
X95351952Y-104446247D01*
X95494809Y-104446247D01*
X95685285Y-104493866D01*
X95780523Y-104541485D01*
X95875761Y-104636723D01*
X95923380Y-104779580D01*
X95923380Y-105017676D01*
X95923380Y-103493866D02*
X95923380Y-104065295D01*
X95923380Y-103779580D02*
X94923380Y-103779580D01*
X95066238Y-103874819D01*
X95161476Y-103970057D01*
X95209095Y-104065295D01*
X95923380Y-102541485D02*
X95923380Y-103112914D01*
X95923380Y-102827200D02*
X94923380Y-102827200D01*
X95066238Y-102922438D01*
X95161476Y-103017676D01*
X95209095Y-103112914D01*
X95923380Y-101589104D02*
X95923380Y-102160533D01*
X95923380Y-101874819D02*
X94923380Y-101874819D01*
X95066238Y-101970057D01*
X95161476Y-102065295D01*
X95209095Y-102160533D01*
X93051523Y-64471180D02*
X93051523Y-63471180D01*
X93289619Y-63471180D01*
X93432476Y-63518800D01*
X93527714Y-63614038D01*
X93575333Y-63709276D01*
X93622952Y-63899752D01*
X93622952Y-64042609D01*
X93575333Y-64233085D01*
X93527714Y-64328323D01*
X93432476Y-64423561D01*
X93289619Y-64471180D01*
X93051523Y-64471180D01*
X94575333Y-64471180D02*
X94003904Y-64471180D01*
X94289619Y-64471180D02*
X94289619Y-63471180D01*
X94194380Y-63614038D01*
X94099142Y-63709276D01*
X94003904Y-63756895D01*
X95527714Y-64471180D02*
X94956285Y-64471180D01*
X95242000Y-64471180D02*
X95242000Y-63471180D01*
X95146761Y-63614038D01*
X95051523Y-63709276D01*
X94956285Y-63756895D01*
X96384857Y-63804514D02*
X96384857Y-64471180D01*
X96146761Y-63423561D02*
X95908666Y-64137847D01*
X96527714Y-64137847D01*
X93983276Y-55193680D02*
X93983276Y-55907966D01*
X93935657Y-56050823D01*
X93840419Y-56146061D01*
X93697561Y-56193680D01*
X93602323Y-56193680D01*
X94411847Y-55288919D02*
X94459466Y-55241300D01*
X94554704Y-55193680D01*
X94792800Y-55193680D01*
X94888038Y-55241300D01*
X94935657Y-55288919D01*
X94983276Y-55384157D01*
X94983276Y-55479395D01*
X94935657Y-55622252D01*
X94364228Y-56193680D01*
X94983276Y-56193680D01*
X95840419Y-55193680D02*
X95649942Y-55193680D01*
X95554704Y-55241300D01*
X95507085Y-55288919D01*
X95411847Y-55431776D01*
X95364228Y-55622252D01*
X95364228Y-56003204D01*
X95411847Y-56098442D01*
X95459466Y-56146061D01*
X95554704Y-56193680D01*
X95745180Y-56193680D01*
X95840419Y-56146061D01*
X95888038Y-56098442D01*
X95935657Y-56003204D01*
X95935657Y-55765109D01*
X95888038Y-55669871D01*
X95840419Y-55622252D01*
X95745180Y-55574633D01*
X95554704Y-55574633D01*
X95459466Y-55622252D01*
X95411847Y-55669871D01*
X95364228Y-55765109D01*
X95952380Y-99666666D02*
X95476190Y-100000000D01*
X95952380Y-100238095D02*
X94952380Y-100238095D01*
X94952380Y-99857142D01*
X95000000Y-99761904D01*
X95047619Y-99714285D01*
X95142857Y-99666666D01*
X95285714Y-99666666D01*
X95380952Y-99714285D01*
X95428571Y-99761904D01*
X95476190Y-99857142D01*
X95476190Y-100238095D01*
X94952380Y-99333333D02*
X94952380Y-98714285D01*
X95333333Y-99047619D01*
X95333333Y-98904761D01*
X95380952Y-98809523D01*
X95428571Y-98761904D01*
X95523809Y-98714285D01*
X95761904Y-98714285D01*
X95857142Y-98761904D01*
X95904761Y-98809523D01*
X95952380Y-98904761D01*
X95952380Y-99190476D01*
X95904761Y-99285714D01*
X95857142Y-99333333D01*
X121408780Y-103976466D02*
X120932590Y-104309800D01*
X121408780Y-104547895D02*
X120408780Y-104547895D01*
X120408780Y-104166942D01*
X120456400Y-104071704D01*
X120504019Y-104024085D01*
X120599257Y-103976466D01*
X120742114Y-103976466D01*
X120837352Y-104024085D01*
X120884971Y-104071704D01*
X120932590Y-104166942D01*
X120932590Y-104547895D01*
X120742114Y-103119323D02*
X121408780Y-103119323D01*
X120361161Y-103357419D02*
X121075447Y-103595514D01*
X121075447Y-102976466D01*
X121408780Y-101289146D02*
X120932590Y-101622480D01*
X121408780Y-101860575D02*
X120408780Y-101860575D01*
X120408780Y-101479622D01*
X120456400Y-101384384D01*
X120504019Y-101336765D01*
X120599257Y-101289146D01*
X120742114Y-101289146D01*
X120837352Y-101336765D01*
X120884971Y-101384384D01*
X120932590Y-101479622D01*
X120932590Y-101860575D01*
X120408780Y-100384384D02*
X120408780Y-100860575D01*
X120884971Y-100908194D01*
X120837352Y-100860575D01*
X120789733Y-100765337D01*
X120789733Y-100527241D01*
X120837352Y-100432003D01*
X120884971Y-100384384D01*
X120980209Y-100336765D01*
X121218304Y-100336765D01*
X121313542Y-100384384D01*
X121361161Y-100432003D01*
X121408780Y-100527241D01*
X121408780Y-100765337D01*
X121361161Y-100860575D01*
X121313542Y-100908194D01*
X121408780Y-98601826D02*
X120932590Y-98935160D01*
X121408780Y-99173255D02*
X120408780Y-99173255D01*
X120408780Y-98792302D01*
X120456400Y-98697064D01*
X120504019Y-98649445D01*
X120599257Y-98601826D01*
X120742114Y-98601826D01*
X120837352Y-98649445D01*
X120884971Y-98697064D01*
X120932590Y-98792302D01*
X120932590Y-99173255D01*
X120408780Y-97744683D02*
X120408780Y-97935160D01*
X120456400Y-98030398D01*
X120504019Y-98078017D01*
X120646876Y-98173255D01*
X120837352Y-98220874D01*
X121218304Y-98220874D01*
X121313542Y-98173255D01*
X121361161Y-98125636D01*
X121408780Y-98030398D01*
X121408780Y-97839921D01*
X121361161Y-97744683D01*
X121313542Y-97697064D01*
X121218304Y-97649445D01*
X120980209Y-97649445D01*
X120884971Y-97697064D01*
X120837352Y-97744683D01*
X120789733Y-97839921D01*
X120789733Y-98030398D01*
X120837352Y-98125636D01*
X120884971Y-98173255D01*
X120980209Y-98220874D01*
X121408780Y-95916666D02*
X120932590Y-96250000D01*
X121408780Y-96488095D02*
X120408780Y-96488095D01*
X120408780Y-96107142D01*
X120456400Y-96011904D01*
X120504019Y-95964285D01*
X120599257Y-95916666D01*
X120742114Y-95916666D01*
X120837352Y-95964285D01*
X120884971Y-96011904D01*
X120932590Y-96107142D01*
X120932590Y-96488095D01*
X120408780Y-95583333D02*
X120408780Y-94916666D01*
X121408780Y-95345238D01*
X121408780Y-93416666D02*
X120932590Y-93750000D01*
X121408780Y-93988095D02*
X120408780Y-93988095D01*
X120408780Y-93607142D01*
X120456400Y-93511904D01*
X120504019Y-93464285D01*
X120599257Y-93416666D01*
X120742114Y-93416666D01*
X120837352Y-93464285D01*
X120884971Y-93511904D01*
X120932590Y-93607142D01*
X120932590Y-93988095D01*
X120837352Y-92845238D02*
X120789733Y-92940476D01*
X120742114Y-92988095D01*
X120646876Y-93035714D01*
X120599257Y-93035714D01*
X120504019Y-92988095D01*
X120456400Y-92940476D01*
X120408780Y-92845238D01*
X120408780Y-92654761D01*
X120456400Y-92559523D01*
X120504019Y-92511904D01*
X120599257Y-92464285D01*
X120646876Y-92464285D01*
X120742114Y-92511904D01*
X120789733Y-92559523D01*
X120837352Y-92654761D01*
X120837352Y-92845238D01*
X120884971Y-92940476D01*
X120932590Y-92988095D01*
X121027828Y-93035714D01*
X121218304Y-93035714D01*
X121313542Y-92988095D01*
X121361161Y-92940476D01*
X121408780Y-92845238D01*
X121408780Y-92654761D01*
X121361161Y-92559523D01*
X121313542Y-92511904D01*
X121218304Y-92464285D01*
X121027828Y-92464285D01*
X120932590Y-92511904D01*
X120884971Y-92559523D01*
X120837352Y-92654761D01*
X103046761Y-57966133D02*
X103094380Y-57823276D01*
X103094380Y-57585180D01*
X103046761Y-57489942D01*
X102999142Y-57442323D01*
X102903904Y-57394704D01*
X102808666Y-57394704D01*
X102713428Y-57442323D01*
X102665809Y-57489942D01*
X102618190Y-57585180D01*
X102570571Y-57775657D01*
X102522952Y-57870895D01*
X102475333Y-57918514D01*
X102380095Y-57966133D01*
X102284857Y-57966133D01*
X102189619Y-57918514D01*
X102142000Y-57870895D01*
X102094380Y-57775657D01*
X102094380Y-57537561D01*
X102142000Y-57394704D01*
X102094380Y-57061371D02*
X103094380Y-56823276D01*
X102380095Y-56632800D01*
X103094380Y-56442323D01*
X102094380Y-56204228D01*
X103094380Y-55299466D02*
X103094380Y-55870895D01*
X103094380Y-55585180D02*
X102094380Y-55585180D01*
X102237238Y-55680419D01*
X102332476Y-55775657D01*
X102380095Y-55870895D01*
X105738095Y-110348780D02*
X105738095Y-111158304D01*
X105785714Y-111253542D01*
X105833333Y-111301161D01*
X105928571Y-111348780D01*
X106119047Y-111348780D01*
X106214285Y-111301161D01*
X106261904Y-111253542D01*
X106309523Y-111158304D01*
X106309523Y-110348780D01*
X107214285Y-110682114D02*
X107214285Y-111348780D01*
X106976190Y-110301161D02*
X106738095Y-111015447D01*
X107357142Y-111015447D01*
X105079895Y-103338380D02*
X105079895Y-104147904D01*
X105127514Y-104243142D01*
X105175133Y-104290761D01*
X105270371Y-104338380D01*
X105460847Y-104338380D01*
X105556085Y-104290761D01*
X105603704Y-104243142D01*
X105651323Y-104147904D01*
X105651323Y-103338380D01*
X106032276Y-103338380D02*
X106651323Y-103338380D01*
X106317990Y-103719333D01*
X106460847Y-103719333D01*
X106556085Y-103766952D01*
X106603704Y-103814571D01*
X106651323Y-103909809D01*
X106651323Y-104147904D01*
X106603704Y-104243142D01*
X106556085Y-104290761D01*
X106460847Y-104338380D01*
X106175133Y-104338380D01*
X106079895Y-104290761D01*
X106032276Y-104243142D01*
X110173473Y-111253542D02*
X110125854Y-111301161D01*
X109982997Y-111348780D01*
X109887759Y-111348780D01*
X109744901Y-111301161D01*
X109649663Y-111205923D01*
X109602044Y-111110685D01*
X109554425Y-110920209D01*
X109554425Y-110777352D01*
X109602044Y-110586876D01*
X109649663Y-110491638D01*
X109744901Y-110396400D01*
X109887759Y-110348780D01*
X109982997Y-110348780D01*
X110125854Y-110396400D01*
X110173473Y-110444019D01*
X110649663Y-111348780D02*
X110840140Y-111348780D01*
X110935378Y-111301161D01*
X110982997Y-111253542D01*
X111078235Y-111110685D01*
X111125854Y-110920209D01*
X111125854Y-110539257D01*
X111078235Y-110444019D01*
X111030616Y-110396400D01*
X110935378Y-110348780D01*
X110744901Y-110348780D01*
X110649663Y-110396400D01*
X110602044Y-110444019D01*
X110554425Y-110539257D01*
X110554425Y-110777352D01*
X110602044Y-110872590D01*
X110649663Y-110920209D01*
X110744901Y-110967828D01*
X110935378Y-110967828D01*
X111030616Y-110920209D01*
X111078235Y-110872590D01*
X111125854Y-110777352D01*
X121190476Y-88952380D02*
X121190476Y-89666666D01*
X121142857Y-89809523D01*
X121047619Y-89904761D01*
X120904761Y-89952380D01*
X120809523Y-89952380D01*
X121619047Y-89047619D02*
X121666666Y-89000000D01*
X121761904Y-88952380D01*
X122000000Y-88952380D01*
X122095238Y-89000000D01*
X122142857Y-89047619D01*
X122190476Y-89142857D01*
X122190476Y-89238095D01*
X122142857Y-89380952D01*
X121571428Y-89952380D01*
X122190476Y-89952380D01*
X122523809Y-88952380D02*
X123190476Y-88952380D01*
X122761904Y-89952380D01*
M02*
