G04 #@! TF.GenerationSoftware,KiCad,Pcbnew,5.1.5+dfsg1-2build2*
G04 #@! TF.CreationDate,2020-12-26T12:26:29-05:00*
G04 #@! TF.ProjectId,usb-solder,7573622d-736f-46c6-9465-722e6b696361,rev?*
G04 #@! TF.SameCoordinates,Original*
G04 #@! TF.FileFunction,Legend,Top*
G04 #@! TF.FilePolarity,Positive*
%FSLAX46Y46*%
G04 Gerber Fmt 4.6, Leading zero omitted, Abs format (unit mm)*
G04 Created by KiCad (PCBNEW 5.1.5+dfsg1-2build2) date 2020-12-26 12:26:29*
%MOMM*%
%LPD*%
G04 APERTURE LIST*
%ADD10C,0.120000*%
%ADD11C,0.100000*%
%ADD12C,0.150000*%
G04 APERTURE END LIST*
D10*
X98142000Y-74243200D02*
X92742000Y-74243200D01*
X98142000Y-70943200D02*
X92742000Y-70943200D01*
X98142000Y-74243200D02*
X98142000Y-70943200D01*
X98142000Y-68706000D02*
X92742000Y-68706000D01*
X98142000Y-65406000D02*
X92742000Y-65406000D01*
X98142000Y-68706000D02*
X98142000Y-65406000D01*
X107485264Y-62691600D02*
X106281136Y-62691600D01*
X107485264Y-64511600D02*
X106281136Y-64511600D01*
X87353200Y-62672800D02*
X84753200Y-62672800D01*
X87353200Y-47972800D02*
X87353200Y-62672800D01*
X78153200Y-62672800D02*
X78153200Y-60772800D01*
X80853200Y-62672800D02*
X78153200Y-62672800D01*
X78153200Y-47972800D02*
X87353200Y-47972800D01*
X78153200Y-56772800D02*
X78153200Y-47972800D01*
X87553200Y-61822800D02*
X87553200Y-62872800D01*
X86503200Y-62872800D02*
X87553200Y-62872800D01*
X85785000Y-69358200D02*
X85785000Y-70688200D01*
X84455000Y-69358200D02*
X85785000Y-69358200D01*
X83185000Y-69358200D02*
X83185000Y-72018200D01*
X83185000Y-72018200D02*
X80585000Y-72018200D01*
X83185000Y-69358200D02*
X80585000Y-69358200D01*
X80585000Y-69358200D02*
X80585000Y-72018200D01*
X127117800Y-48224000D02*
X112617800Y-48224000D01*
X112617800Y-48224000D02*
X112617800Y-48724000D01*
X112617800Y-48724000D02*
X113617800Y-48724000D01*
X113617800Y-48724000D02*
X113617800Y-56724000D01*
X113617800Y-60224000D02*
X113617800Y-62224000D01*
X113617800Y-62224000D02*
X126117800Y-62224000D01*
X126117800Y-62224000D02*
X126117800Y-60224000D01*
X126117800Y-56724000D02*
X126117800Y-48724000D01*
X126117800Y-48724000D02*
X127117800Y-48724000D01*
X127117800Y-48724000D02*
X127117800Y-48224000D01*
X123867800Y-62474000D02*
X122867800Y-62474000D01*
X110571800Y-85090000D02*
X110571800Y-88090000D01*
X113811800Y-84090000D02*
X113811800Y-86090000D01*
X111633000Y-93913800D02*
X109683000Y-93913800D01*
X111633000Y-93913800D02*
X113583000Y-93913800D01*
X111633000Y-102783800D02*
X109683000Y-102783800D01*
X111633000Y-102783800D02*
X115083000Y-102783800D01*
X109383000Y-72701200D02*
X103373000Y-72701200D01*
X107133000Y-65881200D02*
X103373000Y-65881200D01*
X103373000Y-72701200D02*
X103373000Y-71441200D01*
X103373000Y-65881200D02*
X103373000Y-67141200D01*
X64767400Y-57560200D02*
X62482400Y-57560200D01*
X64767400Y-59030200D02*
X64767400Y-57560200D01*
X62482400Y-59030200D02*
X64767400Y-59030200D01*
X62482400Y-69915914D02*
X64767400Y-69915914D01*
X64767400Y-69915914D02*
X64767400Y-68445914D01*
X64767400Y-68445914D02*
X62482400Y-68445914D01*
X62482400Y-80801628D02*
X64767400Y-80801628D01*
X64767400Y-80801628D02*
X64767400Y-79331628D01*
X64767400Y-79331628D02*
X62482400Y-79331628D01*
X62482400Y-91687342D02*
X64767400Y-91687342D01*
X64767400Y-91687342D02*
X64767400Y-90217342D01*
X64767400Y-90217342D02*
X62482400Y-90217342D01*
X62482400Y-64475200D02*
X64767400Y-64475200D01*
X64767400Y-64475200D02*
X64767400Y-63005200D01*
X64767400Y-63005200D02*
X62482400Y-63005200D01*
X64767400Y-73890914D02*
X62482400Y-73890914D01*
X64767400Y-75360914D02*
X64767400Y-73890914D01*
X62482400Y-75360914D02*
X64767400Y-75360914D01*
X64767400Y-84776628D02*
X62482400Y-84776628D01*
X64767400Y-86246628D02*
X64767400Y-84776628D01*
X62482400Y-86246628D02*
X64767400Y-86246628D01*
X64767400Y-95662342D02*
X62482400Y-95662342D01*
X64767400Y-97132342D02*
X64767400Y-95662342D01*
X62482400Y-97132342D02*
X64767400Y-97132342D01*
X64767400Y-61190200D02*
X62482400Y-61190200D01*
X64767400Y-62660200D02*
X64767400Y-61190200D01*
X62482400Y-62660200D02*
X64767400Y-62660200D01*
X62482400Y-73545914D02*
X64767400Y-73545914D01*
X64767400Y-73545914D02*
X64767400Y-72075914D01*
X64767400Y-72075914D02*
X62482400Y-72075914D01*
X62482400Y-84431628D02*
X64767400Y-84431628D01*
X64767400Y-84431628D02*
X64767400Y-82961628D01*
X64767400Y-82961628D02*
X62482400Y-82961628D01*
X62482400Y-95317342D02*
X64767400Y-95317342D01*
X64767400Y-95317342D02*
X64767400Y-93847342D01*
X64767400Y-93847342D02*
X62482400Y-93847342D01*
X64767400Y-59375200D02*
X62482400Y-59375200D01*
X64767400Y-60845200D02*
X64767400Y-59375200D01*
X62482400Y-60845200D02*
X64767400Y-60845200D01*
X64767400Y-64820200D02*
X62482400Y-64820200D01*
X64767400Y-66290200D02*
X64767400Y-64820200D01*
X62482400Y-66290200D02*
X64767400Y-66290200D01*
X62482400Y-71730914D02*
X64767400Y-71730914D01*
X64767400Y-71730914D02*
X64767400Y-70260914D01*
X64767400Y-70260914D02*
X62482400Y-70260914D01*
X62482400Y-77175914D02*
X64767400Y-77175914D01*
X64767400Y-77175914D02*
X64767400Y-75705914D01*
X64767400Y-75705914D02*
X62482400Y-75705914D01*
X64767400Y-81146628D02*
X62482400Y-81146628D01*
X64767400Y-82616628D02*
X64767400Y-81146628D01*
X62482400Y-82616628D02*
X64767400Y-82616628D01*
X62482400Y-88061628D02*
X64767400Y-88061628D01*
X64767400Y-88061628D02*
X64767400Y-86591628D01*
X64767400Y-86591628D02*
X62482400Y-86591628D01*
X64767400Y-92032342D02*
X62482400Y-92032342D01*
X64767400Y-93502342D02*
X64767400Y-92032342D01*
X62482400Y-93502342D02*
X64767400Y-93502342D01*
X62482400Y-98947342D02*
X64767400Y-98947342D01*
X64767400Y-98947342D02*
X64767400Y-97477342D01*
X64767400Y-97477342D02*
X62482400Y-97477342D01*
X64767400Y-101103056D02*
X62482400Y-101103056D01*
X64767400Y-102573056D02*
X64767400Y-101103056D01*
X62482400Y-102573056D02*
X64767400Y-102573056D01*
X62482400Y-113458770D02*
X64767400Y-113458770D01*
X64767400Y-113458770D02*
X64767400Y-111988770D01*
X64767400Y-111988770D02*
X62482400Y-111988770D01*
X62482400Y-124344484D02*
X64767400Y-124344484D01*
X64767400Y-124344484D02*
X64767400Y-122874484D01*
X64767400Y-122874484D02*
X62482400Y-122874484D01*
X62482400Y-135230200D02*
X64767400Y-135230200D01*
X64767400Y-135230200D02*
X64767400Y-133760200D01*
X64767400Y-133760200D02*
X62482400Y-133760200D01*
X62482400Y-108018056D02*
X64767400Y-108018056D01*
X64767400Y-108018056D02*
X64767400Y-106548056D01*
X64767400Y-106548056D02*
X62482400Y-106548056D01*
X64767400Y-117433770D02*
X62482400Y-117433770D01*
X64767400Y-118903770D02*
X64767400Y-117433770D01*
X62482400Y-118903770D02*
X64767400Y-118903770D01*
X62482400Y-129789484D02*
X64767400Y-129789484D01*
X64767400Y-129789484D02*
X64767400Y-128319484D01*
X64767400Y-128319484D02*
X62482400Y-128319484D01*
X62482400Y-140675200D02*
X64767400Y-140675200D01*
X64767400Y-140675200D02*
X64767400Y-139205200D01*
X64767400Y-139205200D02*
X62482400Y-139205200D01*
X62482400Y-106203056D02*
X64767400Y-106203056D01*
X64767400Y-106203056D02*
X64767400Y-104733056D01*
X64767400Y-104733056D02*
X62482400Y-104733056D01*
X64767400Y-115618770D02*
X62482400Y-115618770D01*
X64767400Y-117088770D02*
X64767400Y-115618770D01*
X62482400Y-117088770D02*
X64767400Y-117088770D01*
X62482400Y-127974484D02*
X64767400Y-127974484D01*
X64767400Y-127974484D02*
X64767400Y-126504484D01*
X64767400Y-126504484D02*
X62482400Y-126504484D01*
X64767400Y-137390200D02*
X62482400Y-137390200D01*
X64767400Y-138860200D02*
X64767400Y-137390200D01*
X62482400Y-138860200D02*
X64767400Y-138860200D01*
X62482400Y-104388056D02*
X64767400Y-104388056D01*
X64767400Y-104388056D02*
X64767400Y-102918056D01*
X64767400Y-102918056D02*
X62482400Y-102918056D01*
X62482400Y-109833056D02*
X64767400Y-109833056D01*
X64767400Y-109833056D02*
X64767400Y-108363056D01*
X64767400Y-108363056D02*
X62482400Y-108363056D01*
X64767400Y-113803770D02*
X62482400Y-113803770D01*
X64767400Y-115273770D02*
X64767400Y-113803770D01*
X62482400Y-115273770D02*
X64767400Y-115273770D01*
X62482400Y-120718770D02*
X64767400Y-120718770D01*
X64767400Y-120718770D02*
X64767400Y-119248770D01*
X64767400Y-119248770D02*
X62482400Y-119248770D01*
X64767400Y-124689484D02*
X62482400Y-124689484D01*
X64767400Y-126159484D02*
X64767400Y-124689484D01*
X62482400Y-126159484D02*
X64767400Y-126159484D01*
X64767400Y-130134484D02*
X62482400Y-130134484D01*
X64767400Y-131604484D02*
X64767400Y-130134484D01*
X62482400Y-131604484D02*
X64767400Y-131604484D01*
X62482400Y-137045200D02*
X64767400Y-137045200D01*
X64767400Y-137045200D02*
X64767400Y-135575200D01*
X64767400Y-135575200D02*
X62482400Y-135575200D01*
X62482400Y-142490200D02*
X64767400Y-142490200D01*
X64767400Y-142490200D02*
X64767400Y-141020200D01*
X64767400Y-141020200D02*
X62482400Y-141020200D01*
X70477600Y-137521400D02*
X70477600Y-135236400D01*
X70477600Y-135236400D02*
X69007600Y-135236400D01*
X69007600Y-135236400D02*
X69007600Y-137521400D01*
X83777600Y-137521400D02*
X83777600Y-135236400D01*
X83777600Y-135236400D02*
X82307600Y-135236400D01*
X82307600Y-135236400D02*
X82307600Y-137521400D01*
X97147600Y-137521400D02*
X97147600Y-135236400D01*
X97147600Y-135236400D02*
X95677600Y-135236400D01*
X95677600Y-135236400D02*
X95677600Y-137521400D01*
X109157600Y-135236400D02*
X109157600Y-137521400D01*
X110627600Y-135236400D02*
X109157600Y-135236400D01*
X110627600Y-137521400D02*
X110627600Y-135236400D01*
X74452600Y-135236400D02*
X74452600Y-137521400D01*
X75922600Y-135236400D02*
X74452600Y-135236400D01*
X75922600Y-137521400D02*
X75922600Y-135236400D01*
X89222600Y-137521400D02*
X89222600Y-135236400D01*
X89222600Y-135236400D02*
X87752600Y-135236400D01*
X87752600Y-135236400D02*
X87752600Y-137521400D01*
X102592600Y-137521400D02*
X102592600Y-135236400D01*
X102592600Y-135236400D02*
X101122600Y-135236400D01*
X101122600Y-135236400D02*
X101122600Y-137521400D01*
X116072600Y-137521400D02*
X116072600Y-135236400D01*
X116072600Y-135236400D02*
X114602600Y-135236400D01*
X114602600Y-135236400D02*
X114602600Y-137521400D01*
X72637600Y-135236400D02*
X72637600Y-137521400D01*
X74107600Y-135236400D02*
X72637600Y-135236400D01*
X74107600Y-137521400D02*
X74107600Y-135236400D01*
X85937600Y-135236400D02*
X85937600Y-137521400D01*
X87407600Y-135236400D02*
X85937600Y-135236400D01*
X87407600Y-137521400D02*
X87407600Y-135236400D01*
X99307600Y-135236400D02*
X99307600Y-137521400D01*
X100777600Y-135236400D02*
X99307600Y-135236400D01*
X100777600Y-137521400D02*
X100777600Y-135236400D01*
X112787600Y-135236400D02*
X112787600Y-137521400D01*
X114257600Y-135236400D02*
X112787600Y-135236400D01*
X114257600Y-137521400D02*
X114257600Y-135236400D01*
X70822600Y-135236400D02*
X70822600Y-137521400D01*
X72292600Y-135236400D02*
X70822600Y-135236400D01*
X72292600Y-137521400D02*
X72292600Y-135236400D01*
X77737600Y-137521400D02*
X77737600Y-135236400D01*
X77737600Y-135236400D02*
X76267600Y-135236400D01*
X76267600Y-135236400D02*
X76267600Y-137521400D01*
X85592600Y-137521400D02*
X85592600Y-135236400D01*
X85592600Y-135236400D02*
X84122600Y-135236400D01*
X84122600Y-135236400D02*
X84122600Y-137521400D01*
X91037600Y-137521400D02*
X91037600Y-135236400D01*
X91037600Y-135236400D02*
X89567600Y-135236400D01*
X89567600Y-135236400D02*
X89567600Y-137521400D01*
X97492600Y-135236400D02*
X97492600Y-137521400D01*
X98962600Y-135236400D02*
X97492600Y-135236400D01*
X98962600Y-137521400D02*
X98962600Y-135236400D01*
X102937600Y-135236400D02*
X102937600Y-137521400D01*
X104407600Y-135236400D02*
X102937600Y-135236400D01*
X104407600Y-137521400D02*
X104407600Y-135236400D01*
X110972600Y-135236400D02*
X110972600Y-137521400D01*
X112442600Y-135236400D02*
X110972600Y-135236400D01*
X112442600Y-137521400D02*
X112442600Y-135236400D01*
X116417600Y-135236400D02*
X116417600Y-137521400D01*
X117887600Y-135236400D02*
X116417600Y-135236400D01*
X117887600Y-137521400D02*
X117887600Y-135236400D01*
X123877600Y-137521400D02*
X123877600Y-135236400D01*
X123877600Y-135236400D02*
X122407600Y-135236400D01*
X122407600Y-135236400D02*
X122407600Y-137521400D01*
X135215000Y-142490200D02*
X137500000Y-142490200D01*
X135215000Y-141020200D02*
X135215000Y-142490200D01*
X137500000Y-141020200D02*
X135215000Y-141020200D01*
X135215000Y-131604484D02*
X137500000Y-131604484D01*
X135215000Y-130134484D02*
X135215000Y-131604484D01*
X137500000Y-130134484D02*
X135215000Y-130134484D01*
X129322600Y-137521400D02*
X129322600Y-135236400D01*
X129322600Y-135236400D02*
X127852600Y-135236400D01*
X127852600Y-135236400D02*
X127852600Y-137521400D01*
X135215000Y-137045200D02*
X137500000Y-137045200D01*
X135215000Y-135575200D02*
X135215000Y-137045200D01*
X137500000Y-135575200D02*
X135215000Y-135575200D01*
X135215000Y-126159484D02*
X137500000Y-126159484D01*
X135215000Y-124689484D02*
X135215000Y-126159484D01*
X137500000Y-124689484D02*
X135215000Y-124689484D01*
X127507600Y-137521400D02*
X127507600Y-135236400D01*
X127507600Y-135236400D02*
X126037600Y-135236400D01*
X126037600Y-135236400D02*
X126037600Y-137521400D01*
X135215000Y-138860200D02*
X137500000Y-138860200D01*
X135215000Y-137390200D02*
X135215000Y-138860200D01*
X137500000Y-137390200D02*
X135215000Y-137390200D01*
X135215000Y-127974484D02*
X137500000Y-127974484D01*
X135215000Y-126504484D02*
X135215000Y-127974484D01*
X137500000Y-126504484D02*
X135215000Y-126504484D01*
X124222600Y-135236400D02*
X124222600Y-137521400D01*
X125692600Y-135236400D02*
X124222600Y-135236400D01*
X125692600Y-137521400D02*
X125692600Y-135236400D01*
X129667600Y-135236400D02*
X129667600Y-137521400D01*
X131137600Y-135236400D02*
X129667600Y-135236400D01*
X131137600Y-137521400D02*
X131137600Y-135236400D01*
X137500000Y-139205200D02*
X135215000Y-139205200D01*
X135215000Y-139205200D02*
X135215000Y-140675200D01*
X135215000Y-140675200D02*
X137500000Y-140675200D01*
X137500000Y-133760200D02*
X135215000Y-133760200D01*
X135215000Y-133760200D02*
X135215000Y-135230200D01*
X135215000Y-135230200D02*
X137500000Y-135230200D01*
X137500000Y-128319484D02*
X135215000Y-128319484D01*
X135215000Y-128319484D02*
X135215000Y-129789484D01*
X135215000Y-129789484D02*
X137500000Y-129789484D01*
X137500000Y-122874484D02*
X135215000Y-122874484D01*
X135215000Y-122874484D02*
X135215000Y-124344484D01*
X135215000Y-124344484D02*
X137500000Y-124344484D01*
X137500000Y-119248770D02*
X135215000Y-119248770D01*
X135215000Y-119248770D02*
X135215000Y-120718770D01*
X135215000Y-120718770D02*
X137500000Y-120718770D01*
X137500000Y-108683057D02*
X135215000Y-108683057D01*
X135215000Y-108683057D02*
X135215000Y-110153057D01*
X135215000Y-110153057D02*
X137500000Y-110153057D01*
X137500000Y-97477342D02*
X135215000Y-97477342D01*
X135215000Y-97477342D02*
X135215000Y-98947342D01*
X135215000Y-98947342D02*
X137500000Y-98947342D01*
X137500000Y-86591628D02*
X135215000Y-86591628D01*
X135215000Y-86591628D02*
X135215000Y-88061628D01*
X135215000Y-88061628D02*
X137500000Y-88061628D01*
X137500000Y-113803770D02*
X135215000Y-113803770D01*
X135215000Y-113803770D02*
X135215000Y-115273770D01*
X135215000Y-115273770D02*
X137500000Y-115273770D01*
X137500000Y-102998056D02*
X135215000Y-102998056D01*
X135215000Y-102998056D02*
X135215000Y-104468056D01*
X135215000Y-104468056D02*
X137500000Y-104468056D01*
X135215000Y-93502342D02*
X137500000Y-93502342D01*
X135215000Y-92032342D02*
X135215000Y-93502342D01*
X137500000Y-92032342D02*
X135215000Y-92032342D01*
X135215000Y-82616628D02*
X137500000Y-82616628D01*
X135215000Y-81146628D02*
X135215000Y-82616628D01*
X137500000Y-81146628D02*
X135215000Y-81146628D01*
X137500000Y-115618770D02*
X135215000Y-115618770D01*
X135215000Y-115618770D02*
X135215000Y-117088770D01*
X135215000Y-117088770D02*
X137500000Y-117088770D01*
X137500000Y-104893056D02*
X135215000Y-104893056D01*
X135215000Y-104893056D02*
X135215000Y-106363056D01*
X135215000Y-106363056D02*
X137500000Y-106363056D01*
X137500000Y-93847342D02*
X135215000Y-93847342D01*
X135215000Y-93847342D02*
X135215000Y-95317342D01*
X135215000Y-95317342D02*
X137500000Y-95317342D01*
X135215000Y-84431628D02*
X137500000Y-84431628D01*
X135215000Y-82961628D02*
X135215000Y-84431628D01*
X137500000Y-82961628D02*
X135215000Y-82961628D01*
X137500000Y-117433770D02*
X135215000Y-117433770D01*
X135215000Y-117433770D02*
X135215000Y-118903770D01*
X135215000Y-118903770D02*
X137500000Y-118903770D01*
X137500000Y-111988770D02*
X135215000Y-111988770D01*
X135215000Y-111988770D02*
X135215000Y-113458770D01*
X135215000Y-113458770D02*
X137500000Y-113458770D01*
X135215000Y-108258056D02*
X137500000Y-108258056D01*
X135215000Y-106788056D02*
X135215000Y-108258056D01*
X137500000Y-106788056D02*
X135215000Y-106788056D01*
X135215000Y-102573056D02*
X137500000Y-102573056D01*
X135215000Y-101103056D02*
X135215000Y-102573056D01*
X137500000Y-101103056D02*
X135215000Y-101103056D01*
X135215000Y-97132342D02*
X137500000Y-97132342D01*
X135215000Y-95662342D02*
X135215000Y-97132342D01*
X137500000Y-95662342D02*
X135215000Y-95662342D01*
X135215000Y-91687342D02*
X137500000Y-91687342D01*
X135215000Y-90217342D02*
X135215000Y-91687342D01*
X137500000Y-90217342D02*
X135215000Y-90217342D01*
X137500000Y-84776628D02*
X135215000Y-84776628D01*
X135215000Y-84776628D02*
X135215000Y-86246628D01*
X135215000Y-86246628D02*
X137500000Y-86246628D01*
X137500000Y-79331628D02*
X135215000Y-79331628D01*
X135215000Y-79331628D02*
X135215000Y-80801628D01*
X135215000Y-80801628D02*
X137500000Y-80801628D01*
X135215000Y-77175914D02*
X137500000Y-77175914D01*
X135215000Y-75705914D02*
X135215000Y-77175914D01*
X137500000Y-75705914D02*
X135215000Y-75705914D01*
X135215000Y-66290200D02*
X137500000Y-66290200D01*
X135215000Y-64820200D02*
X135215000Y-66290200D01*
X137500000Y-64820200D02*
X135215000Y-64820200D01*
X137500000Y-70260914D02*
X135215000Y-70260914D01*
X135215000Y-70260914D02*
X135215000Y-71730914D01*
X135215000Y-71730914D02*
X137500000Y-71730914D01*
X135215000Y-60845200D02*
X137500000Y-60845200D01*
X135215000Y-59375200D02*
X135215000Y-60845200D01*
X137500000Y-59375200D02*
X135215000Y-59375200D01*
X135215000Y-73545914D02*
X137500000Y-73545914D01*
X135215000Y-72075914D02*
X135215000Y-73545914D01*
X137500000Y-72075914D02*
X135215000Y-72075914D01*
X137500000Y-61190200D02*
X135215000Y-61190200D01*
X135215000Y-61190200D02*
X135215000Y-62660200D01*
X135215000Y-62660200D02*
X137500000Y-62660200D01*
X137500000Y-73890914D02*
X135215000Y-73890914D01*
X135215000Y-73890914D02*
X135215000Y-75360914D01*
X135215000Y-75360914D02*
X137500000Y-75360914D01*
X135215000Y-69915914D02*
X137500000Y-69915914D01*
X135215000Y-68445914D02*
X135215000Y-69915914D01*
X137500000Y-68445914D02*
X135215000Y-68445914D01*
X135215000Y-64475200D02*
X137500000Y-64475200D01*
X135215000Y-63005200D02*
X135215000Y-64475200D01*
X137500000Y-63005200D02*
X135215000Y-63005200D01*
X137500000Y-57560200D02*
X135215000Y-57560200D01*
X135215000Y-57560200D02*
X135215000Y-59030200D01*
X135215000Y-59030200D02*
X137500000Y-59030200D01*
X97636000Y-104812200D02*
X97636000Y-102527200D01*
X96166000Y-104812200D02*
X97636000Y-104812200D01*
X96166000Y-102527200D02*
X96166000Y-104812200D01*
X98142000Y-63168800D02*
X98142000Y-59868800D01*
X98142000Y-59868800D02*
X92742000Y-59868800D01*
X98142000Y-63168800D02*
X92742000Y-63168800D01*
X54478500Y-58025200D02*
X54478500Y-58475200D01*
X52628500Y-58025200D02*
X54478500Y-58025200D01*
X50078500Y-65825200D02*
X50328500Y-65825200D01*
X50078500Y-58025200D02*
X50328500Y-58025200D01*
X52628500Y-65825200D02*
X54478500Y-65825200D01*
X54478500Y-65825200D02*
X54478500Y-65375200D01*
X55028500Y-60225200D02*
X55028500Y-60675200D01*
X55028500Y-60225200D02*
X54578500Y-60225200D01*
X55028500Y-71110914D02*
X54578500Y-71110914D01*
X55028500Y-71110914D02*
X55028500Y-71560914D01*
X54478500Y-76710914D02*
X54478500Y-76260914D01*
X52628500Y-76710914D02*
X54478500Y-76710914D01*
X50078500Y-68910914D02*
X50328500Y-68910914D01*
X50078500Y-76710914D02*
X50328500Y-76710914D01*
X52628500Y-68910914D02*
X54478500Y-68910914D01*
X54478500Y-68910914D02*
X54478500Y-69360914D01*
X55028500Y-81996628D02*
X54578500Y-81996628D01*
X55028500Y-81996628D02*
X55028500Y-82446628D01*
X54478500Y-87596628D02*
X54478500Y-87146628D01*
X52628500Y-87596628D02*
X54478500Y-87596628D01*
X50078500Y-79796628D02*
X50328500Y-79796628D01*
X50078500Y-87596628D02*
X50328500Y-87596628D01*
X52628500Y-79796628D02*
X54478500Y-79796628D01*
X54478500Y-79796628D02*
X54478500Y-80246628D01*
X55028500Y-92882342D02*
X54578500Y-92882342D01*
X55028500Y-92882342D02*
X55028500Y-93332342D01*
X54478500Y-98482342D02*
X54478500Y-98032342D01*
X52628500Y-98482342D02*
X54478500Y-98482342D01*
X50078500Y-90682342D02*
X50328500Y-90682342D01*
X50078500Y-98482342D02*
X50328500Y-98482342D01*
X52628500Y-90682342D02*
X54478500Y-90682342D01*
X54478500Y-90682342D02*
X54478500Y-91132342D01*
X55028500Y-103768056D02*
X54578500Y-103768056D01*
X55028500Y-103768056D02*
X55028500Y-104218056D01*
X54478500Y-109368056D02*
X54478500Y-108918056D01*
X52628500Y-109368056D02*
X54478500Y-109368056D01*
X50078500Y-101568056D02*
X50328500Y-101568056D01*
X50078500Y-109368056D02*
X50328500Y-109368056D01*
X52628500Y-101568056D02*
X54478500Y-101568056D01*
X54478500Y-101568056D02*
X54478500Y-102018056D01*
X55028500Y-114653770D02*
X54578500Y-114653770D01*
X55028500Y-114653770D02*
X55028500Y-115103770D01*
X54478500Y-120253770D02*
X54478500Y-119803770D01*
X52628500Y-120253770D02*
X54478500Y-120253770D01*
X50078500Y-112453770D02*
X50328500Y-112453770D01*
X50078500Y-120253770D02*
X50328500Y-120253770D01*
X52628500Y-112453770D02*
X54478500Y-112453770D01*
X54478500Y-112453770D02*
X54478500Y-112903770D01*
X54478500Y-123339484D02*
X54478500Y-123789484D01*
X52628500Y-123339484D02*
X54478500Y-123339484D01*
X50078500Y-131139484D02*
X50328500Y-131139484D01*
X50078500Y-123339484D02*
X50328500Y-123339484D01*
X52628500Y-131139484D02*
X54478500Y-131139484D01*
X54478500Y-131139484D02*
X54478500Y-130689484D01*
X55028500Y-125539484D02*
X55028500Y-125989484D01*
X55028500Y-125539484D02*
X54578500Y-125539484D01*
X55028500Y-136425200D02*
X54578500Y-136425200D01*
X55028500Y-136425200D02*
X55028500Y-136875200D01*
X54478500Y-142025200D02*
X54478500Y-141575200D01*
X52628500Y-142025200D02*
X54478500Y-142025200D01*
X50078500Y-134225200D02*
X50328500Y-134225200D01*
X50078500Y-142025200D02*
X50328500Y-142025200D01*
X52628500Y-134225200D02*
X54478500Y-134225200D01*
X54478500Y-134225200D02*
X54478500Y-134675200D01*
X69472600Y-145578900D02*
X69922600Y-145578900D01*
X69472600Y-147428900D02*
X69472600Y-145578900D01*
X77272600Y-149978900D02*
X77272600Y-149728900D01*
X69472600Y-149978900D02*
X69472600Y-149728900D01*
X77272600Y-147428900D02*
X77272600Y-145578900D01*
X77272600Y-145578900D02*
X76822600Y-145578900D01*
X71672600Y-145028900D02*
X72122600Y-145028900D01*
X71672600Y-145028900D02*
X71672600Y-145478900D01*
X82772600Y-145578900D02*
X83222600Y-145578900D01*
X82772600Y-147428900D02*
X82772600Y-145578900D01*
X90572600Y-149978900D02*
X90572600Y-149728900D01*
X82772600Y-149978900D02*
X82772600Y-149728900D01*
X90572600Y-147428900D02*
X90572600Y-145578900D01*
X90572600Y-145578900D02*
X90122600Y-145578900D01*
X84972600Y-145028900D02*
X85422600Y-145028900D01*
X84972600Y-145028900D02*
X84972600Y-145478900D01*
X96142600Y-145578900D02*
X96592600Y-145578900D01*
X96142600Y-147428900D02*
X96142600Y-145578900D01*
X103942600Y-149978900D02*
X103942600Y-149728900D01*
X96142600Y-149978900D02*
X96142600Y-149728900D01*
X103942600Y-147428900D02*
X103942600Y-145578900D01*
X103942600Y-145578900D02*
X103492600Y-145578900D01*
X98342600Y-145028900D02*
X98792600Y-145028900D01*
X98342600Y-145028900D02*
X98342600Y-145478900D01*
X109622600Y-145578900D02*
X110072600Y-145578900D01*
X109622600Y-147428900D02*
X109622600Y-145578900D01*
X117422600Y-149978900D02*
X117422600Y-149728900D01*
X109622600Y-149978900D02*
X109622600Y-149728900D01*
X117422600Y-147428900D02*
X117422600Y-145578900D01*
X117422600Y-145578900D02*
X116972600Y-145578900D01*
X111822600Y-145028900D02*
X112272600Y-145028900D01*
X111822600Y-145028900D02*
X111822600Y-145478900D01*
X122872600Y-145578900D02*
X123322600Y-145578900D01*
X122872600Y-147428900D02*
X122872600Y-145578900D01*
X130672600Y-149978900D02*
X130672600Y-149728900D01*
X122872600Y-149978900D02*
X122872600Y-149728900D01*
X130672600Y-147428900D02*
X130672600Y-145578900D01*
X130672600Y-145578900D02*
X130222600Y-145578900D01*
X125072600Y-145028900D02*
X125522600Y-145028900D01*
X125072600Y-145028900D02*
X125072600Y-145478900D01*
X145597100Y-142025200D02*
X145597100Y-141575200D01*
X147447100Y-142025200D02*
X145597100Y-142025200D01*
X149997100Y-134225200D02*
X149747100Y-134225200D01*
X149997100Y-142025200D02*
X149747100Y-142025200D01*
X147447100Y-134225200D02*
X145597100Y-134225200D01*
X145597100Y-134225200D02*
X145597100Y-134675200D01*
X145047100Y-139825200D02*
X145047100Y-139375200D01*
X145047100Y-139825200D02*
X145497100Y-139825200D01*
X145557500Y-131139484D02*
X145557500Y-130689484D01*
X147407500Y-131139484D02*
X145557500Y-131139484D01*
X149957500Y-123339484D02*
X149707500Y-123339484D01*
X149957500Y-131139484D02*
X149707500Y-131139484D01*
X147407500Y-123339484D02*
X145557500Y-123339484D01*
X145557500Y-123339484D02*
X145557500Y-123789484D01*
X145007500Y-128939484D02*
X145007500Y-128489484D01*
X145007500Y-128939484D02*
X145457500Y-128939484D01*
X145047100Y-118053770D02*
X145497100Y-118053770D01*
X145047100Y-118053770D02*
X145047100Y-117603770D01*
X145597100Y-112453770D02*
X145597100Y-112903770D01*
X147447100Y-112453770D02*
X145597100Y-112453770D01*
X149997100Y-120253770D02*
X149747100Y-120253770D01*
X149997100Y-112453770D02*
X149747100Y-112453770D01*
X147447100Y-120253770D02*
X145597100Y-120253770D01*
X145597100Y-120253770D02*
X145597100Y-119803770D01*
X145597100Y-109368056D02*
X145597100Y-108918056D01*
X147447100Y-109368056D02*
X145597100Y-109368056D01*
X149997100Y-101568056D02*
X149747100Y-101568056D01*
X149997100Y-109368056D02*
X149747100Y-109368056D01*
X147447100Y-101568056D02*
X145597100Y-101568056D01*
X145597100Y-101568056D02*
X145597100Y-102018056D01*
X145047100Y-107168056D02*
X145047100Y-106718056D01*
X145047100Y-107168056D02*
X145497100Y-107168056D01*
X145007500Y-96282342D02*
X145457500Y-96282342D01*
X145007500Y-96282342D02*
X145007500Y-95832342D01*
X145557500Y-90682342D02*
X145557500Y-91132342D01*
X147407500Y-90682342D02*
X145557500Y-90682342D01*
X149957500Y-98482342D02*
X149707500Y-98482342D01*
X149957500Y-90682342D02*
X149707500Y-90682342D01*
X147407500Y-98482342D02*
X145557500Y-98482342D01*
X145557500Y-98482342D02*
X145557500Y-98032342D01*
X145007500Y-85396628D02*
X145457500Y-85396628D01*
X145007500Y-85396628D02*
X145007500Y-84946628D01*
X145557500Y-79796628D02*
X145557500Y-80246628D01*
X147407500Y-79796628D02*
X145557500Y-79796628D01*
X149957500Y-87596628D02*
X149707500Y-87596628D01*
X149957500Y-79796628D02*
X149707500Y-79796628D01*
X147407500Y-87596628D02*
X145557500Y-87596628D01*
X145557500Y-87596628D02*
X145557500Y-87146628D01*
X145557500Y-76710914D02*
X145557500Y-76260914D01*
X147407500Y-76710914D02*
X145557500Y-76710914D01*
X149957500Y-68910914D02*
X149707500Y-68910914D01*
X149957500Y-76710914D02*
X149707500Y-76710914D01*
X147407500Y-68910914D02*
X145557500Y-68910914D01*
X145557500Y-68910914D02*
X145557500Y-69360914D01*
X145007500Y-74510914D02*
X145007500Y-74060914D01*
X145007500Y-74510914D02*
X145457500Y-74510914D01*
X145047100Y-63625200D02*
X145497100Y-63625200D01*
X145047100Y-63625200D02*
X145047100Y-63175200D01*
X145597100Y-58025200D02*
X145597100Y-58475200D01*
X147447100Y-58025200D02*
X145597100Y-58025200D01*
X149997100Y-65825200D02*
X149747100Y-65825200D01*
X149997100Y-58025200D02*
X149747100Y-58025200D01*
X147447100Y-65825200D02*
X145597100Y-65825200D01*
X145597100Y-65825200D02*
X145597100Y-65375200D01*
X96492800Y-54941300D02*
X96492800Y-54491300D01*
X96492800Y-54941300D02*
X96042800Y-54941300D01*
X90892800Y-54391300D02*
X91342800Y-54391300D01*
X90892800Y-52541300D02*
X90892800Y-54391300D01*
X98692800Y-49991300D02*
X98692800Y-50241300D01*
X90892800Y-49991300D02*
X90892800Y-50241300D01*
X98692800Y-52541300D02*
X98692800Y-54391300D01*
X98692800Y-54391300D02*
X98242800Y-54391300D01*
X126044000Y-105444600D02*
X124714000Y-105444600D01*
X126044000Y-104114600D02*
X126044000Y-105444600D01*
X126044000Y-102844600D02*
X123384000Y-102844600D01*
X123384000Y-102844600D02*
X123384000Y-87544600D01*
X126044000Y-102844600D02*
X126044000Y-87544600D01*
X126044000Y-87544600D02*
X123384000Y-87544600D01*
D11*
X103572000Y-61542800D02*
X103572000Y-61192800D01*
X103572000Y-61542800D02*
X104072000Y-61542800D01*
X103572000Y-51842800D02*
X103572000Y-52192800D01*
X103572000Y-51842800D02*
X104072000Y-51842800D01*
X108772000Y-51842800D02*
X108272000Y-51842800D01*
X108772000Y-51842800D02*
X108772000Y-52192800D01*
X108772000Y-61542800D02*
X108772000Y-61192800D01*
X108772000Y-61542800D02*
X108272000Y-61542800D01*
D10*
X60592800Y-65325200D02*
G75*
G03X60592800Y-65325200I-700000J0D01*
G01*
X60592800Y-76210914D02*
G75*
G03X60592800Y-76210914I-700000J0D01*
G01*
X60592800Y-87096628D02*
G75*
G03X60592800Y-87096628I-700000J0D01*
G01*
X60592800Y-97982342D02*
G75*
G03X60592800Y-97982342I-700000J0D01*
G01*
X57683200Y-58525200D02*
G75*
G03X57683200Y-58525200I-700000J0D01*
G01*
X66936800Y-64235199D02*
G75*
G03X66936800Y-64235199I-700000J0D01*
G01*
X57683200Y-69410914D02*
G75*
G03X57683200Y-69410914I-700000J0D01*
G01*
X66936800Y-75120913D02*
G75*
G03X66936800Y-75120913I-700000J0D01*
G01*
X57683200Y-80296628D02*
G75*
G03X57683200Y-80296628I-700000J0D01*
G01*
X66936800Y-86006627D02*
G75*
G03X66936800Y-86006627I-700000J0D01*
G01*
X57683200Y-91182342D02*
G75*
G03X57683200Y-91182342I-700000J0D01*
G01*
X66936800Y-96892341D02*
G75*
G03X66936800Y-96892341I-700000J0D01*
G01*
X57683200Y-63965200D02*
G75*
G03X57683200Y-63965200I-700000J0D01*
G01*
X57683200Y-74850914D02*
G75*
G03X57683200Y-74850914I-700000J0D01*
G01*
X57683200Y-85736628D02*
G75*
G03X57683200Y-85736628I-700000J0D01*
G01*
X57683200Y-96622342D02*
G75*
G03X57683200Y-96622342I-700000J0D01*
G01*
X57683200Y-61245200D02*
G75*
G03X57683200Y-61245200I-700000J0D01*
G01*
X57683200Y-72130914D02*
G75*
G03X57683200Y-72130914I-700000J0D01*
G01*
X57683200Y-83016628D02*
G75*
G03X57683200Y-83016628I-700000J0D01*
G01*
X57683200Y-93902342D02*
G75*
G03X57683200Y-93902342I-700000J0D01*
G01*
X60592800Y-59885200D02*
G75*
G03X60592800Y-59885200I-700000J0D01*
G01*
X60592800Y-70770914D02*
G75*
G03X60592800Y-70770914I-700000J0D01*
G01*
X60592800Y-81656628D02*
G75*
G03X60592800Y-81656628I-700000J0D01*
G01*
X60592800Y-92542342D02*
G75*
G03X60592800Y-92542342I-700000J0D01*
G01*
X60592800Y-108868056D02*
G75*
G03X60592800Y-108868056I-700000J0D01*
G01*
X60592800Y-119753770D02*
G75*
G03X60592800Y-119753770I-700000J0D01*
G01*
X60592800Y-130639484D02*
G75*
G03X60592800Y-130639484I-700000J0D01*
G01*
X60592800Y-141525200D02*
G75*
G03X60592800Y-141525200I-700000J0D01*
G01*
X57683200Y-102068056D02*
G75*
G03X57683200Y-102068056I-700000J0D01*
G01*
X66936800Y-107778055D02*
G75*
G03X66936800Y-107778055I-700000J0D01*
G01*
X57683200Y-112953770D02*
G75*
G03X57683200Y-112953770I-700000J0D01*
G01*
X66936800Y-118663769D02*
G75*
G03X66936800Y-118663769I-700000J0D01*
G01*
X57683200Y-123839484D02*
G75*
G03X57683200Y-123839484I-700000J0D01*
G01*
X66936800Y-129549483D02*
G75*
G03X66936800Y-129549483I-700000J0D01*
G01*
X57683200Y-134725200D02*
G75*
G03X57683200Y-134725200I-700000J0D01*
G01*
X66936800Y-140435199D02*
G75*
G03X66936800Y-140435199I-700000J0D01*
G01*
X57683200Y-107508056D02*
G75*
G03X57683200Y-107508056I-700000J0D01*
G01*
X57683200Y-118393770D02*
G75*
G03X57683200Y-118393770I-700000J0D01*
G01*
X57683200Y-129279484D02*
G75*
G03X57683200Y-129279484I-700000J0D01*
G01*
X57683200Y-140165200D02*
G75*
G03X57683200Y-140165200I-700000J0D01*
G01*
X57683200Y-104788056D02*
G75*
G03X57683200Y-104788056I-700000J0D01*
G01*
X57683200Y-115673770D02*
G75*
G03X57683200Y-115673770I-700000J0D01*
G01*
X57683200Y-126559484D02*
G75*
G03X57683200Y-126559484I-700000J0D01*
G01*
X57683200Y-137445200D02*
G75*
G03X57683200Y-137445200I-700000J0D01*
G01*
X60592800Y-103428056D02*
G75*
G03X60592800Y-103428056I-700000J0D01*
G01*
X60592800Y-114313770D02*
G75*
G03X60592800Y-114313770I-700000J0D01*
G01*
X60592800Y-125199484D02*
G75*
G03X60592800Y-125199484I-700000J0D01*
G01*
X60592800Y-136085200D02*
G75*
G03X60592800Y-136085200I-700000J0D01*
G01*
X77472600Y-140121400D02*
G75*
G03X77472600Y-140121400I-700000J0D01*
G01*
X90772600Y-140121400D02*
G75*
G03X90772600Y-140121400I-700000J0D01*
G01*
X104142600Y-140121400D02*
G75*
G03X104142600Y-140121400I-700000J0D01*
G01*
X117622600Y-140121400D02*
G75*
G03X117622600Y-140121400I-700000J0D01*
G01*
X70672600Y-143021400D02*
G75*
G03X70672600Y-143021400I-700000J0D01*
G01*
X76382599Y-133762800D02*
G75*
G03X76382599Y-133762800I-700000J0D01*
G01*
X83972600Y-143021400D02*
G75*
G03X83972600Y-143021400I-700000J0D01*
G01*
X89682599Y-133762800D02*
G75*
G03X89682599Y-133762800I-700000J0D01*
G01*
X97342600Y-143021400D02*
G75*
G03X97342600Y-143021400I-700000J0D01*
G01*
X103052599Y-133762800D02*
G75*
G03X103052599Y-133762800I-700000J0D01*
G01*
X110822600Y-143021400D02*
G75*
G03X110822600Y-143021400I-700000J0D01*
G01*
X116532599Y-133762800D02*
G75*
G03X116532599Y-133762800I-700000J0D01*
G01*
X76112600Y-143021400D02*
G75*
G03X76112600Y-143021400I-700000J0D01*
G01*
X89412600Y-143021400D02*
G75*
G03X89412600Y-143021400I-700000J0D01*
G01*
X102782600Y-143021400D02*
G75*
G03X102782600Y-143021400I-700000J0D01*
G01*
X116262600Y-143021400D02*
G75*
G03X116262600Y-143021400I-700000J0D01*
G01*
X73392600Y-143021400D02*
G75*
G03X73392600Y-143021400I-700000J0D01*
G01*
X86692600Y-143021400D02*
G75*
G03X86692600Y-143021400I-700000J0D01*
G01*
X100062600Y-143021400D02*
G75*
G03X100062600Y-143021400I-700000J0D01*
G01*
X113542600Y-143021400D02*
G75*
G03X113542600Y-143021400I-700000J0D01*
G01*
X72032600Y-140121400D02*
G75*
G03X72032600Y-140121400I-700000J0D01*
G01*
X85332600Y-140121400D02*
G75*
G03X85332600Y-140121400I-700000J0D01*
G01*
X98702600Y-140121400D02*
G75*
G03X98702600Y-140121400I-700000J0D01*
G01*
X112182600Y-140121400D02*
G75*
G03X112182600Y-140121400I-700000J0D01*
G01*
X130872600Y-140121400D02*
G75*
G03X130872600Y-140121400I-700000J0D01*
G01*
X140800000Y-134725200D02*
G75*
G03X140800000Y-134725200I-700000J0D01*
G01*
X140800000Y-123839484D02*
G75*
G03X140800000Y-123839484I-700000J0D01*
G01*
X124072600Y-143021400D02*
G75*
G03X124072600Y-143021400I-700000J0D01*
G01*
X129782599Y-133762800D02*
G75*
G03X129782599Y-133762800I-700000J0D01*
G01*
X143700000Y-141525200D02*
G75*
G03X143700000Y-141525200I-700000J0D01*
G01*
X134456400Y-135815199D02*
G75*
G03X134456400Y-135815199I-700000J0D01*
G01*
X143700000Y-130639484D02*
G75*
G03X143700000Y-130639484I-700000J0D01*
G01*
X134456400Y-124929483D02*
G75*
G03X134456400Y-124929483I-700000J0D01*
G01*
X129512600Y-143021400D02*
G75*
G03X129512600Y-143021400I-700000J0D01*
G01*
X143700000Y-136085200D02*
G75*
G03X143700000Y-136085200I-700000J0D01*
G01*
X143700000Y-125199484D02*
G75*
G03X143700000Y-125199484I-700000J0D01*
G01*
X126792600Y-143021400D02*
G75*
G03X126792600Y-143021400I-700000J0D01*
G01*
X143700000Y-138805200D02*
G75*
G03X143700000Y-138805200I-700000J0D01*
G01*
X143700000Y-127919484D02*
G75*
G03X143700000Y-127919484I-700000J0D01*
G01*
X125432600Y-140121400D02*
G75*
G03X125432600Y-140121400I-700000J0D01*
G01*
X140800000Y-140165200D02*
G75*
G03X140800000Y-140165200I-700000J0D01*
G01*
X140800000Y-129279484D02*
G75*
G03X140800000Y-129279484I-700000J0D01*
G01*
X140800000Y-112953770D02*
G75*
G03X140800000Y-112953770I-700000J0D01*
G01*
X140800000Y-102068056D02*
G75*
G03X140800000Y-102068056I-700000J0D01*
G01*
X140800000Y-91182342D02*
G75*
G03X140800000Y-91182342I-700000J0D01*
G01*
X140800000Y-80296628D02*
G75*
G03X140800000Y-80296628I-700000J0D01*
G01*
X143700000Y-119753770D02*
G75*
G03X143700000Y-119753770I-700000J0D01*
G01*
X134456400Y-114043769D02*
G75*
G03X134456400Y-114043769I-700000J0D01*
G01*
X143700000Y-108868056D02*
G75*
G03X143700000Y-108868056I-700000J0D01*
G01*
X134456400Y-103238055D02*
G75*
G03X134456400Y-103238055I-700000J0D01*
G01*
X143700000Y-97982342D02*
G75*
G03X143700000Y-97982342I-700000J0D01*
G01*
X134456400Y-92272341D02*
G75*
G03X134456400Y-92272341I-700000J0D01*
G01*
X143700000Y-87096628D02*
G75*
G03X143700000Y-87096628I-700000J0D01*
G01*
X134456400Y-81386627D02*
G75*
G03X134456400Y-81386627I-700000J0D01*
G01*
X143700000Y-114313770D02*
G75*
G03X143700000Y-114313770I-700000J0D01*
G01*
X143700000Y-103428056D02*
G75*
G03X143700000Y-103428056I-700000J0D01*
G01*
X143700000Y-92542342D02*
G75*
G03X143700000Y-92542342I-700000J0D01*
G01*
X143700000Y-81656628D02*
G75*
G03X143700000Y-81656628I-700000J0D01*
G01*
X143700000Y-117033770D02*
G75*
G03X143700000Y-117033770I-700000J0D01*
G01*
X143700000Y-106148056D02*
G75*
G03X143700000Y-106148056I-700000J0D01*
G01*
X143700000Y-95262342D02*
G75*
G03X143700000Y-95262342I-700000J0D01*
G01*
X143700000Y-84376628D02*
G75*
G03X143700000Y-84376628I-700000J0D01*
G01*
X140800000Y-118393770D02*
G75*
G03X140800000Y-118393770I-700000J0D01*
G01*
X140800000Y-107508056D02*
G75*
G03X140800000Y-107508056I-700000J0D01*
G01*
X140800000Y-96622342D02*
G75*
G03X140800000Y-96622342I-700000J0D01*
G01*
X140800000Y-85736628D02*
G75*
G03X140800000Y-85736628I-700000J0D01*
G01*
X140800000Y-69410914D02*
G75*
G03X140800000Y-69410914I-700000J0D01*
G01*
X140800000Y-58525200D02*
G75*
G03X140800000Y-58525200I-700000J0D01*
G01*
X143700000Y-76210914D02*
G75*
G03X143700000Y-76210914I-700000J0D01*
G01*
X134456400Y-70500913D02*
G75*
G03X134456400Y-70500913I-700000J0D01*
G01*
X143700000Y-65325200D02*
G75*
G03X143700000Y-65325200I-700000J0D01*
G01*
X134456400Y-59512200D02*
G75*
G03X134456400Y-59512200I-700000J0D01*
G01*
X143700000Y-70770914D02*
G75*
G03X143700000Y-70770914I-700000J0D01*
G01*
X143700000Y-59885200D02*
G75*
G03X143700000Y-59885200I-700000J0D01*
G01*
X143700000Y-73490914D02*
G75*
G03X143700000Y-73490914I-700000J0D01*
G01*
X143700000Y-62605200D02*
G75*
G03X143700000Y-62605200I-700000J0D01*
G01*
X140800000Y-74850914D02*
G75*
G03X140800000Y-74850914I-700000J0D01*
G01*
X140800000Y-63965200D02*
G75*
G03X140800000Y-63965200I-700000J0D01*
G01*
X106731840Y-109257320D02*
X108131840Y-109257320D01*
X108131840Y-106937320D02*
X106231840Y-106937320D01*
X134491400Y-75440913D02*
X134491400Y-73155913D01*
X134491400Y-73155913D02*
X133021400Y-73155913D01*
X133021400Y-73155913D02*
X133021400Y-75440913D01*
X133021400Y-116698769D02*
X133021400Y-118983769D01*
X134491400Y-116698769D02*
X133021400Y-116698769D01*
X134491400Y-118983769D02*
X134491400Y-116698769D01*
X134491400Y-108338055D02*
X134491400Y-106053055D01*
X134491400Y-106053055D02*
X133021400Y-106053055D01*
X133021400Y-106053055D02*
X133021400Y-108338055D01*
X133021400Y-94927341D02*
X133021400Y-97212341D01*
X134491400Y-94927341D02*
X133021400Y-94927341D01*
X134491400Y-97212341D02*
X134491400Y-94927341D01*
X134491400Y-86326627D02*
X134491400Y-84041627D01*
X134491400Y-84041627D02*
X133021400Y-84041627D01*
X133021400Y-84041627D02*
X133021400Y-86326627D01*
X134491400Y-64555199D02*
X134491400Y-62270199D01*
X134491400Y-62270199D02*
X133021400Y-62270199D01*
X133021400Y-62270199D02*
X133021400Y-64555199D01*
X133602759Y-116233769D02*
X133910041Y-116233769D01*
X133602759Y-115473769D02*
X133910041Y-115473769D01*
X133602759Y-104748055D02*
X133910041Y-104748055D01*
X133602759Y-105508055D02*
X133910041Y-105508055D01*
X133602759Y-93702341D02*
X133910041Y-93702341D01*
X133602759Y-94462341D02*
X133910041Y-94462341D01*
X133602759Y-83576627D02*
X133910041Y-83576627D01*
X133602759Y-82816627D02*
X133910041Y-82816627D01*
X133602759Y-61045199D02*
X133910041Y-61045199D01*
X133602759Y-61805199D02*
X133910041Y-61805199D01*
X65501800Y-59295199D02*
X65501800Y-61580199D01*
X65501800Y-61580199D02*
X66971800Y-61580199D01*
X66971800Y-61580199D02*
X66971800Y-59295199D01*
X66971800Y-72465913D02*
X66971800Y-70180913D01*
X65501800Y-72465913D02*
X66971800Y-72465913D01*
X65501800Y-70180913D02*
X65501800Y-72465913D01*
X65501800Y-81066627D02*
X65501800Y-83351627D01*
X65501800Y-83351627D02*
X66971800Y-83351627D01*
X66971800Y-83351627D02*
X66971800Y-81066627D01*
X66971800Y-94237341D02*
X66971800Y-91952341D01*
X65501800Y-94237341D02*
X66971800Y-94237341D01*
X65501800Y-91952341D02*
X65501800Y-94237341D01*
X66971800Y-105123055D02*
X66971800Y-102838055D01*
X65501800Y-105123055D02*
X66971800Y-105123055D01*
X65501800Y-102838055D02*
X65501800Y-105123055D01*
X65501800Y-113723769D02*
X65501800Y-116008769D01*
X65501800Y-116008769D02*
X66971800Y-116008769D01*
X66971800Y-116008769D02*
X66971800Y-113723769D01*
X66971800Y-126894483D02*
X66971800Y-124609483D01*
X65501800Y-126894483D02*
X66971800Y-126894483D01*
X65501800Y-124609483D02*
X65501800Y-126894483D01*
X65501800Y-135495199D02*
X65501800Y-137780199D01*
X65501800Y-137780199D02*
X66971800Y-137780199D01*
X66971800Y-137780199D02*
X66971800Y-135495199D01*
X73027599Y-133027800D02*
X70742599Y-133027800D01*
X73027599Y-134497800D02*
X73027599Y-133027800D01*
X70742599Y-134497800D02*
X73027599Y-134497800D01*
X86327599Y-133027800D02*
X84042599Y-133027800D01*
X86327599Y-134497800D02*
X86327599Y-133027800D01*
X84042599Y-134497800D02*
X86327599Y-134497800D01*
X97412599Y-134497800D02*
X99697599Y-134497800D01*
X99697599Y-134497800D02*
X99697599Y-133027800D01*
X99697599Y-133027800D02*
X97412599Y-133027800D01*
X113177599Y-133027800D02*
X110892599Y-133027800D01*
X113177599Y-134497800D02*
X113177599Y-133027800D01*
X110892599Y-134497800D02*
X113177599Y-134497800D01*
X124142599Y-134497800D02*
X126427599Y-134497800D01*
X126427599Y-134497800D02*
X126427599Y-133027800D01*
X126427599Y-133027800D02*
X124142599Y-133027800D01*
X134491400Y-140755199D02*
X134491400Y-138470199D01*
X134491400Y-138470199D02*
X133021400Y-138470199D01*
X133021400Y-138470199D02*
X133021400Y-140755199D01*
X134491400Y-129869483D02*
X134491400Y-127584483D01*
X134491400Y-127584483D02*
X133021400Y-127584483D01*
X133021400Y-127584483D02*
X133021400Y-129869483D01*
X66390441Y-62045199D02*
X66083159Y-62045199D01*
X66390441Y-62805199D02*
X66083159Y-62805199D01*
X66390441Y-73690913D02*
X66083159Y-73690913D01*
X66390441Y-72930913D02*
X66083159Y-72930913D01*
X66390441Y-83816627D02*
X66083159Y-83816627D01*
X66390441Y-84576627D02*
X66083159Y-84576627D01*
X66390441Y-95462341D02*
X66083159Y-95462341D01*
X66390441Y-94702341D02*
X66083159Y-94702341D01*
X66390441Y-106348055D02*
X66083159Y-106348055D01*
X66390441Y-105588055D02*
X66083159Y-105588055D01*
X66390441Y-116473769D02*
X66083159Y-116473769D01*
X66390441Y-117233769D02*
X66083159Y-117233769D01*
X66390441Y-128119483D02*
X66083159Y-128119483D01*
X66390441Y-127359483D02*
X66083159Y-127359483D01*
X66390441Y-138245199D02*
X66083159Y-138245199D01*
X66390441Y-139005199D02*
X66083159Y-139005199D01*
X73492599Y-133609159D02*
X73492599Y-133916441D01*
X74252599Y-133609159D02*
X74252599Y-133916441D01*
X87552599Y-133609159D02*
X87552599Y-133916441D01*
X86792599Y-133609159D02*
X86792599Y-133916441D01*
X100162599Y-133609159D02*
X100162599Y-133916441D01*
X100922599Y-133609159D02*
X100922599Y-133916441D01*
X114402599Y-133609159D02*
X114402599Y-133916441D01*
X113642599Y-133609159D02*
X113642599Y-133916441D01*
X127652599Y-133609159D02*
X127652599Y-133916441D01*
X126892599Y-133609159D02*
X126892599Y-133916441D01*
X133602759Y-138005199D02*
X133910041Y-138005199D01*
X133602759Y-137245199D02*
X133910041Y-137245199D01*
X133602759Y-127119483D02*
X133910041Y-127119483D01*
X133602759Y-126359483D02*
X133910041Y-126359483D01*
X102946200Y-93913800D02*
X100996200Y-93913800D01*
X102946200Y-93913800D02*
X104896200Y-93913800D01*
X102946200Y-102783800D02*
X100996200Y-102783800D01*
X102946200Y-102783800D02*
X106396200Y-102783800D01*
D12*
X93051523Y-75545580D02*
X93051523Y-74545580D01*
X93289619Y-74545580D01*
X93432476Y-74593200D01*
X93527714Y-74688438D01*
X93575333Y-74783676D01*
X93622952Y-74974152D01*
X93622952Y-75117009D01*
X93575333Y-75307485D01*
X93527714Y-75402723D01*
X93432476Y-75497961D01*
X93289619Y-75545580D01*
X93051523Y-75545580D01*
X94575333Y-75545580D02*
X94003904Y-75545580D01*
X94289619Y-75545580D02*
X94289619Y-74545580D01*
X94194380Y-74688438D01*
X94099142Y-74783676D01*
X94003904Y-74831295D01*
X95527714Y-75545580D02*
X94956285Y-75545580D01*
X95242000Y-75545580D02*
X95242000Y-74545580D01*
X95146761Y-74688438D01*
X95051523Y-74783676D01*
X94956285Y-74831295D01*
X95908666Y-74640819D02*
X95956285Y-74593200D01*
X96051523Y-74545580D01*
X96289619Y-74545580D01*
X96384857Y-74593200D01*
X96432476Y-74640819D01*
X96480095Y-74736057D01*
X96480095Y-74831295D01*
X96432476Y-74974152D01*
X95861047Y-75545580D01*
X96480095Y-75545580D01*
X115555733Y-84685142D02*
X115508114Y-84732761D01*
X115365257Y-84780380D01*
X115270019Y-84780380D01*
X115127161Y-84732761D01*
X115031923Y-84637523D01*
X114984304Y-84542285D01*
X114936685Y-84351809D01*
X114936685Y-84208952D01*
X114984304Y-84018476D01*
X115031923Y-83923238D01*
X115127161Y-83828000D01*
X115270019Y-83780380D01*
X115365257Y-83780380D01*
X115508114Y-83828000D01*
X115555733Y-83875619D01*
X116508114Y-84780380D02*
X115936685Y-84780380D01*
X116222400Y-84780380D02*
X116222400Y-83780380D01*
X116127161Y-83923238D01*
X116031923Y-84018476D01*
X115936685Y-84066095D01*
X106233333Y-87107142D02*
X106185714Y-87154761D01*
X106042857Y-87202380D01*
X105947619Y-87202380D01*
X105804761Y-87154761D01*
X105709523Y-87059523D01*
X105661904Y-86964285D01*
X105614285Y-86773809D01*
X105614285Y-86630952D01*
X105661904Y-86440476D01*
X105709523Y-86345238D01*
X105804761Y-86250000D01*
X105947619Y-86202380D01*
X106042857Y-86202380D01*
X106185714Y-86250000D01*
X106233333Y-86297619D01*
X106614285Y-86297619D02*
X106661904Y-86250000D01*
X106757142Y-86202380D01*
X106995238Y-86202380D01*
X107090476Y-86250000D01*
X107138095Y-86297619D01*
X107185714Y-86392857D01*
X107185714Y-86488095D01*
X107138095Y-86630952D01*
X106566666Y-87202380D01*
X107185714Y-87202380D01*
X102677933Y-104116142D02*
X102630314Y-104163761D01*
X102487457Y-104211380D01*
X102392219Y-104211380D01*
X102249361Y-104163761D01*
X102154123Y-104068523D01*
X102106504Y-103973285D01*
X102058885Y-103782809D01*
X102058885Y-103639952D01*
X102106504Y-103449476D01*
X102154123Y-103354238D01*
X102249361Y-103259000D01*
X102392219Y-103211380D01*
X102487457Y-103211380D01*
X102630314Y-103259000D01*
X102677933Y-103306619D01*
X103011266Y-103211380D02*
X103630314Y-103211380D01*
X103296980Y-103592333D01*
X103439838Y-103592333D01*
X103535076Y-103639952D01*
X103582695Y-103687571D01*
X103630314Y-103782809D01*
X103630314Y-104020904D01*
X103582695Y-104116142D01*
X103535076Y-104163761D01*
X103439838Y-104211380D01*
X103154123Y-104211380D01*
X103058885Y-104163761D01*
X103011266Y-104116142D01*
X111542533Y-104141542D02*
X111494914Y-104189161D01*
X111352057Y-104236780D01*
X111256819Y-104236780D01*
X111113961Y-104189161D01*
X111018723Y-104093923D01*
X110971104Y-103998685D01*
X110923485Y-103808209D01*
X110923485Y-103665352D01*
X110971104Y-103474876D01*
X111018723Y-103379638D01*
X111113961Y-103284400D01*
X111256819Y-103236780D01*
X111352057Y-103236780D01*
X111494914Y-103284400D01*
X111542533Y-103332019D01*
X112399676Y-103570114D02*
X112399676Y-104236780D01*
X112161580Y-103189161D02*
X111923485Y-103903447D01*
X112542533Y-103903447D01*
X113091933Y-79400342D02*
X113044314Y-79447961D01*
X112901457Y-79495580D01*
X112806219Y-79495580D01*
X112663361Y-79447961D01*
X112568123Y-79352723D01*
X112520504Y-79257485D01*
X112472885Y-79067009D01*
X112472885Y-78924152D01*
X112520504Y-78733676D01*
X112568123Y-78638438D01*
X112663361Y-78543200D01*
X112806219Y-78495580D01*
X112901457Y-78495580D01*
X113044314Y-78543200D01*
X113091933Y-78590819D01*
X113949076Y-78495580D02*
X113758600Y-78495580D01*
X113663361Y-78543200D01*
X113615742Y-78590819D01*
X113520504Y-78733676D01*
X113472885Y-78924152D01*
X113472885Y-79305104D01*
X113520504Y-79400342D01*
X113568123Y-79447961D01*
X113663361Y-79495580D01*
X113853838Y-79495580D01*
X113949076Y-79447961D01*
X113996695Y-79400342D01*
X114044314Y-79305104D01*
X114044314Y-79067009D01*
X113996695Y-78971771D01*
X113949076Y-78924152D01*
X113853838Y-78876533D01*
X113663361Y-78876533D01*
X113568123Y-78924152D01*
X113520504Y-78971771D01*
X113472885Y-79067009D01*
X112906142Y-69407066D02*
X112953761Y-69454685D01*
X113001380Y-69597542D01*
X113001380Y-69692780D01*
X112953761Y-69835638D01*
X112858523Y-69930876D01*
X112763285Y-69978495D01*
X112572809Y-70026114D01*
X112429952Y-70026114D01*
X112239476Y-69978495D01*
X112144238Y-69930876D01*
X112049000Y-69835638D01*
X112001380Y-69692780D01*
X112001380Y-69597542D01*
X112049000Y-69454685D01*
X112096619Y-69407066D01*
X112001380Y-69073733D02*
X112001380Y-68407066D01*
X113001380Y-68835638D01*
X105268733Y-73456742D02*
X105221114Y-73504361D01*
X105078257Y-73551980D01*
X104983019Y-73551980D01*
X104840161Y-73504361D01*
X104744923Y-73409123D01*
X104697304Y-73313885D01*
X104649685Y-73123409D01*
X104649685Y-72980552D01*
X104697304Y-72790076D01*
X104744923Y-72694838D01*
X104840161Y-72599600D01*
X104983019Y-72551980D01*
X105078257Y-72551980D01*
X105221114Y-72599600D01*
X105268733Y-72647219D01*
X105840161Y-72980552D02*
X105744923Y-72932933D01*
X105697304Y-72885314D01*
X105649685Y-72790076D01*
X105649685Y-72742457D01*
X105697304Y-72647219D01*
X105744923Y-72599600D01*
X105840161Y-72551980D01*
X106030638Y-72551980D01*
X106125876Y-72599600D01*
X106173495Y-72647219D01*
X106221114Y-72742457D01*
X106221114Y-72790076D01*
X106173495Y-72885314D01*
X106125876Y-72932933D01*
X106030638Y-72980552D01*
X105840161Y-72980552D01*
X105744923Y-73028171D01*
X105697304Y-73075790D01*
X105649685Y-73171028D01*
X105649685Y-73361504D01*
X105697304Y-73456742D01*
X105744923Y-73504361D01*
X105840161Y-73551980D01*
X106030638Y-73551980D01*
X106125876Y-73504361D01*
X106173495Y-73456742D01*
X106221114Y-73361504D01*
X106221114Y-73171028D01*
X106173495Y-73075790D01*
X106125876Y-73028171D01*
X106030638Y-72980552D01*
X93051523Y-70008380D02*
X93051523Y-69008380D01*
X93289619Y-69008380D01*
X93432476Y-69056000D01*
X93527714Y-69151238D01*
X93575333Y-69246476D01*
X93622952Y-69436952D01*
X93622952Y-69579809D01*
X93575333Y-69770285D01*
X93527714Y-69865523D01*
X93432476Y-69960761D01*
X93289619Y-70008380D01*
X93051523Y-70008380D01*
X94575333Y-70008380D02*
X94003904Y-70008380D01*
X94289619Y-70008380D02*
X94289619Y-69008380D01*
X94194380Y-69151238D01*
X94099142Y-69246476D01*
X94003904Y-69294095D01*
X95527714Y-70008380D02*
X94956285Y-70008380D01*
X95242000Y-70008380D02*
X95242000Y-69008380D01*
X95146761Y-69151238D01*
X95051523Y-69246476D01*
X94956285Y-69294095D01*
X95861047Y-69008380D02*
X96480095Y-69008380D01*
X96146761Y-69389333D01*
X96289619Y-69389333D01*
X96384857Y-69436952D01*
X96432476Y-69484571D01*
X96480095Y-69579809D01*
X96480095Y-69817904D01*
X96432476Y-69913142D01*
X96384857Y-69960761D01*
X96289619Y-70008380D01*
X96003904Y-70008380D01*
X95908666Y-69960761D01*
X95861047Y-69913142D01*
X106549866Y-65350171D02*
X106216533Y-65350171D01*
X106216533Y-65873980D02*
X106216533Y-64873980D01*
X106692723Y-64873980D01*
X107597485Y-65873980D02*
X107026057Y-65873980D01*
X107311771Y-65873980D02*
X107311771Y-64873980D01*
X107216533Y-65016838D01*
X107121295Y-65112076D01*
X107026057Y-65159695D01*
X76455580Y-54132323D02*
X77169866Y-54132323D01*
X77312723Y-54179942D01*
X77407961Y-54275180D01*
X77455580Y-54418038D01*
X77455580Y-54513276D01*
X76550819Y-53703752D02*
X76503200Y-53656133D01*
X76455580Y-53560895D01*
X76455580Y-53322800D01*
X76503200Y-53227561D01*
X76550819Y-53179942D01*
X76646057Y-53132323D01*
X76741295Y-53132323D01*
X76884152Y-53179942D01*
X77455580Y-53751371D01*
X77455580Y-53132323D01*
X76455580Y-52227561D02*
X76455580Y-52703752D01*
X76931771Y-52751371D01*
X76884152Y-52703752D01*
X76836533Y-52608514D01*
X76836533Y-52370419D01*
X76884152Y-52275180D01*
X76931771Y-52227561D01*
X77027009Y-52179942D01*
X77265104Y-52179942D01*
X77360342Y-52227561D01*
X77407961Y-52275180D01*
X77455580Y-52370419D01*
X77455580Y-52608514D01*
X77407961Y-52703752D01*
X77360342Y-52751371D01*
X86237380Y-71497723D02*
X86951666Y-71497723D01*
X87094523Y-71545342D01*
X87189761Y-71640580D01*
X87237380Y-71783438D01*
X87237380Y-71878676D01*
X86332619Y-71069152D02*
X86285000Y-71021533D01*
X86237380Y-70926295D01*
X86237380Y-70688200D01*
X86285000Y-70592961D01*
X86332619Y-70545342D01*
X86427857Y-70497723D01*
X86523095Y-70497723D01*
X86665952Y-70545342D01*
X87237380Y-71116771D01*
X87237380Y-70497723D01*
X86570714Y-69640580D02*
X87237380Y-69640580D01*
X86189761Y-69878676D02*
X86904047Y-70116771D01*
X86904047Y-69497723D01*
X119058276Y-62926380D02*
X119058276Y-63640666D01*
X119010657Y-63783523D01*
X118915419Y-63878761D01*
X118772561Y-63926380D01*
X118677323Y-63926380D01*
X119486847Y-63021619D02*
X119534466Y-62974000D01*
X119629704Y-62926380D01*
X119867800Y-62926380D01*
X119963038Y-62974000D01*
X120010657Y-63021619D01*
X120058276Y-63116857D01*
X120058276Y-63212095D01*
X120010657Y-63354952D01*
X119439228Y-63926380D01*
X120058276Y-63926380D01*
X120391609Y-62926380D02*
X121010657Y-62926380D01*
X120677323Y-63307333D01*
X120820180Y-63307333D01*
X120915419Y-63354952D01*
X120963038Y-63402571D01*
X121010657Y-63497809D01*
X121010657Y-63735904D01*
X120963038Y-63831142D01*
X120915419Y-63878761D01*
X120820180Y-63926380D01*
X120534466Y-63926380D01*
X120439228Y-63878761D01*
X120391609Y-63831142D01*
X108164333Y-81376780D02*
X107831000Y-80900590D01*
X107592904Y-81376780D02*
X107592904Y-80376780D01*
X107973857Y-80376780D01*
X108069095Y-80424400D01*
X108116714Y-80472019D01*
X108164333Y-80567257D01*
X108164333Y-80710114D01*
X108116714Y-80805352D01*
X108069095Y-80852971D01*
X107973857Y-80900590D01*
X107592904Y-80900590D01*
X109116714Y-81376780D02*
X108545285Y-81376780D01*
X108831000Y-81376780D02*
X108831000Y-80376780D01*
X108735761Y-80519638D01*
X108640523Y-80614876D01*
X108545285Y-80662495D01*
X110907533Y-79546380D02*
X110574200Y-79070190D01*
X110336104Y-79546380D02*
X110336104Y-78546380D01*
X110717057Y-78546380D01*
X110812295Y-78594000D01*
X110859914Y-78641619D01*
X110907533Y-78736857D01*
X110907533Y-78879714D01*
X110859914Y-78974952D01*
X110812295Y-79022571D01*
X110717057Y-79070190D01*
X110336104Y-79070190D01*
X111288485Y-78641619D02*
X111336104Y-78594000D01*
X111431342Y-78546380D01*
X111669438Y-78546380D01*
X111764676Y-78594000D01*
X111812295Y-78641619D01*
X111859914Y-78736857D01*
X111859914Y-78832095D01*
X111812295Y-78974952D01*
X111240866Y-79546380D01*
X111859914Y-79546380D01*
X111277495Y-89063580D02*
X111277495Y-89873104D01*
X111325114Y-89968342D01*
X111372733Y-90015961D01*
X111467971Y-90063580D01*
X111658447Y-90063580D01*
X111753685Y-90015961D01*
X111801304Y-89968342D01*
X111848923Y-89873104D01*
X111848923Y-89063580D01*
X112848923Y-90063580D02*
X112277495Y-90063580D01*
X112563209Y-90063580D02*
X112563209Y-89063580D01*
X112467971Y-89206438D01*
X112372733Y-89301676D01*
X112277495Y-89349295D01*
X113944495Y-103262180D02*
X113944495Y-104071704D01*
X113992114Y-104166942D01*
X114039733Y-104214561D01*
X114134971Y-104262180D01*
X114325447Y-104262180D01*
X114420685Y-104214561D01*
X114468304Y-104166942D01*
X114515923Y-104071704D01*
X114515923Y-103262180D01*
X114944495Y-103357419D02*
X114992114Y-103309800D01*
X115087352Y-103262180D01*
X115325447Y-103262180D01*
X115420685Y-103309800D01*
X115468304Y-103357419D01*
X115515923Y-103452657D01*
X115515923Y-103547895D01*
X115468304Y-103690752D01*
X114896876Y-104262180D01*
X115515923Y-104262180D01*
X104521095Y-73243580D02*
X104521095Y-74053104D01*
X104568714Y-74148342D01*
X104616333Y-74195961D01*
X104711571Y-74243580D01*
X104902047Y-74243580D01*
X104997285Y-74195961D01*
X105044904Y-74148342D01*
X105092523Y-74053104D01*
X105092523Y-73243580D01*
X106044904Y-73243580D02*
X105568714Y-73243580D01*
X105521095Y-73719771D01*
X105568714Y-73672152D01*
X105663952Y-73624533D01*
X105902047Y-73624533D01*
X105997285Y-73672152D01*
X106044904Y-73719771D01*
X106092523Y-73815009D01*
X106092523Y-74053104D01*
X106044904Y-74148342D01*
X105997285Y-74195961D01*
X105902047Y-74243580D01*
X105663952Y-74243580D01*
X105568714Y-74195961D01*
X105521095Y-74148342D01*
X108653333Y-87127142D02*
X108605714Y-87174761D01*
X108462857Y-87222380D01*
X108367619Y-87222380D01*
X108224761Y-87174761D01*
X108129523Y-87079523D01*
X108081904Y-86984285D01*
X108034285Y-86793809D01*
X108034285Y-86650952D01*
X108081904Y-86460476D01*
X108129523Y-86365238D01*
X108224761Y-86270000D01*
X108367619Y-86222380D01*
X108462857Y-86222380D01*
X108605714Y-86270000D01*
X108653333Y-86317619D01*
X109558095Y-86222380D02*
X109081904Y-86222380D01*
X109034285Y-86698571D01*
X109081904Y-86650952D01*
X109177142Y-86603333D01*
X109415238Y-86603333D01*
X109510476Y-86650952D01*
X109558095Y-86698571D01*
X109605714Y-86793809D01*
X109605714Y-87031904D01*
X109558095Y-87127142D01*
X109510476Y-87174761D01*
X109415238Y-87222380D01*
X109177142Y-87222380D01*
X109081904Y-87174761D01*
X109034285Y-87127142D01*
X95923380Y-105017676D02*
X94923380Y-105017676D01*
X94923380Y-104779580D01*
X94971000Y-104636723D01*
X95066238Y-104541485D01*
X95161476Y-104493866D01*
X95351952Y-104446247D01*
X95494809Y-104446247D01*
X95685285Y-104493866D01*
X95780523Y-104541485D01*
X95875761Y-104636723D01*
X95923380Y-104779580D01*
X95923380Y-105017676D01*
X95923380Y-103493866D02*
X95923380Y-104065295D01*
X95923380Y-103779580D02*
X94923380Y-103779580D01*
X95066238Y-103874819D01*
X95161476Y-103970057D01*
X95209095Y-104065295D01*
X95923380Y-102541485D02*
X95923380Y-103112914D01*
X95923380Y-102827200D02*
X94923380Y-102827200D01*
X95066238Y-102922438D01*
X95161476Y-103017676D01*
X95209095Y-103112914D01*
X95923380Y-101589104D02*
X95923380Y-102160533D01*
X95923380Y-101874819D02*
X94923380Y-101874819D01*
X95066238Y-101970057D01*
X95161476Y-102065295D01*
X95209095Y-102160533D01*
X93051523Y-64471180D02*
X93051523Y-63471180D01*
X93289619Y-63471180D01*
X93432476Y-63518800D01*
X93527714Y-63614038D01*
X93575333Y-63709276D01*
X93622952Y-63899752D01*
X93622952Y-64042609D01*
X93575333Y-64233085D01*
X93527714Y-64328323D01*
X93432476Y-64423561D01*
X93289619Y-64471180D01*
X93051523Y-64471180D01*
X94575333Y-64471180D02*
X94003904Y-64471180D01*
X94289619Y-64471180D02*
X94289619Y-63471180D01*
X94194380Y-63614038D01*
X94099142Y-63709276D01*
X94003904Y-63756895D01*
X95527714Y-64471180D02*
X94956285Y-64471180D01*
X95242000Y-64471180D02*
X95242000Y-63471180D01*
X95146761Y-63614038D01*
X95051523Y-63709276D01*
X94956285Y-63756895D01*
X96384857Y-63804514D02*
X96384857Y-64471180D01*
X96146761Y-63423561D02*
X95908666Y-64137847D01*
X96527714Y-64137847D01*
X93983276Y-55193680D02*
X93983276Y-55907966D01*
X93935657Y-56050823D01*
X93840419Y-56146061D01*
X93697561Y-56193680D01*
X93602323Y-56193680D01*
X94411847Y-55288919D02*
X94459466Y-55241300D01*
X94554704Y-55193680D01*
X94792800Y-55193680D01*
X94888038Y-55241300D01*
X94935657Y-55288919D01*
X94983276Y-55384157D01*
X94983276Y-55479395D01*
X94935657Y-55622252D01*
X94364228Y-56193680D01*
X94983276Y-56193680D01*
X95840419Y-55193680D02*
X95649942Y-55193680D01*
X95554704Y-55241300D01*
X95507085Y-55288919D01*
X95411847Y-55431776D01*
X95364228Y-55622252D01*
X95364228Y-56003204D01*
X95411847Y-56098442D01*
X95459466Y-56146061D01*
X95554704Y-56193680D01*
X95745180Y-56193680D01*
X95840419Y-56146061D01*
X95888038Y-56098442D01*
X95935657Y-56003204D01*
X95935657Y-55765109D01*
X95888038Y-55669871D01*
X95840419Y-55622252D01*
X95745180Y-55574633D01*
X95554704Y-55574633D01*
X95459466Y-55622252D01*
X95411847Y-55669871D01*
X95364228Y-55765109D01*
X123904476Y-105896980D02*
X123904476Y-106611266D01*
X123856857Y-106754123D01*
X123761619Y-106849361D01*
X123618761Y-106896980D01*
X123523523Y-106896980D01*
X124333047Y-105992219D02*
X124380666Y-105944600D01*
X124475904Y-105896980D01*
X124714000Y-105896980D01*
X124809238Y-105944600D01*
X124856857Y-105992219D01*
X124904476Y-106087457D01*
X124904476Y-106182695D01*
X124856857Y-106325552D01*
X124285428Y-106896980D01*
X124904476Y-106896980D01*
X125237809Y-105896980D02*
X125904476Y-105896980D01*
X125475904Y-106896980D01*
X98523380Y-100445866D02*
X98047190Y-100779200D01*
X98523380Y-101017295D02*
X97523380Y-101017295D01*
X97523380Y-100636342D01*
X97571000Y-100541104D01*
X97618619Y-100493485D01*
X97713857Y-100445866D01*
X97856714Y-100445866D01*
X97951952Y-100493485D01*
X97999571Y-100541104D01*
X98047190Y-100636342D01*
X98047190Y-101017295D01*
X97523380Y-100112533D02*
X97523380Y-99493485D01*
X97904333Y-99826819D01*
X97904333Y-99683961D01*
X97951952Y-99588723D01*
X97999571Y-99541104D01*
X98094809Y-99493485D01*
X98332904Y-99493485D01*
X98428142Y-99541104D01*
X98475761Y-99588723D01*
X98523380Y-99683961D01*
X98523380Y-99969676D01*
X98475761Y-100064914D01*
X98428142Y-100112533D01*
X121408780Y-103976466D02*
X120932590Y-104309800D01*
X121408780Y-104547895D02*
X120408780Y-104547895D01*
X120408780Y-104166942D01*
X120456400Y-104071704D01*
X120504019Y-104024085D01*
X120599257Y-103976466D01*
X120742114Y-103976466D01*
X120837352Y-104024085D01*
X120884971Y-104071704D01*
X120932590Y-104166942D01*
X120932590Y-104547895D01*
X120742114Y-103119323D02*
X121408780Y-103119323D01*
X120361161Y-103357419D02*
X121075447Y-103595514D01*
X121075447Y-102976466D01*
X121408780Y-101289146D02*
X120932590Y-101622480D01*
X121408780Y-101860575D02*
X120408780Y-101860575D01*
X120408780Y-101479622D01*
X120456400Y-101384384D01*
X120504019Y-101336765D01*
X120599257Y-101289146D01*
X120742114Y-101289146D01*
X120837352Y-101336765D01*
X120884971Y-101384384D01*
X120932590Y-101479622D01*
X120932590Y-101860575D01*
X120408780Y-100384384D02*
X120408780Y-100860575D01*
X120884971Y-100908194D01*
X120837352Y-100860575D01*
X120789733Y-100765337D01*
X120789733Y-100527241D01*
X120837352Y-100432003D01*
X120884971Y-100384384D01*
X120980209Y-100336765D01*
X121218304Y-100336765D01*
X121313542Y-100384384D01*
X121361161Y-100432003D01*
X121408780Y-100527241D01*
X121408780Y-100765337D01*
X121361161Y-100860575D01*
X121313542Y-100908194D01*
X121408780Y-98601826D02*
X120932590Y-98935160D01*
X121408780Y-99173255D02*
X120408780Y-99173255D01*
X120408780Y-98792302D01*
X120456400Y-98697064D01*
X120504019Y-98649445D01*
X120599257Y-98601826D01*
X120742114Y-98601826D01*
X120837352Y-98649445D01*
X120884971Y-98697064D01*
X120932590Y-98792302D01*
X120932590Y-99173255D01*
X120408780Y-97744683D02*
X120408780Y-97935160D01*
X120456400Y-98030398D01*
X120504019Y-98078017D01*
X120646876Y-98173255D01*
X120837352Y-98220874D01*
X121218304Y-98220874D01*
X121313542Y-98173255D01*
X121361161Y-98125636D01*
X121408780Y-98030398D01*
X121408780Y-97839921D01*
X121361161Y-97744683D01*
X121313542Y-97697064D01*
X121218304Y-97649445D01*
X120980209Y-97649445D01*
X120884971Y-97697064D01*
X120837352Y-97744683D01*
X120789733Y-97839921D01*
X120789733Y-98030398D01*
X120837352Y-98125636D01*
X120884971Y-98173255D01*
X120980209Y-98220874D01*
X121408780Y-93227186D02*
X120932590Y-93560520D01*
X121408780Y-93798615D02*
X120408780Y-93798615D01*
X120408780Y-93417662D01*
X120456400Y-93322424D01*
X120504019Y-93274805D01*
X120599257Y-93227186D01*
X120742114Y-93227186D01*
X120837352Y-93274805D01*
X120884971Y-93322424D01*
X120932590Y-93417662D01*
X120932590Y-93798615D01*
X120408780Y-92893853D02*
X120408780Y-92227186D01*
X121408780Y-92655758D01*
X121408780Y-90539866D02*
X120932590Y-90873200D01*
X121408780Y-91111295D02*
X120408780Y-91111295D01*
X120408780Y-90730342D01*
X120456400Y-90635104D01*
X120504019Y-90587485D01*
X120599257Y-90539866D01*
X120742114Y-90539866D01*
X120837352Y-90587485D01*
X120884971Y-90635104D01*
X120932590Y-90730342D01*
X120932590Y-91111295D01*
X120837352Y-89968438D02*
X120789733Y-90063676D01*
X120742114Y-90111295D01*
X120646876Y-90158914D01*
X120599257Y-90158914D01*
X120504019Y-90111295D01*
X120456400Y-90063676D01*
X120408780Y-89968438D01*
X120408780Y-89777961D01*
X120456400Y-89682723D01*
X120504019Y-89635104D01*
X120599257Y-89587485D01*
X120646876Y-89587485D01*
X120742114Y-89635104D01*
X120789733Y-89682723D01*
X120837352Y-89777961D01*
X120837352Y-89968438D01*
X120884971Y-90063676D01*
X120932590Y-90111295D01*
X121027828Y-90158914D01*
X121218304Y-90158914D01*
X121313542Y-90111295D01*
X121361161Y-90063676D01*
X121408780Y-89968438D01*
X121408780Y-89777961D01*
X121361161Y-89682723D01*
X121313542Y-89635104D01*
X121218304Y-89587485D01*
X121027828Y-89587485D01*
X120932590Y-89635104D01*
X120884971Y-89682723D01*
X120837352Y-89777961D01*
X103046761Y-57966133D02*
X103094380Y-57823276D01*
X103094380Y-57585180D01*
X103046761Y-57489942D01*
X102999142Y-57442323D01*
X102903904Y-57394704D01*
X102808666Y-57394704D01*
X102713428Y-57442323D01*
X102665809Y-57489942D01*
X102618190Y-57585180D01*
X102570571Y-57775657D01*
X102522952Y-57870895D01*
X102475333Y-57918514D01*
X102380095Y-57966133D01*
X102284857Y-57966133D01*
X102189619Y-57918514D01*
X102142000Y-57870895D01*
X102094380Y-57775657D01*
X102094380Y-57537561D01*
X102142000Y-57394704D01*
X102094380Y-57061371D02*
X103094380Y-56823276D01*
X102380095Y-56632800D01*
X103094380Y-56442323D01*
X102094380Y-56204228D01*
X103094380Y-55299466D02*
X103094380Y-55870895D01*
X103094380Y-55585180D02*
X102094380Y-55585180D01*
X102237238Y-55680419D01*
X102332476Y-55775657D01*
X102380095Y-55870895D01*
X121408780Y-95914506D02*
X120932590Y-96247840D01*
X121408780Y-96485935D02*
X120408780Y-96485935D01*
X120408780Y-96104982D01*
X120456400Y-96009744D01*
X120504019Y-95962125D01*
X120599257Y-95914506D01*
X120742114Y-95914506D01*
X120837352Y-95962125D01*
X120884971Y-96009744D01*
X120932590Y-96104982D01*
X120932590Y-96485935D01*
X121408780Y-95438316D02*
X121408780Y-95247840D01*
X121361161Y-95152601D01*
X121313542Y-95104982D01*
X121170685Y-95009744D01*
X120980209Y-94962125D01*
X120599257Y-94962125D01*
X120504019Y-95009744D01*
X120456400Y-95057363D01*
X120408780Y-95152601D01*
X120408780Y-95343078D01*
X120456400Y-95438316D01*
X120504019Y-95485935D01*
X120599257Y-95533554D01*
X120837352Y-95533554D01*
X120932590Y-95485935D01*
X120980209Y-95438316D01*
X121027828Y-95343078D01*
X121027828Y-95152601D01*
X120980209Y-95057363D01*
X120932590Y-95009744D01*
X120837352Y-94962125D01*
X106669935Y-105549700D02*
X106669935Y-106359224D01*
X106717554Y-106454462D01*
X106765173Y-106502081D01*
X106860411Y-106549700D01*
X107050887Y-106549700D01*
X107146125Y-106502081D01*
X107193744Y-106454462D01*
X107241363Y-106359224D01*
X107241363Y-105549700D01*
X108146125Y-105883034D02*
X108146125Y-106549700D01*
X107908030Y-105502081D02*
X107669935Y-106216367D01*
X108288982Y-106216367D01*
X105079895Y-103338380D02*
X105079895Y-104147904D01*
X105127514Y-104243142D01*
X105175133Y-104290761D01*
X105270371Y-104338380D01*
X105460847Y-104338380D01*
X105556085Y-104290761D01*
X105603704Y-104243142D01*
X105651323Y-104147904D01*
X105651323Y-103338380D01*
X106032276Y-103338380D02*
X106651323Y-103338380D01*
X106317990Y-103719333D01*
X106460847Y-103719333D01*
X106556085Y-103766952D01*
X106603704Y-103814571D01*
X106651323Y-103909809D01*
X106651323Y-104147904D01*
X106603704Y-104243142D01*
X106556085Y-104290761D01*
X106460847Y-104338380D01*
X106175133Y-104338380D01*
X106079895Y-104290761D01*
X106032276Y-104243142D01*
X110173473Y-111253542D02*
X110125854Y-111301161D01*
X109982997Y-111348780D01*
X109887759Y-111348780D01*
X109744901Y-111301161D01*
X109649663Y-111205923D01*
X109602044Y-111110685D01*
X109554425Y-110920209D01*
X109554425Y-110777352D01*
X109602044Y-110586876D01*
X109649663Y-110491638D01*
X109744901Y-110396400D01*
X109887759Y-110348780D01*
X109982997Y-110348780D01*
X110125854Y-110396400D01*
X110173473Y-110444019D01*
X110649663Y-111348780D02*
X110840140Y-111348780D01*
X110935378Y-111301161D01*
X110982997Y-111253542D01*
X111078235Y-111110685D01*
X111125854Y-110920209D01*
X111125854Y-110539257D01*
X111078235Y-110444019D01*
X111030616Y-110396400D01*
X110935378Y-110348780D01*
X110744901Y-110348780D01*
X110649663Y-110396400D01*
X110602044Y-110444019D01*
X110554425Y-110539257D01*
X110554425Y-110777352D01*
X110602044Y-110872590D01*
X110649663Y-110920209D01*
X110744901Y-110967828D01*
X110935378Y-110967828D01*
X111030616Y-110920209D01*
X111078235Y-110872590D01*
X111125854Y-110777352D01*
M02*
